<?xml version="1.0" standalone="no"?>
<!DOCTYPE svg PUBLIC "-//W3C//DTD SVG 1.1//EN" "http://www.w3.org/Graphics/SVG/1.1/DTD/svg11.dtd" >
<svg>
<metadata>
Created by FontForge 20090914 at Tue Apr  3 13:59:11 2018
 By www-data
Copyright (c) 2003 by Bitstream, Inc. All Rights Reserved.
Copyright (c) 2006 by Tavmjong Bah. All Rights Reserved.
DejaVu changes are in public domain

</metadata>
<defs>
<font id="DejaVuSansCondensed" horiz-adv-x="1544" >
  <font-face 
    font-family="DejaVu Sans Condensed"
    font-weight="400"
    font-stretch="semi-condensed"
    units-per-em="2048"
    panose-1="2 11 6 6 3 8 4 2 2 4"
    ascent="1556"
    descent="-492"
    x-height="1120"
    cap-height="1493"
    bbox="-1881 -948 3306 2524"
    underline-thickness="90"
    underline-position="-85"
    unicode-range="U+0020-U+1F640"
  />
<missing-glyph horiz-adv-x="1106" 
d="M92 -362v1806h921v-1806h-921zM195 -248h716v1577h-716v-1577z" />
    <glyph glyph-name="uni0622" unicode="&#x627;&#x653;" horiz-adv-x="512" 
d="M-67 1784l143.998 123c61.333 -55.333 112.333 -90 153 -104c25.333 -8.66699 54 -13 86 -13c34.667 0 64.334 5.33301 89.001 16c64.667 27.333 123.334 66.333 176.001 117v-125c-54.667 -42.667 -108.667 -73.667 -162 -93c-40.667 -14.667 -76.667 -22 -108 -22
c-20.667 0 -53.667 5.66699 -99 17c-46 11.333 -89.667 40.333 -131 87l-148 -128v125zM173.998 1556h165v-1556h-165v1556z" />
    <glyph glyph-name="uni0623" unicode="&#x627;&#x654;" horiz-adv-x="512" 
d="M98 1705l70.001 18c-26.667 13.333 -44.667 32 -54 56c-9.33301 24.667 -14 52 -14 82c0 64 16.667 110.333 50 139c34.667 30 79.667 45 135 45c37.333 0 71.666 -11 102.999 -33v-100c-30 22 -64.333 33 -103 33c-39.333 0 -64.333 -6 -75 -18
c-17.333 -21.333 -26 -40.666 -26 -57.999c0 -51.333 28.333 -86 85 -104c19.333 -6.66699 65 -0.333984 137 18.999v-102l-308 -77v100zM174.001 1556h165v-1556h-165v1556z" />
    <glyph glyph-name="uni0624" unicode="&#x648;&#x654;" horiz-adv-x="890" 
d="M246 865l70.001 18c-26.667 13.333 -44.667 32 -54 56c-9.33301 24.667 -14 52 -14 82c0 64 16.667 110.333 50 139c34.667 30 79.667 45 135 45c37.333 0 71.666 -11 102.999 -33v-100c-30 22 -64.333 33 -103 33c-39.333 0 -64.333 -6 -75 -18
c-17.333 -21.333 -26 -40.666 -26 -57.999c0 -51.333 28.333 -86 85 -104c19.333 -6.66699 65 -0.333984 137 18.999v-102l-308 -77v100zM445.001 452c-38 0 -70.333 -19 -97 -57c-14 -22 -21 -45 -21 -69c0 -34 15.333 -66.667 46 -98c28 -29.333 99.667 -44 215 -44
c0 122.667 -26 203.667 -78 243c-22 16.667 -43.667 25 -65 25zM749.001 184c0 -205.333 -51.666 -361.332 -154.999 -467.999c-57.333 -58.667 -113.666 -102 -168.999 -130c-115.333 -57.333 -282.333 -86 -501 -86v184c215.333 0 363 25.333 443 76
c100.667 63.333 169.667 144.333 207 243c-70.667 0 -119.334 3.33301 -146.001 10c-90.667 22 -148 44.333 -172 67c-69.333 65.333 -104 143.666 -104 234.999c0 94 26.667 170 80 228c62.667 68.667 135 103 217 103c53.333 0 101.666 -17 144.999 -51
c78 -60 124.667 -137.667 140 -233c10 -68 15 -127.333 15 -178z" />
    <glyph glyph-name="uni0625" unicode="&#x627;&#x655;" horiz-adv-x="512" 
d="M98 -400l70.001 18c-26.667 13.333 -44.667 32 -54 56c-9.33301 24.667 -14 52 -14 82c0 64 16.667 110.333 50 139c34.667 30 79.667 45 135 45c37.333 0 71.666 -11 102.999 -33v-100c-30 22 -64.333 33 -103 33c-39.333 0 -64.333 -6 -75 -18
c-17.333 -21.333 -26 -40.666 -26 -57.999c0 -51.333 28.333 -86 85 -104c19.333 -6.66699 65 -0.333984 137 18.999v-102l-308 -77v100zM174.001 1556h165v-1556h-165v1556z" />
    <glyph glyph-name="uni0626" unicode="&#x64a;&#x654;" horiz-adv-x="1442" 
d="M291 865l70.001 18c-26.667 13.333 -44.667 32 -54 56c-9.33301 24.667 -14 52 -14 82c0 64 16.667 110.333 50 139c34.667 30 79.667 45 135 45c37.333 0 71.666 -11 102.999 -33v-100c-30 22 -64.333 33 -103 33c-39.333 0 -64.333 -6 -75 -18
c-17.333 -21.333 -26 -40.666 -26 -57.999c0 -51.333 28.333 -86 85 -104c19.333 -6.66699 65 -0.333984 137 18.999v-102l-308 -77v100zM1229 12c-60.667 -113.333 -194.001 -194.33 -400.001 -242.997c-106 -25.333 -195 -38 -267 -38
c-77.333 0 -137.666 8.66699 -180.999 26c-176 69.333 -264 191 -264 365c0 78 19 154.667 57 230h165c-39.333 -87.333 -58.666 -164 -57.999 -230c1.33301 -98 51 -162 149 -192c58.667 -17.333 106 -24 142 -20c76 7.33301 152.667 19 230 35
c106 22 184.333 59.667 235 113c35.333 37.333 53 73.666 53 108.999c0 49.333 -38 83.666 -114 102.999c-39.333 10 -93.333 30.333 -162 61c-40 18 -77.333 44 -112 78c-38.667 38 -58 95.333 -58 172c0 100 56.667 174.667 170 224c57.333 24.667 117.166 37 179.499 37
s122.5 -14 180.5 -42c84 -40.667 134.333 -118.667 151 -234h-166c-7.33301 40.667 -31 72 -71 94c-24 13.333 -56.667 20.666 -98 21.999c-46.667 1.33301 -88.667 -11 -126 -37c-36 -25.333 -54 -49.333 -54 -72c0 -36.667 37.333 -69 112 -97
c149.333 -55.333 241 -104.333 275 -147c46 -56.667 69.667 -114.667 71 -174c0.666992 -45.333 -12.333 -93 -39 -143z" />
    <glyph glyph-name="uniFB00" unicode="ff" horiz-adv-x="1269" 
d="M1305 1556l-0.000976562 -153h-158c-59.333 0 -100.666 -13.333 -123.999 -40s-35 -74.667 -35 -144v-99h273v-143h-273v-977h-166v977h-455v-977h-166v977h-159v143h159v78c0 124.667 26 215.5 78 272.5s134.667 85.5 248 85.5h157v-153h-158
c-60 0 -101.333 -13.333 -124 -40c-23.333 -26.667 -35 -74.667 -35 -144v-99h455v78c0 124.667 26 215.5 78 272.5s134.667 85.5 248 85.5h157z" />
    <glyph glyph-name="fi" unicode="fi" horiz-adv-x="1161" 
d="M988 1120v-1120h-166v977h-455v-977h-166v977h-159v143h159v78c0 122 25.833 212.167 77.5 270.5s131.5 87.5 239.5 87.5h166v-153h-158c-60 0 -101.5 -13.333 -124.5 -40s-34.5 -74.667 -34.5 -144v-99h621zM822 1554h166v-233h-166v233z" />
    <glyph glyph-name="fl" unicode="fl" horiz-adv-x="1161" 
d="M527 1556h461v-1556h-166v1403h-296c-60 0 -101.5 -13.333 -124.5 -40s-34.5 -74.667 -34.5 -144v-99h273v-143h-273v-977h-166v977h-159v143h159v78c0 124.667 26 215.5 78 272.5s134.667 85.5 248 85.5z" />
    <glyph glyph-name="uniFB03" unicode="ffi" horiz-adv-x="1782" 
d="M684 1556l-0.000976562 -153.002h-158c-60 0 -101.333 -13.333 -124 -40c-23.333 -26.667 -35 -74.667 -35 -144v-99h455v78c0 124.667 26 215.334 78 272.001c16.667 18.667 36.667 34.334 60 47.001c47.333 26 110 39 188 39h157v-153h-158
c-59.333 0 -100.666 -13.333 -123.999 -40s-35 -74.667 -35 -144v-99h621v-1120h-166v977h-455v-977h-166v977h-455v-977h-166v977h-159v143h159v78c0 124.667 26 215.5 78 272.5s134.667 85.5 248 85.5h157zM1443 1554h166v-233h-166v233z" />
    <glyph glyph-name="uniFB04" unicode="ffl" horiz-adv-x="1782" 
d="M684 1556l-0.000976562 -153h-158c-60 0 -101.333 -13.333 -124 -40c-23.333 -26.667 -35 -74.667 -35 -144v-99h455v78c0 124.667 26 215.5 78 272.5s134.667 85.5 248 85.5h461v-1556h-166v1403h-296c-59.333 0 -100.666 -13.333 -123.999 -40s-35 -74.667 -35 -144
v-99h273v-143h-273v-977h-166v977h-455v-977h-166v977h-159v143h159v78c0 124.667 26 215.5 78 272.5s134.667 85.5 248 85.5h157z" />
    <glyph glyph-name="uniFE70" unicode="&#x20;&#x64b;" horiz-adv-x="540" arabic-form="isolated" 
d="M7 1450v110l526 130v-110zM7 1210v110l526 130v-110z" />
    <glyph glyph-name="uniFE71" unicode="&#x640;&#x64b;" horiz-adv-x="540" arabic-form="medial" 
d="M-18 0v184h576v-184h-576zM7 1450v110l526 130v-110zM7 1210v110l526 130v-110z" />
    <glyph glyph-name="uniFE72" unicode="&#x20;&#x64c;" horiz-adv-x="540" arabic-form="isolated" 
d="M280 1380c22 24 39.333 50 52 78c-20 4.66699 -37 11.334 -51 20.001c-64.667 38 -97 88.333 -97 151c0 58 20.667 104.333 62 139c17.333 14 44.666 21 81.999 21c44 0 78 -13 102 -39c32.667 -36 49 -80.333 49 -133c0 -26 -3.66699 -51.667 -11 -77
c12 -0.666992 22 -1 30 -1c11.333 -0.666992 23 -1 35 -1v-110c-28.667 0 -49 0.666992 -61 2l-46 5c-16 -40.667 -46.333 -87 -91 -139c-51.333 -57.333 -105.333 -86 -162 -86c-68 0 -118.667 51.333 -152 154c-9.33301 27.333 -14 78.666 -14 153.999h81
c0 -64.667 3.66699 -105.667 11 -123c20.667 -50 45.334 -75 74.001 -75c34 0 69.667 20 107 60zM367 1558c2 4.66699 3.66699 9.33301 5 14c6 14 9 29 9 45c0 22.667 -5.16699 38.667 -15.5 48s-21.5 14 -33.5 14c-14 0 -24.333 -3 -31 -9
c-10.667 -8.66699 -16 -22.334 -16 -41.001c0 -24.667 13.667 -43 41 -55c11.333 -5.33301 25 -10.666 41 -15.999z" />
    <glyph glyph-name="uniFE74" unicode="&#x20;&#x64d;" horiz-adv-x="540" arabic-form="isolated" 
d="M7 -490v110l526 130v-110zM7 -250v110l526 130v-110z" />
    <glyph glyph-name="uniFE76" unicode="&#x20;&#x64e;" horiz-adv-x="540" arabic-form="isolated" 
d="M7 1210v110l526 130v-110z" />
    <glyph glyph-name="uniFE77" unicode="&#x640;&#x64e;" horiz-adv-x="540" arabic-form="medial" 
d="M7 1210v110l526 130v-110zM-18 0v184h576v-184h-576z" />
    <glyph glyph-name="uniFE78" unicode="&#x20;&#x64f;" horiz-adv-x="540" arabic-form="isolated" 
d="M307 1466c-5.33301 1.33301 -13.999 5.33398 -25.999 12.001c-64.667 37.333 -97 87.666 -97 150.999c0 58 20.667 104.333 62 139c17.333 14 44.666 21 81.999 21c44 0 78 -13 102 -39c32.667 -36 49 -80.333 49 -133c0 -21.333 -4 -47 -12 -77
c10 -0.666992 20.5 -1.16699 31.5 -1.5s22.5 -0.5 34.5 -0.5v-110c-21.333 0 -41.666 0.666992 -60.999 2c-18 1.33301 -35.333 3 -52 5c-25.333 -40.667 -59 -75 -101 -103c-120 -82 -224 -123 -312 -123v110c91.333 0 178.666 36.333 261.999 109
c14 12 26.667 24.667 38 38zM367.001 1558c2 4.66699 3.66699 9.33301 5 14c6 14 9 29 9 45c0 22.667 -5.16699 38.667 -15.5 48s-21.5 14 -33.5 14c-14 0 -24.333 -3 -31 -9c-10.667 -8.66699 -16 -22.334 -16 -41.001c0 -24.667 13.667 -43 41 -55
c11.333 -5.33301 25 -10.666 41 -15.999z" />
    <glyph glyph-name="uniFE79" unicode="&#x640;&#x64f;" horiz-adv-x="540" arabic-form="medial" 
d="M307 1466c-5.33301 1.33301 -13.999 5.33398 -25.999 12.001c-64.667 37.333 -97 87.666 -97 150.999c0 58 20.667 104.333 62 139c17.333 14 44.666 21 81.999 21c44 0 78 -13 102 -39c32.667 -36 49 -80.333 49 -133c0 -21.333 -4 -47 -12 -77
c10 -0.666992 20.5 -1.16699 31.5 -1.5s22.5 -0.5 34.5 -0.5v-110c-21.333 0 -41.666 0.666992 -60.999 2c-18 1.33301 -35.333 3 -52 5c-25.333 -40.667 -59 -75 -101 -103c-120 -82 -224 -123 -312 -123v110c91.333 0 178.666 36.333 261.999 109
c14 12 26.667 24.667 38 38zM367.001 1558c2 4.66699 3.66699 9.33301 5 14c6 14 9 29 9 45c0 22.667 -5.16699 38.667 -15.5 48s-21.5 14 -33.5 14c-14 0 -24.333 -3 -31 -9c-10.667 -8.66699 -16 -22.334 -16 -41.001c0 -24.667 13.667 -43 41 -55
c11.333 -5.33301 25 -10.666 41 -15.999zM-17.999 0v184h576v-184h-576z" />
    <glyph glyph-name="uniFE7A" unicode="&#x20;&#x650;" horiz-adv-x="540" arabic-form="isolated" 
d="M7 -280v110l526 130v-110z" />
    <glyph glyph-name="uniFE7B" unicode="&#x640;&#x650;" horiz-adv-x="540" arabic-form="medial" 
d="M7 -280v110l526 130v-110zM-18 0v184h576v-184h-576z" />
    <glyph glyph-name="uniFE7C" unicode="&#x20;&#x651;" horiz-adv-x="540" arabic-form="isolated" 
d="M284 1412c-8.66699 -50.667 -22.999 -89.334 -42.999 -116.001c-34.667 -46 -72.334 -69 -113.001 -69c-48 0 -84.333 21 -109 63c-20 34.667 -30 88.334 -30 161.001s4.66699 141.667 14 207h88c-6.66699 -83.333 -10 -143.666 -10 -180.999
c0 -56 7.33301 -95.333 22 -118c11.333 -16.667 32 -18.334 62 -5.00098c36.667 16 56.334 80.667 59.001 194c1.33301 54.667 2 111.667 2 171h86c2 -24 3 -54 3 -90c0 -130 26.667 -195 80 -195c42.667 0 64 58 64 174c0 76.667 -4 134 -12 172h93
c7.33301 -48.667 11 -111.667 11 -189c0 -88.667 -8.33301 -151 -25 -187c-26.667 -59.333 -65 -92.333 -115 -99c-42.667 -6 -73.334 2 -92.001 24c-16 20 -27.667 47.667 -35 83z" />
    <glyph glyph-name="uniFE7D" unicode="&#x640;&#x651;" horiz-adv-x="540" arabic-form="medial" 
d="M284 1412c-8.66699 -50.667 -22.999 -89.334 -42.999 -116.001c-34.667 -46 -72.334 -69 -113.001 -69c-48 0 -84.333 21 -109 63c-20 34.667 -30 88.334 -30 161.001s4.66699 141.667 14 207h88c-6.66699 -83.333 -10 -143.666 -10 -180.999
c0 -56 7.33301 -95.333 22 -118c11.333 -16.667 32 -18.334 62 -5.00098c36.667 16 56.334 80.667 59.001 194c1.33301 54.667 2 111.667 2 171h86c2 -24 3 -54 3 -90c0 -130 26.667 -195 80 -195c42.667 0 64 58 64 174c0 76.667 -4 134 -12 172h93
c7.33301 -48.667 11 -111.667 11 -189c0 -88.667 -8.33301 -151 -25 -187c-26.667 -59.333 -65 -92.333 -115 -99c-42.667 -6 -73.334 2 -92.001 24c-16 20 -27.667 47.667 -35 83zM-17.999 0v184h576v-184h-576z" />
    <glyph glyph-name="uniFE7E" unicode="&#x20;&#x652;" horiz-adv-x="540" arabic-form="isolated" 
d="M405 1524c0 42 -13.167 77.667 -39.5 107s-58.833 44 -97.5 44c-39.333 0 -72 -14.5 -98 -43.5s-39 -64.833 -39 -107.5c0 -43.333 13 -79.5 39 -108.5s58.667 -43.5 98 -43.5c38.667 0 71.167 14.667 97.5 44s39.5 65.333 39.5 108zM515 1524
c0 -76.667 -24 -141.667 -72 -195s-106.333 -80 -175 -80s-127 26.667 -175 80s-72 118.333 -72 195s24 141.5 72 194.5s106.333 79.5 175 79.5s127 -26.5 175 -79.5s72 -117.833 72 -194.5z" />
    <glyph glyph-name="uniFE7F" unicode="&#x640;&#x652;" horiz-adv-x="540" arabic-form="medial" 
d="M-18 0v184h576v-184h-576zM405 1524c0 42 -13.167 77.667 -39.5 107s-58.833 44 -97.5 44c-39.333 0 -72 -14.5 -98 -43.5s-39 -64.833 -39 -107.5c0 -43.333 13 -79.5 39 -108.5s58.667 -43.5 98 -43.5c38.667 0 71.167 14.667 97.5 44s39.5 65.333 39.5 108zM515 1524
c0 -76.667 -24 -141.667 -72 -195s-106.333 -80 -175 -80s-127 26.667 -175 80s-72 118.333 -72 195s24 141.5 72 194.5s106.333 79.5 175 79.5s127 -26.5 175 -79.5s72 -117.833 72 -194.5z" />
    <glyph glyph-name="uniFEF5" unicode="&#xfedf;&#xfe82;" horiz-adv-x="1051" arabic-form="isolated" 
d="M863 834c0 -200 -41.667 -372.668 -125 -518.001c-33.333 -56.667 -73 -108.667 -119 -156c-122.667 -120 -231.667 -180 -327 -180c-63.333 0 -117.333 10.667 -162 32v184c57.333 -21.333 111.333 -32 162 -32c68 0 143 50.667 225 152l-441 1094h161l383 -959
c17.333 28.667 32 61.334 44 98.001c22.667 91.333 34 198.333 34 321v686h165v-722zM-189 1634l143.998 123c61.333 -55.333 112.333 -90 153 -104c25.333 -8.66699 54 -13 86 -13c34.667 0 64.334 5.33301 89.001 16c64.667 27.333 123.334 66.333 176.001 117v-125
c-54.667 -42.667 -108.667 -73.667 -162 -93c-40.667 -14.667 -76.667 -22 -108 -22c-20.667 0 -53.667 5.66699 -99 17c-46 11.333 -89.667 40.333 -131 87l-148 -128v125z" />
    <glyph glyph-name="uniFEF6" unicode="&#xfee0;&#xfe82;" horiz-adv-x="1099" arabic-form="final" 
d="M738 316c-35.333 -60.667 -75.001 -112.667 -119.001 -156c-121.333 -120 -230.333 -180 -327 -180c-63.333 0 -117.333 10.667 -162 32v184c57.333 -21.333 111.333 -32 162 -32c68 0 143 50.667 225 152l-441 1094h161l383 -959c17.333 28.667 32 61.334 44 98.001
c22.667 91.333 34 198.333 34 321v686h165v-956c0 -116 10.333 -202 31 -258c38 -105.333 81 -158 129 -158h95v-184h-116c-105.333 0 -188.666 81 -249.999 243c-10 27.333 -14.667 51.666 -14 72.999zM-189.001 1634l143.998 123c61.333 -55.333 112.333 -90 153 -104
c25.333 -8.66699 54 -13 86 -13c34.667 0 64.334 5.33301 89.001 16c64.667 27.333 123.334 66.333 176.001 117v-125c-54.667 -42.667 -108.667 -73.667 -162 -93c-40.667 -14.667 -76.667 -22 -108 -22c-20.667 0 -53.667 5.66699 -99 17
c-46 11.333 -89.667 40.333 -131 87l-148 -128v125z" />
    <glyph glyph-name="uniFEF7" unicode="&#xfedf;&#xfe84;" horiz-adv-x="1051" arabic-form="isolated" 
d="M863 834c0 -200 -41.667 -372.668 -125 -518.001c-33.333 -56.667 -73 -108.667 -119 -156c-122.667 -120 -231.667 -180 -327 -180c-63.333 0 -117.333 10.667 -162 32v184c57.333 -21.333 111.333 -32 162 -32c68 0 143 50.667 225 152l-441 1094h161l383 -959
c17.333 28.667 32 61.334 44 98.001c22.667 91.333 34 198.333 34 321v686h165v-722zM-24 1615l70.001 18c-26.667 13.333 -44.667 32 -54 56c-9.33301 24.667 -14 52 -14 82c0 64 16.667 110.333 50 139c34.667 30 79.667 45 135 45c37.333 0 71.666 -11 102.999 -33v-100
c-30 22 -64.333 33 -103 33c-39.333 0 -64.333 -6 -75 -18c-17.333 -21.333 -26 -40.666 -26 -57.999c0 -51.333 28.333 -86 85 -104c19.333 -6.66699 65 -0.333984 137 18.999v-102l-308 -77v100z" />
    <glyph glyph-name="uniFEF8" unicode="&#xfee0;&#xfe84;" horiz-adv-x="1099" arabic-form="final" 
d="M738 316c-35.333 -60.667 -75.001 -112.667 -119.001 -156c-121.333 -120 -230.333 -180 -327 -180c-63.333 0 -117.333 10.667 -162 32v184c57.333 -21.333 111.333 -32 162 -32c68 0 143 50.667 225 152l-441 1094h161l383 -959c17.333 28.667 32 61.334 44 98.001
c22.667 91.333 34 198.333 34 321v686h165v-956c0 -116 10.333 -202 31 -258c38 -105.333 81 -158 129 -158h95v-184h-116c-105.333 0 -188.666 81 -249.999 243c-10 27.333 -14.667 51.666 -14 72.999zM-24.001 1615l70.001 18c-26.667 13.333 -44.667 32 -54 56
c-9.33301 24.667 -14 52 -14 82c0 64 16.667 110.333 50 139c34.667 30 79.667 45 135 45c37.333 0 71.666 -11 102.999 -33v-100c-30 22 -64.333 33 -103 33c-39.333 0 -64.333 -6 -75 -18c-17.333 -21.333 -26 -40.666 -26 -57.999c0 -51.333 28.333 -86 85 -104
c19.333 -6.66699 65 -0.333984 137 18.999v-102l-308 -77v100z" />
    <glyph glyph-name="uniFEF9" unicode="&#xfedf;&#xfe88;" horiz-adv-x="1051" arabic-form="isolated" 
d="M863 834c0 -200 -41.667 -372.668 -125 -518.001c-33.333 -56.667 -73 -108.667 -119 -156c-122.667 -120 -231.667 -180 -327 -180c-63.333 0 -117.333 10.667 -162 32v184c57.333 -21.333 111.333 -32 162 -32c68 0 143 50.667 225 152l-441 1094h161l383 -959
c17.333 28.667 32 61.334 44 98.001c22.667 91.333 34 198.333 34 321v686h165v-722zM21 -400.001l70.001 18c-26.667 13.333 -44.667 32 -54 56c-9.33301 24.667 -14 52 -14 82c0 64 16.667 110.333 50 139c34.667 30 79.667 45 135 45c37.333 0 71.666 -11 102.999 -33
v-100c-30 22 -64.333 33 -103 33c-39.333 0 -64.333 -6 -75 -18c-17.333 -21.333 -26 -40.666 -26 -57.999c0 -51.333 28.333 -86 85 -104c19.333 -6.66699 65 -0.333984 137 18.999v-102l-308 -77v100z" />
    <glyph glyph-name="uniFEFA" unicode="&#xfee0;&#xfe88;" horiz-adv-x="1099" arabic-form="final" 
d="M738 316c-35.333 -60.667 -75.001 -112.667 -119.001 -156c-121.333 -120 -230.333 -180 -327 -180c-63.333 0 -117.333 10.667 -162 32v184c57.333 -21.333 111.333 -32 162 -32c68 0 143 50.667 225 152l-441 1094h161l383 -959c17.333 28.667 32 61.334 44 98.001
c22.667 91.333 34 198.333 34 321v686h165v-956c0 -116 10.333 -202 31 -258c38 -105.333 81 -158 129 -158h95v-184h-116c-105.333 0 -188.666 81 -249.999 243c-10 27.333 -14.667 51.666 -14 72.999zM20.999 -400l70.001 18c-26.667 13.333 -44.667 32 -54 56
c-9.33301 24.667 -14 52 -14 82c0 64 16.667 110.333 50 139c34.667 30 79.667 45 135 45c37.333 0 71.666 -11 102.999 -33v-100c-30 22 -64.333 33 -103 33c-39.333 0 -64.333 -6 -75 -18c-17.333 -21.333 -26 -40.666 -26 -57.999c0 -51.333 28.333 -86 85 -104
c19.333 -6.66699 65 -0.333984 137 18.999v-102l-308 -77v100z" />
    <glyph glyph-name="uniFEFB" unicode="&#xfedf;&#xfe8e;" horiz-adv-x="1051" arabic-form="isolated" 
d="M863 834c0 -200 -41.667 -372.668 -125 -518.001c-33.333 -56.667 -73 -108.667 -119 -156c-122.667 -120 -231.667 -180 -327 -180c-63.333 0 -117.333 10.667 -162 32v184c57.333 -21.333 111.333 -32 162 -32c68 0 143 50.667 225 152l-441 1094h161l383 -959
c17.333 28.667 32 61.334 44 98.001c22.667 91.333 34 198.333 34 321v686h165v-722z" />
    <glyph glyph-name="uniFEFC" unicode="&#xfee0;&#xfe8e;" horiz-adv-x="1099" arabic-form="final" 
d="M738 316c-35.333 -60.667 -75.001 -112.667 -119.001 -156c-121.333 -120 -230.333 -180 -327 -180c-63.333 0 -117.333 10.667 -162 32v184c57.333 -21.333 111.333 -32 162 -32c68 0 143 50.667 225 152l-441 1094h161l383 -959c17.333 28.667 32 61.334 44 98.001
c22.667 91.333 34 198.333 34 321v686h165v-956c0 -116 10.333 -202 31 -258c38 -105.333 81 -158 129 -158h95v-184h-116c-105.333 0 -188.666 81 -249.999 243c-10 27.333 -14.667 51.666 -14 72.999z" />
    <glyph glyph-name="uni0651064B" unicode="&#x64b;&#x651;" horiz-adv-x="0" 
d="M198 2050v110l526 130v-110zM198 1810v110l526 130v-110zM475 1412c-8.66699 -50.667 -22.999 -89.334 -42.999 -116.001c-34.667 -46 -72.334 -69 -113.001 -69c-48 0 -84.333 21 -109 63c-20 34.667 -30 88.334 -30 161.001s4.66699 141.667 14 207h88
c-6.66699 -83.333 -10 -143.666 -10 -180.999c0 -56 7.33301 -95.333 22 -118c11.333 -16.667 32 -18.334 62 -5.00098c36.667 16 56.334 80.667 59.001 194c1.33301 54.667 2 111.667 2 171h86c2 -24 3 -54 3 -90c0 -130 26.667 -195 80 -195c42.667 0 64 58 64 174
c0 76.667 -4 134 -12 172h93c7.33301 -48.667 11 -111.667 11 -189c0 -88.667 -8.33301 -151 -25 -187c-26.667 -59.333 -65 -92.333 -115 -99c-42.667 -6 -73.334 2 -92.001 24c-16 20 -27.667 47.667 -35 83z" />
    <glyph glyph-name="uni0651064C" unicode="&#x64c;&#x651;" horiz-adv-x="0" 
d="M471 1980c22 24 39.333 50 52 78c-20 4.66699 -37 11.334 -51 20.001c-64.667 38 -97 88.333 -97 151c0 58 20.667 104.333 62 139c17.333 14 44.666 21 81.999 21c44 0 78 -13 102 -39c32.667 -36 49 -80.333 49 -133c0 -26 -3.66699 -51.667 -11 -77
c12 -0.666992 22 -1 30 -1c11.333 -0.666992 23 -1 35 -1v-110c-28.667 0 -49 0.666992 -61 2l-46 5c-16 -40.667 -46.333 -87 -91 -139c-51.333 -57.333 -105.333 -86 -162 -86c-68 0 -118.667 51.333 -152 154c-9.33301 27.333 -14 78.666 -14 153.999h81
c0 -64.667 3.66699 -105.667 11 -123c20.667 -50 45.334 -75 74.001 -75c34 0 69.667 20 107 60zM558 2158c2 4.66699 3.66699 9.33398 5 14c6 14 9 29 9 45c0 22.667 -5.16699 38.667 -15.5 48s-21.5 14 -33.5 14c-14 0 -24.333 -3 -31 -9
c-10.667 -8.66699 -16 -22.334 -16 -41c0 -24.667 13.667 -43 41 -55c11.333 -5.33301 25 -10.666 41 -16zM475 1412c-8.66699 -50.667 -22.999 -89.334 -42.999 -116.001c-34.667 -46 -72.334 -69 -113.001 -69c-48 0 -84.333 21 -109 63
c-20 34.667 -30 88.334 -30 161.001s4.66699 141.667 14 207h88c-6.66699 -83.333 -10 -143.666 -10 -180.999c0 -56 7.33301 -95.333 22 -118c11.333 -16.667 32 -18.334 62 -5.00098c36.667 16 56.334 80.667 59.001 194c1.33301 54.667 2 111.667 2 171h86
c2 -24 3 -54 3 -90c0 -130 26.667 -195 80 -195c42.667 0 64 58 64 174c0 76.667 -4 134 -12 172h93c7.33301 -48.667 11 -111.667 11 -189c0 -88.667 -8.33301 -151 -25 -187c-26.667 -59.333 -65 -92.333 -115 -99c-42.667 -6 -73.334 2 -92.001 24
c-16 20 -27.667 47.667 -35 83z" />
    <glyph glyph-name="uni064B0651" unicode="&#x64d;&#x651;" horiz-adv-x="0" 
d="M475 1912c-8.66699 -50.667 -22.999 -89.335 -42.999 -116.002c-34.667 -46 -72.334 -69 -113.001 -69c-48 0 -84.333 21 -109 63c-20 34.667 -30 88.334 -30 161.001s4.66699 141.667 14 207.001h88c-6.66699 -83.333 -10 -143.666 -10 -180.999
c0 -56 7.33301 -95.333 22 -118c11.333 -16.667 32 -18.334 62 -5.00098c36.667 16 56.334 80.667 59.001 194c1.33301 54.667 2 111.667 2 171h86c2 -24 3 -54 3 -90c0 -130 26.667 -195 80 -195c42.667 0 64 58 64 174c0 76.667 -4 134 -12 172h93
c7.33301 -48.667 11 -111.667 11 -189c0 -88.667 -8.33301 -151 -25 -187c-26.667 -59.333 -65 -92.333 -115 -99c-42.667 -6 -73.334 2 -92.001 24c-16 20 -27.667 47.667 -35 83zM198.001 1450v110l526 130v-110zM198.001 1210v110l526 130v-110z" />
    <glyph glyph-name="uni0651064E" unicode="&#x64e;&#x651;" horiz-adv-x="0" 
d="M198 1810v110l526 130v-110zM475 1412c-8.66699 -50.667 -22.999 -89.334 -42.999 -116.001c-34.667 -46 -72.334 -69 -113.001 -69c-48 0 -84.333 21 -109 63c-20 34.667 -30 88.334 -30 161.001s4.66699 141.667 14 207h88c-6.66699 -83.333 -10 -143.666 -10 -180.999
c0 -56 7.33301 -95.333 22 -118c11.333 -16.667 32 -18.334 62 -5.00098c36.667 16 56.334 80.667 59.001 194c1.33301 54.667 2 111.667 2 171h86c2 -24 3 -54 3 -90c0 -130 26.667 -195 80 -195c42.667 0 64 58 64 174c0 76.667 -4 134 -12 172h93
c7.33301 -48.667 11 -111.667 11 -189c0 -88.667 -8.33301 -151 -25 -187c-26.667 -59.333 -65 -92.333 -115 -99c-42.667 -6 -73.334 2 -92.001 24c-16 20 -27.667 47.667 -35 83z" />
    <glyph glyph-name="uni0651064F" unicode="&#x64f;&#x651;" horiz-adv-x="0" 
d="M498 2066c-5.33301 1.33301 -13.999 5.33301 -25.999 12c-64.667 37.333 -97 87.666 -97 151c0 58 20.667 104.333 62 139c17.333 14 44.666 21 81.999 21c44 0 78 -13 102 -39c32.667 -36 49 -80.333 49 -133c0 -21.333 -4 -47 -12 -77
c10 -0.666992 20.5 -1.16699 31.5 -1.5s22.5 -0.5 34.5 -0.5v-110c-21.333 0 -41.666 0.666992 -60.999 2c-18 1.33301 -35.333 3 -52 5c-25.333 -40.667 -59 -75 -101 -103c-120 -82 -224 -123 -312 -123v110c91.333 0 178.666 36.333 261.999 109
c14 12 26.667 24.667 38 38zM558.001 2158c2 4.66699 3.66699 9.33398 5 14c6 14 9 29 9 45c0 22.667 -5.16699 38.667 -15.5 48s-21.5 14 -33.5 14c-14 0 -24.333 -3 -31 -9c-10.667 -8.66699 -16 -22.334 -16 -41c0 -24.667 13.667 -43 41 -55
c11.333 -5.33301 25 -10.666 41 -16zM475.001 1412c-8.66699 -50.667 -22.999 -89.334 -42.999 -116.001c-34.667 -46 -72.334 -69 -113.001 -69c-48 0 -84.333 21 -109 63c-20 34.667 -30 88.334 -30 161.001s4.66699 141.667 14 207h88
c-6.66699 -83.333 -10 -143.666 -10 -180.999c0 -56 7.33301 -95.333 22 -118c11.333 -16.667 32 -18.334 62 -5.00098c36.667 16 56.334 80.667 59.001 194c1.33301 54.667 2 111.667 2 171h86c2 -24 3 -54 3 -90c0 -130 26.667 -195 80 -195c42.667 0 64 58 64 174
c0 76.667 -4 134 -12 172h93c7.33301 -48.667 11 -111.667 11 -189c0 -88.667 -8.33301 -151 -25 -187c-26.667 -59.333 -65 -92.333 -115 -99c-42.667 -6 -73.334 2 -92.001 24c-16 20 -27.667 47.667 -35 83z" />
    <glyph glyph-name="uni064E0651" unicode="&#x650;&#x651;" horiz-adv-x="0" 
d="M475 1712c-8.66699 -50.667 -22.999 -89.334 -42.999 -116.001c-34.667 -46 -72.334 -69 -113.001 -69c-48 0 -84.333 21 -109 63c-20 34.667 -30 88.334 -30 161.001s4.66699 141.667 14 207h88c-6.66699 -83.333 -10 -143.666 -10 -180.999
c0 -56 7.33301 -95.333 22 -118c11.333 -16.667 32 -18.334 62 -5.00098c36.667 16 56.334 80.667 59.001 194c1.33301 54.667 2 111.667 2 171h86c2 -24 3 -54 3 -90c0 -130 26.667 -195 80 -195c42.667 0 64 58 64 174c0 76.667 -4 134 -12 172h93
c7.33301 -48.667 11 -111.667 11 -189c0 -88.667 -8.33301 -151 -25 -187c-26.667 -59.333 -65 -92.333 -115 -99c-42.667 -6 -73.334 2 -92.001 24c-16 20 -27.667 47.667 -35 83zM198.001 1210v110l526 130v-110z" />
    <glyph glyph-name="uni0654064E" unicode="&#x64e;&#x654;" horiz-adv-x="0" 
d="M198 1710v110l526 130v-110zM302 1315l70.001 18c-26.667 13.333 -44.667 32 -54 56c-9.33301 24.667 -14 52 -14 82c0 64 16.667 110.333 50 139c34.667 30 79.667 45 135 45c37.333 0 71.666 -11 102.999 -33v-100c-30 22 -64.333 33 -103 33
c-39.333 0 -64.333 -6 -75 -18c-17.333 -21.333 -26 -40.666 -26 -57.999c0 -51.333 28.333 -86 85 -104c19.333 -6.66699 65 -0.333984 137 18.999v-102l-308 -77v100z" />
    <glyph glyph-name="uni0654064F" unicode="&#x64f;&#x654;" horiz-adv-x="0" 
d="M498 1966c-5.33301 1.33301 -13.999 5.33398 -25.999 12.001c-64.667 37.333 -97 87.666 -97 150.999c0 58 20.667 104.333 62 139c17.333 14 44.666 21 81.999 21c44 0 78 -13 102 -39c32.667 -36 49 -80.333 49 -133c0 -21.333 -4 -47 -12 -77
c10 -0.666992 20.5 -1.16699 31.5 -1.5s22.5 -0.5 34.5 -0.5v-110c-21.333 0 -41.666 0.666992 -60.999 2c-18 1.33301 -35.333 3 -52 5c-25.333 -40.667 -59 -75 -101 -103c-120 -82 -224 -123 -312 -123v110c91.333 0 178.666 36.333 261.999 109
c14 12 26.667 24.667 38 38zM558.001 2058c2 4.66699 3.66699 9.33301 5 13.999c6 14 9 29 9 45c0 22.667 -5.16699 38.667 -15.5 48s-21.5 14 -33.5 14c-14 0 -24.333 -3 -31 -9c-10.667 -8.66699 -16 -22.334 -16 -41c0 -24.667 13.667 -43 41 -55
c11.333 -5.33301 25 -10.666 41 -15.999zM302.001 1315l70.001 18c-26.667 13.333 -44.667 32 -54 56c-9.33301 24.667 -14 52 -14 82c0 64 16.667 110.333 50 139c34.667 30 79.667 45 135 45c37.333 0 71.666 -11 102.999 -33v-100c-30 22 -64.333 33 -103 33
c-39.333 0 -64.333 -6 -75 -18c-17.333 -21.333 -26 -40.666 -26 -57.999c0 -51.333 28.333 -86 85 -104c19.333 -6.66699 65 -0.333984 137 18.999v-102l-308 -77v100z" />
    <glyph glyph-name="uni066E.init" unicode="&#x66e;" horiz-adv-x="513" 
d="M269 86c-43.333 -57.333 -112 -86.001 -206 -86.001h-81v184h32c59.333 0 102 14.667 128 44c29.333 32.667 44 84.334 44 155.001v217h166v-217c0 -124.667 -27.667 -223.667 -83 -297z" />
    <glyph glyph-name="uni066E.medi" unicode="&#x66e;" horiz-adv-x="556" 
d="M269 86c-46 -57.333 -114.667 -86 -206 -86h-81v184h32c59.333 0 102 14.667 128 44c29.333 32.667 44 84.334 44 155.001v217h166v-217c0 -70.667 14.667 -122.334 44 -155.001c26.667 -29.333 69.667 -44 129 -44h49v-184h-99c-90 0 -158.667 28.667 -206 86z" />
    <glyph glyph-name="uni066E.fina" unicode="&#x66e;" horiz-adv-x="1809" 
d="M1598 504c0 -138.667 20.667 -227.668 62 -267.001c38 -35.333 76 -53 114 -53h54v-184h-92c-69.333 0 -125.333 24.333 -168 73c-48 55.333 -79.333 105 -94 149c-92.667 -87.333 -209 -148.666 -349 -183.999c-155.333 -38.667 -296.333 -58 -423 -58
c-117.333 0 -213.333 12.667 -288 38c-197.333 67.333 -296.333 189 -297 365c-0.666992 92 18.333 168.667 57 230h165c-38.667 -62.667 -58 -139.334 -58 -230.001c0 -83.333 61 -147.333 183 -192c62 -22.667 138.333 -34 229 -34c156 1.33301 291 20.333 405 57
c119.333 38.667 216 94.334 290 167.001c35.333 34.667 53 91.667 53 171c0 41.333 -8.66699 80.333 -26 117h165c12 -50 18 -105 18 -165z" />
    <glyph glyph-name="uni066F.init" unicode="&#x66f;" horiz-adv-x="881" 
d="M538 537c24.667 28.667 37.001 68.666 37.001 119.999c0 39.333 -19.667 76 -59 110c-18.667 16.667 -41.334 24.667 -68.001 24c-31.333 -0.666992 -59 -15 -83 -43c-24 -27.333 -36.333 -58 -37 -92c0 -53.333 16.667 -92.666 50 -117.999
c24 -16.667 48.667 -25 74 -25c43.333 0 72 8 86 24zM-17.999 183.999h217.001c50 0 120.333 7.66699 211 23c48 8 90 43 126 105c18 32 31.667 64.667 41 98c-38 -36.667 -86 -55.667 -144 -57c-78 -1.33301 -140.333 21 -187 67c-58.667 58 -88 130 -88 216
c0 34.667 2.33301 66.667 7 96c13.333 98.667 65 171 155 217c47.333 24 93.666 36 138.999 36c54 0 100.667 -16.667 140 -50c58 -48 100.667 -106 128 -174c14 -34 21 -97.667 21 -191c0 -138.667 -23.333 -255.667 -70 -351c-44.667 -90.667 -104 -150.667 -178 -180
c-66 -26 -142.333 -39 -229 -39h-289v184z" />
    <glyph glyph-name="uni066F.medi" unicode="&#x66f;" horiz-adv-x="932" 
d="M553 762c109.333 -53.333 171.332 -130 185.999 -230c4.66699 -33.333 7 -64 7 -92c0 -48.667 -6.33301 -89.334 -19 -122.001c-17.333 -44.667 -36.666 -83.667 -57.999 -117c23.333 -11.333 79 -17 167 -17h114v-184h-195c-81.333 0 -177.666 19 -288.999 57
c-110.667 -38 -207 -57 -289 -57h-195v184h114c88.667 0 144.667 5.66699 168 17c-17.333 26.667 -37 65.667 -59 117c-12.667 30.667 -19 71.334 -19 122.001c0 29.333 2.66699 60 8 92c13.333 95.333 75.666 172 186.999 230c18 9.33301 46.333 14 85 14
c38 0 67 -4.66699 87 -14zM465.999 592c-8.66699 0 -18.668 -3.33398 -30.001 -10.001c-33.333 -21.333 -57.333 -49.666 -72 -84.999c-5.33301 -14 -8 -30.667 -8 -50c0 -28.667 7 -60.667 21 -96c18.667 -45.333 48.334 -75.333 89.001 -90c38 14 67.667 44 89 90
c15.333 33.333 23 65.333 23 96c0 16 -3.33301 32.667 -10 50c-14 34.667 -38 63 -72 85c-11.333 6.66699 -21.333 10 -30 10z" />
    <glyph glyph-name="uni066F.fina" unicode="&#x66f;" horiz-adv-x="1537" 
d="M1087 10c-39.333 3.33301 -72.999 9.33398 -100.999 18.001c-72 23.333 -125.333 49.333 -160 78c-88 72.667 -132 170.667 -132 294c0 40.667 1.66699 69.667 5 87c24 110 80.333 188 169 234c24 12.667 62.333 19 115 19c67.333 0 117.666 -16.667 150.999 -50
c59.333 -58.667 104 -136.334 134 -233.001c12 -38.667 20 -129.334 24 -272.001c15.333 -0.666992 24 -1 26 -1h237v-184h-241h-43c-26.667 -81.333 -58.667 -145.333 -96 -192c-76 -96.667 -161.667 -171 -257 -223c-105.333 -57.333 -219.333 -85.666 -342 -84.999
c-222 1.33301 -361.333 65.333 -418 192c-41.333 92 -62 179.667 -62 263c0 110.667 18.667 198 56 262h166c-37.333 -71.333 -56 -158.666 -56 -261.999c0 -50.667 8 -95.334 24 -134.001c36 -86.667 132.667 -130 290 -130c84 0 171 22.667 261 68
c128 65.333 211.333 149 250 251zM1126 203.001c2.66699 81.333 -2.66504 150.999 -15.998 208.999c-11.333 50 -31.333 86.667 -60 110c-20 16.667 -41.667 25 -65 25c-20.667 0 -37.334 -3.33301 -50.001 -10c-30.667 -18 -52.334 -46.333 -65.001 -85
c-6 -20 -9 -38.333 -9 -55c0 -40 17.333 -74.667 52 -104c45.333 -39.333 98 -65.666 158 -78.999c28 -6 46.333 -9.66699 55 -11z" />
    <glyph glyph-name="uni067C.init" unicode="&#x67c;" horiz-adv-x="513" 
d="M269 86c-43.333 -57.333 -112 -86.001 -206 -86.001h-81v184h32c59.333 0 102 14.667 128 44c29.333 32.667 44 84.334 44 155.001v217h166v-217c0 -124.667 -27.667 -223.667 -83 -297zM314 999.999h135v-150h-135v150zM89 999.999h135v-150h-135v150zM356 -48.001
c0 26.667 -8.33301 49.333 -25 68c-16.667 19.333 -37.334 29 -62.001 29s-45.334 -9.33301 -62.001 -28s-25 -41.667 -25 -69c0 -28 8.33301 -51.333 25 -70c16.667 -18 37.334 -27 62.001 -27s45.334 9.33301 62.001 28s25 41.667 25 69zM466 -48.002
c0 -61.333 -18.667 -113.333 -56 -156c-38.667 -42.667 -85.667 -64 -141 -64s-101.666 21.333 -138.999 64c-38.667 42.667 -58 94.667 -58 156s19.333 113.333 58 156c37.333 42 83.666 63 138.999 63s102.333 -21 141 -63c37.333 -42.667 56 -94.667 56 -156z" />
    <glyph glyph-name="uni067C.medi" unicode="&#x67c;" horiz-adv-x="556" 
d="M269 86c-46 -57.333 -114.667 -86 -206 -86h-81v184h32c59.333 0 102 14.667 128 44c29.333 32.667 44 84.334 44 155.001v217h166v-217c0 -70.667 14.667 -122.334 44 -155.001c26.667 -29.333 69.667 -44 129 -44h49v-184h-99c-90 0 -158.667 28.667 -206 86zM314 1000
h135v-150h-135v150zM89 1000h135v-150h-135v150zM356 -48c0 26.667 -8.33301 49.333 -25 68c-16.667 19.333 -37.334 29 -62.001 29s-45.334 -9.33301 -62.001 -28s-25 -41.667 -25 -69c0 -28 8.33301 -51.333 25 -70c16.667 -18 37.334 -27 62.001 -27
s45.334 9.33301 62.001 28s25 41.667 25 69zM466 -48.001c0 -61.333 -18.667 -113.333 -56 -156c-38.667 -42.667 -85.667 -64 -141 -64s-101.666 21.333 -138.999 64c-38.667 42.667 -58 94.667 -58 156s19.333 113.333 58 156c37.333 42 83.666 63 138.999 63
s102.333 -21 141 -63c37.333 -42.667 56 -94.667 56 -156z" />
    <glyph glyph-name="uni067C.fina" unicode="&#x67c;" horiz-adv-x="1809" 
d="M855 800h135v-150h-135v150zM630 800h135v-150h-135v150zM897 -148c0 26.667 -8.33301 49.333 -25 68c-16.667 19.333 -37.334 29 -62.001 29s-45.334 -9.33301 -62.001 -28s-25 -41.667 -25 -69c0 -28 8.33301 -51.333 25 -70c16.667 -18 37.334 -27 62.001 -27
s45.334 9.33301 62.001 28s25 41.667 25 69zM1007 -148.001c0 -61.333 -18.667 -113.333 -56 -156c-38.667 -42.667 -85.667 -64 -141 -64s-101.666 21.333 -138.999 64c-38.667 42.667 -58 94.667 -58 156s19.333 113.333 58 156c37.333 42 83.666 63 138.999 63
s102.333 -21 141 -63c37.333 -42.667 56 -94.667 56 -156zM1598 503.999c0 -138.667 20.667 -227.668 62 -267.001c38 -35.333 76 -53 114 -53h54v-184h-92c-69.333 0 -125.333 24.333 -168 73c-48 55.333 -79.333 105 -94 149c-92.667 -87.333 -209 -148.666 -349 -183.999
c-155.333 -38.667 -296.333 -58 -423 -58c-117.333 0 -213.333 12.667 -288 38c-197.333 67.333 -296.333 189 -297 365c-0.666992 92 18.333 168.667 57 230h165c-38.667 -62.667 -58 -139.334 -58 -230.001c0 -83.333 61 -147.333 183 -192
c62 -22.667 138.333 -34 229 -34c156 1.33301 291 20.333 405 57c119.333 38.667 216 94.334 290 167.001c35.333 34.667 53 91.667 53 171c0 41.333 -8.66699 80.333 -26 117h165c12 -50 18 -105 18 -165z" />
    <glyph glyph-name="uni067D.init" unicode="&#x67d;" horiz-adv-x="513" 
d="M269 86c-43.333 -57.333 -112 -86.001 -206 -86.001h-81v184h32c59.333 0 102 14.667 128 44c29.333 32.667 44 84.334 44 155.001v217h166v-217c0 -124.667 -27.667 -223.667 -83 -297zM201 999.999h136v-150h-136v150zM314 1250h135v-150h-135v150zM89 1250h135v-150
h-135v150z" />
    <glyph glyph-name="uni067D.medi" unicode="&#x67d;" horiz-adv-x="556" 
d="M269 86c-46 -57.333 -114.667 -86 -206 -86h-81v184h32c59.333 0 102 14.667 128 44c29.333 32.667 44 84.334 44 155.001v217h166v-217c0 -70.667 14.667 -122.334 44 -155.001c26.667 -29.333 69.667 -44 129 -44h49v-184h-99c-90 0 -158.667 28.667 -206 86zM201 1000
h136v-150h-136v150zM314 1250h135v-150h-135v150zM89 1250h135v-150h-135v150z" />
    <glyph glyph-name="uni067D.fina" unicode="&#x67d;" horiz-adv-x="1809" 
d="M742 700h136v-150h-136v150zM855 950h135v-150h-135v150zM630 950h135v-150h-135v150zM1598 504c0 -138.667 20.667 -227.668 62 -267.001c38 -35.333 76 -53 114 -53h54v-184h-92c-69.333 0 -125.333 24.333 -168 73c-48 55.333 -79.333 105 -94 149
c-92.667 -87.333 -209 -148.666 -349 -183.999c-155.333 -38.667 -296.333 -58 -423 -58c-117.333 0 -213.333 12.667 -288 38c-197.333 67.333 -296.333 189 -297 365c-0.666992 92 18.333 168.667 57 230h165c-38.667 -62.667 -58 -139.334 -58 -230.001
c0 -83.333 61 -147.333 183 -192c62 -22.667 138.333 -34 229 -34c156 1.33301 291 20.333 405 57c119.333 38.667 216 94.334 290 167.001c35.333 34.667 53 91.667 53 171c0 41.333 -8.66699 80.333 -26 117h165c12 -50 18 -105 18 -165z" />
    <glyph glyph-name="uni0681.init" unicode="&#x681;" horiz-adv-x="1139" 
d="M766 541c-50 15.333 -106 30.665 -168 45.998c-50.667 12.667 -130 24.334 -238 35.001c-49.333 4.66699 -122.333 5 -219 1v184c43.333 4.66699 87.666 7.33398 132.999 8.00098c96.667 0 196.667 -11.667 300 -35c154.667 -34.667 298 -84.667 430 -150v-154
c-45.333 -16 -94.333 -41.333 -147 -76c-100 -65.333 -172 -120 -216 -164c-87.333 -86 -153.333 -138 -198 -156c-132.667 -53.333 -248 -80 -346 -80h-115v184h90c136 0 242.667 24 320 72c62.667 38.667 128.667 93.334 198 164.001
c56.667 57.333 115.334 97.666 176.001 120.999zM381 1015l70.001 18c-26.667 13.333 -44.667 32 -54 56c-9.33301 24.667 -14 52 -14 82c0 64 16.667 110.333 50 139c34.667 30 79.667 45 135 45c37.333 0 71.666 -11 102.999 -33v-100c-30 22 -64.333 33 -103 33
c-39.333 0 -64.333 -6 -75 -18c-17.333 -21.333 -26 -40.666 -26 -57.999c0 -51.333 28.333 -86 85 -104c19.333 -6.66699 65 -0.333984 137 18.999v-102l-308 -77v100z" />
    <glyph glyph-name="uni0681.medi" unicode="&#x681;" horiz-adv-x="1189" 
d="M574 780c154.667 -34.667 297.999 -84.668 429.999 -150.001v-154c-38.667 -13.333 -80 -33.666 -124 -60.999c30 -52 54 -89.333 72 -112c62.667 -79.333 128 -119 196 -119h60v-184h-78c-125.333 0 -225.666 56 -300.999 168c-24 36 -53.667 86.333 -89 151
c-41.333 -30.667 -74.333 -58.334 -99 -83.001c-87.333 -86 -153.333 -138 -198 -156c-132.667 -53.333 -248 -80 -346 -80h-115v184h90c136 0 242.667 24 320 72c62.667 38.667 128.667 93.334 198 164.001c56.667 57.333 115.334 97.666 176.001 120.999
c-50 15.333 -106 30.666 -168 45.999c-50.667 12.667 -130 24.334 -238 35.001c-49.333 4.66699 -122.333 5 -219 1v184c43.333 4.66699 87.666 7.33398 132.999 8.00098c96.667 0 196.667 -11.667 300 -35zM380.999 1015l70.001 18c-26.667 13.333 -44.667 32 -54 56
c-9.33301 24.667 -14 52 -14 82c0 64 16.667 110.333 50 139c34.667 30 79.667 45 135 45c37.333 0 71.666 -11 102.999 -33v-100c-30 22 -64.333 33 -103 33c-39.333 0 -64.333 -6 -75 -18c-17.333 -21.333 -26 -40.666 -26 -57.999c0 -51.333 28.333 -86 85 -104
c19.333 -6.66699 65 -0.333984 137 18.999v-102l-308 -77v100z" />
    <glyph glyph-name="uni0681.fina" unicode="&#x681;" horiz-adv-x="1189" 
d="M1172 184h36.002v-184h-44c-77.333 0 -153 50 -227 150c-49.333 66.667 -92.333 152 -129 256c-3.33301 10 -27 74.333 -71 193c-68.667 -16 -132.334 -50.667 -191.001 -104c-134 -122 -201 -267 -201 -435c0 -91.333 22 -168.333 66 -231
c77.333 -109.333 215 -164 413 -164c115.333 0 236.666 39.333 363.999 118v-184c-90 -66 -210 -99 -360 -99c-250.667 0 -426.667 64.667 -528 194c-78.667 100 -118 224.667 -118 374c0 172 63.667 332.333 191 481c57.333 67.333 127 118.333 209 153h-22
c-57.333 0 -128 -6.33301 -212 -19c-80.667 -12.667 -149.667 -32.667 -207 -60v184c163.333 42 303 63 419 63c176 0 324 -18 444 -54v-154c-65.333 0 -107.333 -4.33301 -126 -13l26 -91c30.667 -106.667 67.667 -191.667 111 -255c54 -79.333 106.333 -119 157 -119z
M426.002 1115l70.001 18c-26.667 13.333 -44.667 32 -54 56c-9.33301 24.667 -14 52 -14 82c0 64 16.667 110.333 50 139c34.667 30 79.667 45 135 45c37.333 0 71.666 -11 102.999 -33v-100c-30 22 -64.333 33 -103 33c-39.333 0 -64.333 -6 -75 -18
c-17.333 -21.333 -26 -40.666 -26 -57.999c0 -51.333 28.333 -86 85 -104c19.333 -6.66699 65 -0.333984 137 18.999v-102l-308 -77v100z" />
    <glyph glyph-name="uni0682.init" unicode="&#x682;" horiz-adv-x="1139" 
d="M766 541c-50 15.333 -106 30.665 -168 45.998c-50.667 12.667 -130 24.334 -238 35.001c-49.333 4.66699 -122.333 5 -219 1v184c43.333 4.66699 87.666 7.33398 132.999 8.00098c96.667 0 196.667 -11.667 300 -35c154.667 -34.667 298 -84.667 430 -150v-154
c-45.333 -16 -94.333 -41.333 -147 -76c-100 -65.333 -172 -120 -216 -164c-87.333 -86 -153.333 -138 -198 -156c-132.667 -53.333 -248 -80 -346 -80h-115v184h90c136 0 242.667 24 320 72c62.667 38.667 128.667 93.334 198 164.001
c56.667 57.333 115.334 97.666 176.001 120.999zM472 1100h135v-150h-135v150zM472 1350h135v-150h-135v150z" />
    <glyph glyph-name="uni0682.medi" unicode="&#x682;" horiz-adv-x="1189" 
d="M574 780c154.667 -34.667 297.999 -84.668 429.999 -150.001v-154c-38.667 -13.333 -80 -33.666 -124 -60.999c30 -52 54 -89.333 72 -112c62.667 -79.333 128 -119 196 -119h60v-184h-78c-125.333 0 -225.666 56 -300.999 168c-24 36 -53.667 86.333 -89 151
c-41.333 -30.667 -74.333 -58.334 -99 -83.001c-87.333 -86 -153.333 -138 -198 -156c-132.667 -53.333 -248 -80 -346 -80h-115v184h90c136 0 242.667 24 320 72c62.667 38.667 128.667 93.334 198 164.001c56.667 57.333 115.334 97.666 176.001 120.999
c-50 15.333 -106 30.666 -168 45.999c-50.667 12.667 -130 24.334 -238 35.001c-49.333 4.66699 -122.333 5 -219 1v184c43.333 4.66699 87.666 7.33398 132.999 8.00098c96.667 0 196.667 -11.667 300 -35zM471.999 1100h135v-150h-135v150zM471.999 1350h135v-150h-135
v150z" />
    <glyph glyph-name="uni0682.fina" unicode="&#x682;" horiz-adv-x="1189" 
d="M1172 184h36.002v-184h-44c-77.333 0 -153 50 -227 150c-49.333 66.667 -92.333 152 -129 256c-3.33301 10 -27 74.333 -71 193c-68.667 -16 -132.334 -50.667 -191.001 -104c-134 -122 -201 -267 -201 -435c0 -91.333 22 -168.333 66 -231
c77.333 -109.333 215 -164 413 -164c115.333 0 236.666 39.333 363.999 118v-184c-90 -66 -210 -99 -360 -99c-250.667 0 -426.667 64.667 -528 194c-78.667 100 -118 224.667 -118 374c0 172 63.667 332.333 191 481c57.333 67.333 127 118.333 209 153h-22
c-57.333 0 -128 -6.33301 -212 -19c-80.667 -12.667 -149.667 -32.667 -207 -60v184c163.333 42 303 63 419 63c176 0 324 -18 444 -54v-154c-65.333 0 -107.333 -4.33301 -126 -13l26 -91c30.667 -106.667 67.667 -191.667 111 -255c54 -79.333 106.333 -119 157 -119z
M518.002 1200h135v-150h-135v150zM518.002 1450h135v-150h-135v150z" />
    <glyph glyph-name="uni0685.init" unicode="&#x685;" horiz-adv-x="1139" 
d="M766 541c-50 15.333 -106 30.665 -168 45.998c-50.667 12.667 -130 24.334 -238 35.001c-49.333 4.66699 -122.333 5 -219 1v184c43.333 4.66699 87.666 7.33398 132.999 8.00098c96.667 0 196.667 -11.667 300 -35c154.667 -34.667 298 -84.667 430 -150v-154
c-45.333 -16 -94.333 -41.333 -147 -76c-100 -65.333 -172 -120 -216 -164c-87.333 -86 -153.333 -138 -198 -156c-132.667 -53.333 -248 -80 -346 -80h-115v184h90c136 0 242.667 24 320 72c62.667 38.667 128.667 93.334 198 164.001
c56.667 57.333 115.334 97.666 176.001 120.999zM472 1350h136v-150h-136v150zM585 1100h135v-150h-135v150zM360 1100h135v-150h-135v150z" />
    <glyph glyph-name="uni0685.medi" unicode="&#x685;" horiz-adv-x="1189" 
d="M574 780c154.667 -34.667 297.999 -84.668 429.999 -150.001v-154c-38.667 -13.333 -80 -33.666 -124 -60.999c30 -52 54 -89.333 72 -112c62.667 -79.333 128 -119 196 -119h60v-184h-78c-125.333 0 -225.666 56 -300.999 168c-24 36 -53.667 86.333 -89 151
c-41.333 -30.667 -74.333 -58.334 -99 -83.001c-87.333 -86 -153.333 -138 -198 -156c-132.667 -53.333 -248 -80 -346 -80h-115v184h90c136 0 242.667 24 320 72c62.667 38.667 128.667 93.334 198 164.001c56.667 57.333 115.334 97.666 176.001 120.999
c-50 15.333 -106 30.666 -168 45.999c-50.667 12.667 -130 24.334 -238 35.001c-49.333 4.66699 -122.333 5 -219 1v184c43.333 4.66699 87.666 7.33398 132.999 8.00098c96.667 0 196.667 -11.667 300 -35zM471.999 1350h136v-150h-136v150zM584.999 1100h135v-150h-135
v150zM359.999 1100h135v-150h-135v150z" />
    <glyph glyph-name="uni0685.fina" unicode="&#x685;" horiz-adv-x="1189" 
d="M1172 184h36.002v-184h-44c-77.333 0 -153 50 -227 150c-49.333 66.667 -92.333 152 -129 256c-3.33301 10 -27 74.333 -71 193c-68.667 -16 -132.334 -50.667 -191.001 -104c-134 -122 -201 -267 -201 -435c0 -91.333 22 -168.333 66 -231
c77.333 -109.333 215 -164 413 -164c115.333 0 236.666 39.333 363.999 118v-184c-90 -66 -210 -99 -360 -99c-250.667 0 -426.667 64.667 -528 194c-78.667 100 -118 224.667 -118 374c0 172 63.667 332.333 191 481c57.333 67.333 127 118.333 209 153h-22
c-57.333 0 -128 -6.33301 -212 -19c-80.667 -12.667 -149.667 -32.667 -207 -60v184c163.333 42 303 63 419 63c176 0 324 -18 444 -54v-154c-65.333 0 -107.333 -4.33301 -126 -13l26 -91c30.667 -106.667 67.667 -191.667 111 -255c54 -79.333 106.333 -119 157 -119z
M517.002 1450h136v-150h-136v150zM630.002 1200h135v-150h-135v150zM405.002 1200h135v-150h-135v150z" />
    <glyph glyph-name="uni0689.fina" unicode="&#x689;" horiz-adv-x="967" 
d="M537 -148c0 26.667 -8.33301 49.333 -25 68c-16.667 19.333 -37.334 29 -62.001 29s-45.334 -9.33301 -62.001 -28s-25 -41.667 -25 -69c0 -28 8.33301 -51.333 25 -70c16.667 -18 37.334 -27 62.001 -27s45.334 9.33301 62.001 28s25 41.667 25 69zM647 -148.001
c0 -61.333 -18.667 -113.333 -56 -156c-38.667 -42.667 -85.667 -64 -141 -64s-101.666 21.333 -138.999 64c-38.667 42.667 -58 94.667 -58 156s19.333 113.333 58 156c37.333 42 83.666 63 138.999 63s102.333 -21 141 -63c37.333 -42.667 56 -94.667 56 -156z
M491 574.999c-34 81.333 -105.668 172.999 -215.001 274.999h205c58 -52 111.667 -123.667 161 -215c48.667 -89.333 73 -173 73 -251c0 -48.667 24.667 -100.667 74 -156c26.667 -29.333 69.667 -44 129 -44h68v-184h-118c-88 0 -161 43.333 -219 130
c-56 -85.333 -146 -139 -270 -161c-27.333 -4.66699 -54.666 -7 -81.999 -7c-61.333 0 -123 12.667 -185 38v184c69.333 -28 129.333 -42 180 -42c19.333 0 39.333 3 60 9c103.333 32.667 165.333 86.334 186 161.001c4.66699 18 7 41 7 69c0 45.333 -18 110 -54 194z" />
    <glyph glyph-name="uni068A.fina" unicode="&#x68a;" horiz-adv-x="967" 
d="M382 -200h135v-150h-135v150zM491 575c-34 81.333 -105.668 172.999 -215.001 274.999h205c58 -52 111.667 -123.667 161 -215c48.667 -89.333 73 -173 73 -251c0 -48.667 24.667 -100.667 74 -156c26.667 -29.333 69.667 -44 129 -44h68v-184h-118
c-88 0 -161 43.333 -219 130c-56 -85.333 -146 -139 -270 -161c-27.333 -4.66699 -54.666 -7 -81.999 -7c-61.333 0 -123 12.667 -185 38v184c69.333 -28 129.333 -42 180 -42c19.333 0 39.333 3 60 9c103.333 32.667 165.333 86.334 186 161.001c4.66699 18 7 41 7 69
c0 45.333 -18 110 -54 194z" />
    <glyph glyph-name="uni068B.fina" unicode="&#x68b;" horiz-adv-x="967" 
d="M359 1128h49.002c47.333 0 77.333 4.33301 90 13c32 22 48 40 48 54c0 21.333 -9 37.333 -27 48c-0.666992 0.666992 -22.334 -8.33301 -65.001 -27c-30.667 -14 -62.334 -43.333 -95.001 -88zM429.002 1027h-157h-101v101h73v399h92v-321
c21.333 48.667 63.333 86.334 126 113.001c37.333 16 77 15.333 119 -2c39.333 -16.667 59 -52.334 59 -107.001c0 -60.667 -19.333 -107.667 -58 -141c-32 -28 -83 -42 -153 -42zM382.002 -200h135v-150h-135v150zM491.002 575
c-34 81.333 -105.668 172.999 -215.001 274.999h205c58 -52 111.667 -123.667 161 -215c48.667 -89.333 73 -173 73 -251c0 -48.667 24.667 -100.667 74 -156c26.667 -29.333 69.667 -44 129 -44h68v-184h-118c-88 0 -161 43.333 -219 130c-56 -85.333 -146 -139 -270 -161
c-27.333 -4.66699 -54.666 -7 -81.999 -7c-61.333 0 -123 12.667 -185 38v184c69.333 -28 129.333 -42 180 -42c19.333 0 39.333 3 60 9c103.333 32.667 165.333 86.334 186 161.001c4.66699 18 7 41 7 69c0 45.333 -18 110 -54 194z" />
    <glyph glyph-name="uni068F.fina" unicode="&#x68f;" horiz-adv-x="967" 
d="M337 1150h136v-150h-136v150zM450 1400h135v-150h-135v150zM225 1400h135v-150h-135v150zM491 575c-34 81.333 -105.668 172.999 -215.001 274.999h205c58 -52 111.667 -123.667 161 -215c48.667 -89.333 73 -173 73 -251c0 -48.667 24.667 -100.667 74 -156
c26.667 -29.333 69.667 -44 129 -44h68v-184h-118c-88 0 -161 43.333 -219 130c-56 -85.333 -146 -139 -270 -161c-27.333 -4.66699 -54.666 -7 -81.999 -7c-61.333 0 -123 12.667 -185 38v184c69.333 -28 129.333 -42 180 -42c19.333 0 39.333 3 60 9
c103.333 32.667 165.333 86.334 186 161.001c4.66699 18 7 41 7 69c0 45.333 -18 110 -54 194z" />
    <glyph glyph-name="uni0690.fina" unicode="&#x690;" horiz-adv-x="967" 
d="M450 1200h135v-150h-135v150zM450 1450h135v-150h-135v150zM225 1200h135v-150h-135v150zM225 1450h135v-150h-135v150zM491 575c-34 81.333 -105.668 172.999 -215.001 274.999h205c58 -52 111.667 -123.667 161 -215c48.667 -89.333 73 -173 73 -251
c0 -48.667 24.667 -100.667 74 -156c26.667 -29.333 69.667 -44 129 -44h68v-184h-118c-88 0 -161 43.333 -219 130c-56 -85.333 -146 -139 -270 -161c-27.333 -4.66699 -54.666 -7 -81.999 -7c-61.333 0 -123 12.667 -185 38v184c69.333 -28 129.333 -42 180 -42
c19.333 0 39.333 3 60 9c103.333 32.667 165.333 86.334 186 161.001c4.66699 18 7 41 7 69c0 45.333 -18 110 -54 194z" />
    <glyph glyph-name="uni0692.fina" unicode="&#x692;" horiz-adv-x="1017" 
d="M563 812l-175 326h125l117 -195l117 195h125l-176 -326h-133zM569 550h165.002c18 -74.667 28 -122 30 -142c6 -68.667 31 -128.667 75 -180c25.333 -29.333 68.333 -44 129 -44h67v-184h-117c-78 0 -132 20.667 -162 62
c-40.667 -185.333 -136.334 -322.333 -287.001 -411c-170.667 -100.667 -352.334 -151 -545.001 -151v184c182 0 334 42.667 456 128c130.667 92 206.667 207.333 228 346c5.33301 38.667 8 82 8 130c0 84 -15.667 171.333 -47 262z" />
    <glyph glyph-name="uni0693.fina" unicode="&#x693;" horiz-adv-x="1017" 
d="M824 -280c0 26.667 -8.33301 49.333 -25 68c-16.667 19.333 -37.334 29 -62.001 29s-45.334 -9.33301 -62.001 -28s-25 -41.667 -25 -69c0 -28 8.33301 -51.333 25 -70c16.667 -18 37.334 -27 62.001 -27s45.334 9.33301 62.001 28s25 41.667 25 69zM934 -280.001
c0 -61.333 -18.667 -113.333 -56 -156c-38.667 -42.667 -85.667 -64 -141 -64s-101.666 21.333 -138.999 64c-38.667 42.667 -58 94.667 -58 156s19.333 113.333 58 156c37.333 42 83.666 63 138.999 63s102.333 -21 141 -63c37.333 -42.667 56 -94.667 56 -156z
M569 549.999h165.002c18 -74.667 28 -122 30 -142c6 -68.667 31 -128.667 75 -180c25.333 -29.333 68.333 -44 129 -44h67v-184h-117c-78 0 -132 20.667 -162 62c-40.667 -185.333 -136.334 -322.333 -287.001 -411c-170.667 -100.667 -352.334 -151 -545.001 -151v184
c182 0 334 42.667 456 128c130.667 92 206.667 207.333 228 346c5.33301 38.667 8 82 8 130c0 84 -15.667 171.333 -47 262z" />
    <glyph glyph-name="uni0694.fina" unicode="&#x694;" horiz-adv-x="1017" 
d="M738 -290h135v-150h-135v150zM569 550h165.002c18 -74.667 28 -122 30 -142c6 -68.667 31 -128.667 75 -180c25.333 -29.333 68.333 -44 129 -44h67v-184h-117c-78 0 -132 20.667 -162 62c-40.667 -185.333 -136.334 -322.333 -287.001 -411
c-170.667 -100.667 -352.334 -151 -545.001 -151v184c182 0 334 42.667 456 128c130.667 92 206.667 207.333 228 346c5.33301 38.667 8 82 8 130c0 84 -15.667 171.333 -47 262z" />
    <glyph glyph-name="uni0695.fina" unicode="&#x695;" horiz-adv-x="1125" 
d="M569 550h165.002c18 -74.667 28 -122 30 -142c6 -68.667 31 -128.667 75 -180c25.333 -29.333 68.333 -44 129 -44h175v-184h-225c-78 0 -132 20.667 -162 62c-40.667 -185.333 -136.334 -322.333 -287.001 -411c-170.667 -100.667 -352.334 -151 -545.001 -151v184
c182 0 334 42.667 456 128c130.667 92 206.667 207.333 228 346c5.33301 38.667 8 82 8 130c0 84 -15.667 171.333 -47 262zM860.002 -500l-175 326h125l117 -195l117 195h125l-176 -326h-133z" />
    <glyph glyph-name="uni0696.fina" unicode="&#x696;" horiz-adv-x="1017" 
d="M162 190h135v-150h-135v150zM738 -290h135v-150h-135v150zM569 550h165.002c18 -74.667 28 -122 30 -142c6 -68.667 31 -128.667 75 -180c25.333 -29.333 68.333 -44 129 -44h67v-184h-117c-78 0 -132 20.667 -162 62c-40.667 -185.333 -136.334 -322.333 -287.001 -411
c-170.667 -100.667 -352.334 -151 -545.001 -151v184c182 0 334 42.667 456 128c130.667 92 206.667 207.333 228 346c5.33301 38.667 8 82 8 130c0 84 -15.667 171.333 -47 262z" />
    <glyph glyph-name="uni0697.fina" unicode="&#x697;" horiz-adv-x="1017" 
d="M675 950h135v-150h-135v150zM450 950h135v-150h-135v150zM569 550h165.002c18 -74.667 28 -122 30 -142c6 -68.667 31 -128.667 75 -180c25.333 -29.333 68.333 -44 129 -44h67v-184h-117c-78 0 -132 20.667 -162 62c-40.667 -185.333 -136.334 -322.333 -287.001 -411
c-170.667 -100.667 -352.334 -151 -545.001 -151v184c182 0 334 42.667 456 128c130.667 92 206.667 207.333 228 346c5.33301 38.667 8 82 8 130c0 84 -15.667 171.333 -47 262z" />
    <glyph glyph-name="uni0699.fina" unicode="&#x699;" horiz-adv-x="1017" 
d="M675 950h135v-150h-135v150zM675 1200h135v-150h-135v150zM450 950h135v-150h-135v150zM450 1200h135v-150h-135v150zM569 550h165.002c18 -74.667 28 -122 30 -142c6 -68.667 31 -128.667 75 -180c25.333 -29.333 68.333 -44 129 -44h67v-184h-117
c-78 0 -132 20.667 -162 62c-40.667 -185.333 -136.334 -322.333 -287.001 -411c-170.667 -100.667 -352.334 -151 -545.001 -151v184c182 0 334 42.667 456 128c130.667 92 206.667 207.333 228 346c5.33301 38.667 8 82 8 130c0 84 -15.667 171.333 -47 262z" />
    <glyph glyph-name="uni069A.init" unicode="&#x69a;" 
d="M346 138c-26 -39.333 -56.0029 -70 -90.0029 -92c-45.333 -30.667 -97.666 -46 -156.999 -46h-117v184h68c59.333 0 102 14.667 128 44c48 53.333 72 113.333 72 180v192h166v-156c0 -42.667 13 -97.334 39 -164.001c26 -66 70.333 -99 133 -99
c65.333 0 111 40.667 137 122c22.667 68.667 34 167.667 34 297h165c0 -136.667 5.66699 -221.667 17 -255c38.667 -113.333 91 -169.666 157 -168.999c85.333 1.33301 128 94.666 128 279.999v294h165v-342c0 -132.667 -27.333 -236.667 -82 -312
c-45.333 -61.333 -98.666 -100 -159.999 -116c-22 -6 -43.667 -9 -65 -9c-37.333 0 -72.666 8.33301 -105.999 25c-82 40.667 -128.333 105 -139 193c-28.667 -104 -72 -167 -130 -189c-40.667 -16 -80.334 -24 -119.001 -24c-59.333 0 -110.666 16.333 -153.999 49
c-36 26.667 -66 64.334 -90 113.001zM697.997 1000h135v-150h-135v150zM831.997 -200h135v-150h-135v150z" />
    <glyph glyph-name="uni069A.medi" unicode="&#x69a;" horiz-adv-x="1644" 
d="M1149 -20c-22 -6 -43.6689 -9 -65.002 -9c-37.333 0 -72.666 8.33301 -105.999 25c-82 40.667 -128.333 105 -139 193c-28.667 -104 -72 -167 -130 -189c-40.667 -16 -80.334 -24 -119.001 -24c-59.333 0 -110.666 16.333 -153.999 49c-36 26.667 -66 64.334 -90 113.001
c-26 -39.333 -56 -70 -90 -92c-45.333 -30.667 -97.666 -46 -156.999 -46h-117v184h68c59.333 0 102 14.667 128 44c48 53.333 72 113.333 72 180v192h166v-156c0 -42.667 13 -97.334 39 -164.001c26 -66 70.333 -99 133 -99c65.333 0 111 40.667 137 122
c22.667 68.667 34 167.667 34 297h165c0 -136.667 5.66699 -221.667 17 -255c38.667 -113.333 91 -169.666 157 -168.999c85.333 1.33301 128 94.666 128 279.999v294h165v-342c0 -64.667 25 -124.667 75 -180c26.667 -29.333 69.667 -44 129 -44h67v-184h-117
c-86.667 0 -165.334 32 -236.001 96c-41.333 -60 -94.666 -98.667 -159.999 -116zM697.998 1000h135v-150h-135v150zM831.998 -200h135v-150h-135v150z" />
    <glyph glyph-name="uni069A.fina" unicode="&#x69a;" horiz-adv-x="2349" 
d="M1318 181c46.667 -1.33301 84.333 39.3301 113 121.997c22 63.333 33 162.333 33 297h166c0 -136.667 5.66699 -221.667 17 -255c38.667 -112.667 91 -169 157 -169c84.667 0 127 93.333 127 280v294h166v-342c0 -64.667 25 -124.667 75 -180
c26 -29.333 68.667 -44 128 -44h68v-184h-117c-87.333 0 -166.333 32 -237 96c-40.667 -60.667 -93.667 -99.334 -159 -116.001c-22 -6 -42.667 -9 -62 -9c-44 0 -80.333 8.33301 -109 25c-82.667 46.667 -129.334 111 -140.001 193c-29.333 -106 -72.333 -169 -129 -189
c-38.667 -13.333 -74.667 -19.333 -108 -18c-82 1.33301 -135 22 -159 62c-14 -119.333 -46.333 -214.666 -97 -285.999c-79.333 -113.333 -177 -190.666 -293 -231.999c-48 -17.333 -108 -26 -180 -26c-76.667 0.666992 -148 10.334 -214 29.001
c-164.667 47.333 -247 180.333 -247 399c0 164 31.667 306 95 426h165c-64.667 -137.333 -96.667 -279.333 -96 -426c0.666992 -119.333 45 -191.666 133 -216.999c57.333 -16 110 -24 158 -24c59.333 0 117.333 12.333 174 37c72.667 32 137.334 100.667 194.001 206
c38 72 56.667 155.333 56 250c-0.666992 83.333 -5.66699 145.333 -15 186l-58 234h166l32 -156c10 -49.333 23.333 -94 40 -134c34.667 -84 87 -127 157 -129zM1238 949.996h135v-150h-135v150zM1372 -200.004h135v-150h-135v150z" />
    <glyph glyph-name="uni069B.init" unicode="&#x69b;" 
d="M346 138c-26 -39.333 -56.0029 -70 -90.0029 -92c-45.333 -30.667 -97.666 -46 -156.999 -46h-117v184h68c59.333 0 102 14.667 128 44c48 53.333 72 113.333 72 180v192h166v-156c0 -42.667 13 -97.334 39 -164.001c26 -66 70.333 -99 133 -99
c65.333 0 111 40.667 137 122c22.667 68.667 34 167.667 34 297h165c0 -136.667 5.66699 -221.667 17 -255c38.667 -113.333 91 -169.666 157 -168.999c85.333 1.33301 128 94.666 128 279.999v294h165v-342c0 -132.667 -27.333 -236.667 -82 -312
c-45.333 -61.333 -98.666 -100 -159.999 -116c-22 -6 -43.667 -9 -65 -9c-37.333 0 -72.666 8.33301 -105.999 25c-82 40.667 -128.333 105 -139 193c-28.667 -104 -72 -167 -130 -189c-40.667 -16 -80.334 -24 -119.001 -24c-59.333 0 -110.666 16.333 -153.999 49
c-36 26.667 -66 64.334 -90 113.001zM831.997 -350h136v-150h-136v150zM944.997 -100h135v-150h-135v150zM719.997 -100h135v-150h-135v150z" />
    <glyph glyph-name="uni069B.medi" unicode="&#x69b;" horiz-adv-x="1644" 
d="M1149 -20c-22 -6 -43.6689 -9 -65.002 -9c-37.333 0 -72.666 8.33301 -105.999 25c-82 40.667 -128.333 105 -139 193c-28.667 -104 -72 -167 -130 -189c-40.667 -16 -80.334 -24 -119.001 -24c-59.333 0 -110.666 16.333 -153.999 49c-36 26.667 -66 64.334 -90 113.001
c-26 -39.333 -56 -70 -90 -92c-45.333 -30.667 -97.666 -46 -156.999 -46h-117v184h68c59.333 0 102 14.667 128 44c48 53.333 72 113.333 72 180v192h166v-156c0 -42.667 13 -97.334 39 -164.001c26 -66 70.333 -99 133 -99c65.333 0 111 40.667 137 122
c22.667 68.667 34 167.667 34 297h165c0 -136.667 5.66699 -221.667 17 -255c38.667 -113.333 91 -169.666 157 -168.999c85.333 1.33301 128 94.666 128 279.999v294h165v-342c0 -64.667 25 -124.667 75 -180c26.667 -29.333 69.667 -44 129 -44h67v-184h-117
c-86.667 0 -165.334 32 -236.001 96c-41.333 -60 -94.666 -98.667 -159.999 -116zM831.998 -350h136v-150h-136v150zM944.998 -100h135v-150h-135v150zM719.998 -100h135v-150h-135v150z" />
    <glyph glyph-name="uni069B.fina" unicode="&#x69b;" horiz-adv-x="2349" 
d="M1318 181c46.667 -1.33301 84.333 39.3301 113 121.997c22 63.333 33 162.333 33 297h166c0 -136.667 5.66699 -221.667 17 -255c38.667 -112.667 91 -169 157 -169c84.667 0 127 93.333 127 280v294h166v-342c0 -64.667 25 -124.667 75 -180
c26 -29.333 68.667 -44 128 -44h68v-184h-117c-87.333 0 -166.333 32 -237 96c-40.667 -60.667 -93.667 -99.334 -159 -116.001c-22 -6 -42.667 -9 -62 -9c-44 0 -80.333 8.33301 -109 25c-82.667 46.667 -129.334 111 -140.001 193c-29.333 -106 -72.333 -169 -129 -189
c-38.667 -13.333 -74.667 -19.333 -108 -18c-82 1.33301 -135 22 -159 62c-14 -119.333 -46.333 -214.666 -97 -285.999c-79.333 -113.333 -177 -190.666 -293 -231.999c-48 -17.333 -108 -26 -180 -26c-76.667 0.666992 -148 10.334 -214 29.001
c-164.667 47.333 -247 180.333 -247 399c0 164 31.667 306 95 426h165c-64.667 -137.333 -96.667 -279.333 -96 -426c0.666992 -119.333 45 -191.666 133 -216.999c57.333 -16 110 -24 158 -24c59.333 0 117.333 12.333 174 37c72.667 32 137.334 100.667 194.001 206
c38 72 56.667 155.333 56 250c-0.666992 83.333 -5.66699 145.333 -15 186l-58 234h166l32 -156c10 -49.333 23.333 -94 40 -134c34.667 -84 87 -127 157 -129zM1372 -350.004h136v-150h-136v150zM1485 -100.004h135v-150h-135v150zM1260 -100.004h135v-150h-135v150z" />
    <glyph glyph-name="uni069C.init" unicode="&#x69c;" 
d="M346 138c-26 -39.333 -56.0029 -70 -90.0029 -92c-45.333 -30.667 -97.666 -46 -156.999 -46h-117v184h68c59.333 0 102 14.667 128 44c48 53.333 72 113.333 72 180v192h166v-156c0 -42.667 13 -97.334 39 -164.001c26 -66 70.333 -99 133 -99
c65.333 0 111 40.667 137 122c22.667 68.667 34 167.667 34 297h165c0 -136.667 5.66699 -221.667 17 -255c38.667 -113.333 91 -169.666 157 -168.999c85.333 1.33301 128 94.666 128 279.999v294h165v-342c0 -132.667 -27.333 -236.667 -82 -312
c-45.333 -61.333 -98.666 -100 -159.999 -116c-22 -6 -43.667 -9 -65 -9c-37.333 0 -72.666 8.33301 -105.999 25c-82 40.667 -128.333 105 -139 193c-28.667 -104 -72 -167 -130 -189c-40.667 -16 -80.334 -24 -119.001 -24c-59.333 0 -110.666 16.333 -153.999 49
c-36 26.667 -66 64.334 -90 113.001zM696.997 1200h136v-150h-136v150zM809.997 950h135v-150h-135v150zM584.997 950h135v-150h-135v150zM831.997 -350h136v-150h-136v150zM944.997 -100h135v-150h-135v150zM719.997 -100h135v-150h-135v150z" />
    <glyph glyph-name="uni069C.medi" unicode="&#x69c;" horiz-adv-x="1644" 
d="M1149 -20c-22 -6 -43.6689 -9 -65.002 -9c-37.333 0 -72.666 8.33301 -105.999 25c-82 40.667 -128.333 105 -139 193c-28.667 -104 -72 -167 -130 -189c-40.667 -16 -80.334 -24 -119.001 -24c-59.333 0 -110.666 16.333 -153.999 49c-36 26.667 -66 64.334 -90 113.001
c-26 -39.333 -56 -70 -90 -92c-45.333 -30.667 -97.666 -46 -156.999 -46h-117v184h68c59.333 0 102 14.667 128 44c48 53.333 72 113.333 72 180v192h166v-156c0 -42.667 13 -97.334 39 -164.001c26 -66 70.333 -99 133 -99c65.333 0 111 40.667 137 122
c22.667 68.667 34 167.667 34 297h165c0 -136.667 5.66699 -221.667 17 -255c38.667 -113.333 91 -169.666 157 -168.999c85.333 1.33301 128 94.666 128 279.999v294h165v-342c0 -64.667 25 -124.667 75 -180c26.667 -29.333 69.667 -44 129 -44h67v-184h-117
c-86.667 0 -165.334 32 -236.001 96c-41.333 -60 -94.666 -98.667 -159.999 -116zM696.998 1200h136v-150h-136v150zM809.998 950h135v-150h-135v150zM584.998 950h135v-150h-135v150zM831.998 -350h136v-150h-136v150zM944.998 -100h135v-150h-135v150zM719.998 -100h135
v-150h-135v150z" />
    <glyph glyph-name="uni069C.fina" unicode="&#x69c;" horiz-adv-x="2349" 
d="M1318 181c46.667 -1.33301 84.333 39.3301 113 121.997c22 63.333 33 162.333 33 297h166c0 -136.667 5.66699 -221.667 17 -255c38.667 -112.667 91 -169 157 -169c84.667 0 127 93.333 127 280v294h166v-342c0 -64.667 25 -124.667 75 -180
c26 -29.333 68.667 -44 128 -44h68v-184h-117c-87.333 0 -166.333 32 -237 96c-40.667 -60.667 -93.667 -99.334 -159 -116.001c-22 -6 -42.667 -9 -62 -9c-44 0 -80.333 8.33301 -109 25c-82.667 46.667 -129.334 111 -140.001 193c-29.333 -106 -72.333 -169 -129 -189
c-38.667 -13.333 -74.667 -19.333 -108 -18c-82 1.33301 -135 22 -159 62c-14 -119.333 -46.333 -214.666 -97 -285.999c-79.333 -113.333 -177 -190.666 -293 -231.999c-48 -17.333 -108 -26 -180 -26c-76.667 0.666992 -148 10.334 -214 29.001
c-164.667 47.333 -247 180.333 -247 399c0 164 31.667 306 95 426h165c-64.667 -137.333 -96.667 -279.333 -96 -426c0.666992 -119.333 45 -191.666 133 -216.999c57.333 -16 110 -24 158 -24c59.333 0 117.333 12.333 174 37c72.667 32 137.334 100.667 194.001 206
c38 72 56.667 155.333 56 250c-0.666992 83.333 -5.66699 145.333 -15 186l-58 234h166l32 -156c10 -49.333 23.333 -94 40 -134c34.667 -84 87 -127 157 -129zM1237 1200h136v-150h-136v150zM1350 949.996h135v-150h-135v150zM1125 949.996h135v-150h-135v150z
M1372 -350.004h136v-150h-136v150zM1485 -100.004h135v-150h-135v150zM1260 -100.004h135v-150h-135v150z" />
    <glyph glyph-name="uni069D.init" unicode="&#x69d;" horiz-adv-x="1565" 
d="M878 486c-100.667 -72 -194.334 -172.668 -281.001 -302.001h168c142.667 0 252.334 21 329.001 63c112 60.667 168 114.334 168 161.001c0 90 -41.667 141.333 -125 154c-22 3.33301 -47.667 5 -77 5c-45.333 0 -106 -27 -182 -81zM824 -0.000976562h-248
c-44.667 0 -90.334 14 -137.001 42c-38.667 23.333 -69.667 55.333 -93 96c-61.333 -92 -143.666 -138 -246.999 -138h-117v184h68c59.333 0 102 14.667 128 44c48 53.333 72 113.333 72 180v114h166v-78c0 -16 2.66699 -37.333 8 -64s21.333 -56.667 48 -90
c60.667 89.333 119.667 162 177 218c91.333 91.333 180.333 158 267 200c45.333 22 93.333 33 144 33c69.333 0 136 -13 200 -39c111.333 -45.333 167 -146.666 167 -303.999c0 -112.667 -55 -205.334 -165 -278.001c-121.333 -80 -267.333 -120 -438 -120zM765 -200.001
h135v-150h-135v150zM540 -200.001h135v-150h-135v150z" />
    <glyph glyph-name="uni069D.medi" unicode="&#x69d;" horiz-adv-x="1598" 
d="M828 0l-252 -0.000976562c-44.667 0 -90.334 14 -137.001 42c-38.667 23.333 -69.667 55.333 -93 96c-61.333 -92 -143.666 -138 -246.999 -138h-117v184h68c59.333 0 102 14.667 128 44c48 53.333 72 113.333 72 180v114h166v-78c0 -16 2.66699 -37.333 8 -64
s21.333 -56.667 48 -90c60.667 89.333 119.667 162 177 218c91.333 91.333 180.333 158 267 200c45.333 22 93.333 33 144 33c68 0 134.667 -13 200 -39c114 -45.333 171 -146.666 171 -303.999c0 -50 -12.667 -99 -38 -147c8.66699 -8 17.667 -15.667 27 -23
c36.667 -29.333 79.667 -44 129 -44h67v-184h-117c-78 0 -148 30.667 -210 92l-25 26c-122.667 -78.667 -268 -118 -436 -118zM878 485.999c-100.667 -72 -194.334 -172.668 -281.001 -302.001h168c142.667 0 252.334 21 329.001 63c112 60.667 168 114.334 168 161.001
c0 90 -41.667 141.333 -125 154c-22 3.33301 -47.667 5 -77 5c-45.333 0 -106 -27 -182 -81zM765 -200.002h135v-150h-135v150zM540 -200.002h135v-150h-135v150z" />
    <glyph glyph-name="uni069D.fina" unicode="&#x69d;" horiz-adv-x="2258" 
d="M1488 0l-249 -0.00488281c-22.667 0 -49.667 10 -81 30c-26.667 17.333 -40 31.333 -40 42c0 -124 -22.333 -228.667 -67 -314c-52.667 -103.333 -150.334 -180.666 -293.001 -231.999c-48 -17.333 -108 -26 -180 -26c-76.667 0.666992 -148 10.334 -214 29.001
c-164.667 47.333 -247 180.333 -247 399c0 164 31.667 306 95 426h165c-64.667 -137.333 -96.667 -279.333 -96 -426c0.666992 -119.333 45 -191.666 133 -216.999c57.333 -16 110 -24 158 -24c61.333 0 119.333 12.333 174 37c97.333 45.333 159 114 185 206
c19.333 72 29 150.333 29 235c0 98 -11.667 193 -35 285h154c-0.666992 -10 3.33301 -33.333 12 -70c6 -26.667 21 -56.667 45 -90c68.667 97.333 140 182 214 254c64.667 62.667 141.334 117.334 230.001 164.001c42.667 22.667 90.667 33.667 144 33
c74.667 -1.33301 141 -14.333 199 -39c112 -47.333 168 -148.666 168 -303.999c0 -51.333 -12.667 -100.333 -38 -147c8.66699 -8 17.667 -15.667 27 -23c36.667 -29.333 79.667 -44 129 -44h67v-184h-117c-78.667 0 -149 30.667 -211 92l-25 26
c-122 -78.667 -267 -118 -435 -118zM1724 566.995c-46 0 -106.667 -27.001 -182 -81.001c-101.333 -72 -195.333 -172.667 -282 -302h168c142.667 0 252.667 21 330 63c112 60.667 167.667 114.334 167 161.001c-1.33301 90 -43 141.333 -125 154
c-22 3.33301 -47.333 5 -76 5zM1485 -200.006h135v-150h-135v150zM1260 -200.006h135v-150h-135v150z" />
    <glyph glyph-name="uni069E.init" unicode="&#x69e;" horiz-adv-x="1565" 
d="M878 486c-100.667 -72 -194.334 -172.668 -281.001 -302.001h168c142.667 0 252.334 21 329.001 63c112 60.667 168 114.334 168 161.001c0 90 -41.667 141.333 -125 154c-22 3.33301 -47.667 5 -77 5c-45.333 0 -106 -27 -182 -81zM824 -0.000976562h-248
c-44.667 0 -90.334 14 -137.001 42c-38.667 23.333 -69.667 55.333 -93 96c-61.333 -92 -143.666 -138 -246.999 -138h-117v184h68c59.333 0 102 14.667 128 44c48 53.333 72 113.333 72 180v114h166v-78c0 -16 2.66699 -37.333 8 -64s21.333 -56.667 48 -90
c60.667 89.333 119.667 162 177 218c91.333 91.333 180.333 158 267 200c45.333 22 93.333 33 144 33c69.333 0 136 -13 200 -39c111.333 -45.333 167 -146.666 167 -303.999c0 -112.667 -55 -205.334 -165 -278.001c-121.333 -80 -267.333 -120 -438 -120zM472 1200h136
v-150h-136v150zM585 949.999h135v-150h-135v150zM360 949.999h135v-150h-135v150z" />
    <glyph glyph-name="uni069E.medi" unicode="&#x69e;" horiz-adv-x="1598" 
d="M828 0l-252 -0.000976562c-44.667 0 -90.334 14 -137.001 42c-38.667 23.333 -69.667 55.333 -93 96c-61.333 -92 -143.666 -138 -246.999 -138h-117v184h68c59.333 0 102 14.667 128 44c48 53.333 72 113.333 72 180v114h166v-78c0 -16 2.66699 -37.333 8 -64
s21.333 -56.667 48 -90c60.667 89.333 119.667 162 177 218c91.333 91.333 180.333 158 267 200c45.333 22 93.333 33 144 33c68 0 134.667 -13 200 -39c114 -45.333 171 -146.666 171 -303.999c0 -50 -12.667 -99 -38 -147c8.66699 -8 17.667 -15.667 27 -23
c36.667 -29.333 79.667 -44 129 -44h67v-184h-117c-78 0 -148 30.667 -210 92l-25 26c-122.667 -78.667 -268 -118 -436 -118zM878 485.999c-100.667 -72 -194.334 -172.668 -281.001 -302.001h168c142.667 0 252.334 21 329.001 63c112 60.667 168 114.334 168 161.001
c0 90 -41.667 141.333 -125 154c-22 3.33301 -47.667 5 -77 5c-45.333 0 -106 -27 -182 -81zM472 1200h136v-150h-136v150zM585 949.998h135v-150h-135v150zM360 949.998h135v-150h-135v150z" />
    <glyph glyph-name="uni069E.fina" unicode="&#x69e;" horiz-adv-x="2258" 
d="M1488 0l-249 -0.00488281c-22.667 0 -49.667 10 -81 30c-26.667 17.333 -40 31.333 -40 42c0 -124 -22.333 -228.667 -67 -314c-52.667 -103.333 -150.334 -180.666 -293.001 -231.999c-48 -17.333 -108 -26 -180 -26c-76.667 0.666992 -148 10.334 -214 29.001
c-164.667 47.333 -247 180.333 -247 399c0 164 31.667 306 95 426h165c-64.667 -137.333 -96.667 -279.333 -96 -426c0.666992 -119.333 45 -191.666 133 -216.999c57.333 -16 110 -24 158 -24c61.333 0 119.333 12.333 174 37c97.333 45.333 159 114 185 206
c19.333 72 29 150.333 29 235c0 98 -11.667 193 -35 285h154c-0.666992 -10 3.33301 -33.333 12 -70c6 -26.667 21 -56.667 45 -90c68.667 97.333 140 182 214 254c64.667 62.667 141.334 117.334 230.001 164.001c42.667 22.667 90.667 33.667 144 33
c74.667 -1.33301 141 -14.333 199 -39c112 -47.333 168 -148.666 168 -303.999c0 -51.333 -12.667 -100.333 -38 -147c8.66699 -8 17.667 -15.667 27 -23c36.667 -29.333 79.667 -44 129 -44h67v-184h-117c-78.667 0 -149 30.667 -211 92l-25 26
c-122 -78.667 -267 -118 -435 -118zM1724 566.995c-46 0 -106.667 -27.001 -182 -81.001c-101.333 -72 -195.333 -172.667 -282 -302h168c142.667 0 252.667 21 330 63c112 60.667 167.667 114.334 167 161.001c-1.33301 90 -43 141.333 -125 154
c-22 3.33301 -47.333 5 -76 5zM1147 1199.99h136v-150h-136v150zM1260 949.994h135v-150h-135v150zM1035 949.994h135v-150h-135v150z" />
    <glyph glyph-name="uni069F.init" unicode="&#x69f;" horiz-adv-x="1467" 
d="M512 184h168c142.667 0 252.667 21 330 63c112 62 167.667 115.667 167 161c-1.33301 90 -43 141.333 -125 154c-22 3.33301 -47.333 5 -76 5c-48 0 -108.667 -27 -182 -81c-106.667 -80 -200.667 -180.667 -282 -302zM740 0l-518 0.000976562h-240v184h240v1372h166
v-1266c130 212.667 278 352 444 418c54.667 22 102.667 33 144 33c70 0 136.333 -13 199 -39c112 -46 168 -147.333 168 -304c0 -112.667 -55.333 -205.334 -166 -278.001c-121.333 -80 -267 -120 -437 -120zM684 1250h136v-150h-136v150zM797 1000h135v-150h-135v150z
M572 1000h135v-150h-135v150z" />
    <glyph glyph-name="uni069F.medi" unicode="&#x69f;" horiz-adv-x="1512" 
d="M742 0h-520.001h-240v184h240v1372h166v-1266c130 212.667 278 352 444 418c54.667 22 102.667 33 144 33c70 0 136.333 -13 199 -39c113.333 -46 170 -147.333 170 -304c0 -51.333 -12.667 -100.333 -38 -147c8 -8 17 -15.667 27 -23
c36.667 -29.333 79.334 -44 128.001 -44h68v-184h-117c-78.667 0 -149 30.667 -211 92l-25 26c-122 -78.667 -267 -118 -435 -118zM511.999 184h168c142.667 0 252.667 21 330 63c112 62 167.667 115.667 167 161c-1.33301 90 -43 141.333 -125 154
c-22 3.33301 -47.333 5 -76 5c-48 0 -108.667 -27 -182 -81c-106.667 -80 -200.667 -180.667 -282 -302zM683.999 1250h136v-150h-136v150zM796.999 1000h135v-150h-135v150zM571.999 1000h135v-150h-135v150z" />
    <glyph glyph-name="uni069F.fina" unicode="&#x69f;" horiz-adv-x="1749" 
d="M979 0h-519h-330v184h330v1372h166v-1266c130 212.667 277.667 352 443 418c55.333 22 103.333 33 144 33c70 0 136.667 -13 200 -39c112.667 -46 169 -147.333 169 -304c0 -51.333 -12.667 -100.333 -38 -147c8.66699 -8 17.667 -15.667 27 -23
c36.667 -29.333 79.667 -44 129 -44h68v-184h-117c-78.667 0 -149 30.667 -211 92l-25 26c-122.667 -78.667 -268 -118 -436 -118zM750 184h168.001c142 0 251.667 21 329 63c112.667 62 168.667 115.667 168 161c-1.33301 90 -43 141.333 -125 154
c-22.667 3.33301 -48.334 5 -77.001 5c-48 0 -108.667 -27 -182 -81c-106 -80 -199.667 -180.667 -281 -302zM922.001 1250h136v-150h-136v150zM1035 1000h135v-150h-135v150zM810.001 1000h135v-150h-135v150z" />
    <glyph glyph-name="uni06A0.init" unicode="&#x6a0;" horiz-adv-x="1099" 
d="M54 184c96.667 0 205.666 31 326.999 93c-45.333 16 -83.666 43.667 -114.999 83c-52.667 66.667 -79 146.667 -79 240c0 176 61.333 305.667 184 389c74.667 51.333 187.334 77 338.001 77v-169c-130.667 0 -223.834 -22.833 -279.501 -68.5s-83.5 -111 -83.5 -196
s18.333 -144.833 55 -179.5c50 -46.667 96 -70 138 -70c33.333 0 72 11 116 33l259 129v-184l-378 -197c-210 -109.333 -368.333 -164 -475 -164h-79v184h72zM381.999 1600h136v-150h-136v150zM494.999 1350h135v-150h-135v150zM269.999 1350h135v-150h-135v150z" />
    <glyph glyph-name="uni06A0.medi" unicode="&#x6a0;" horiz-adv-x="889" 
d="M445 185c-116.667 -123.333 -235.667 -185.001 -357 -185.001h-106v184h86c64.667 0 116.667 13.333 156 40c35.333 24 65 49 89 75c-58 56.667 -107.333 115 -148 175c-18 26 -27 54 -27 84c0 20.667 3.66699 44.667 11 72c10 36.667 46 72.334 108 107.001
c54 30 116.667 45 188 45s133.666 -15 186.999 -45c62 -34.667 98 -70.334 108 -107.001c8 -27.333 12 -51.333 12 -72c0 -30 -9.33301 -58 -28 -84c-46 -65.333 -95.333 -123.666 -148 -174.999c18.667 -20.667 48.334 -45.667 89.001 -75
c36.667 -26.667 88.667 -40 156 -40h86v-184h-106c-121.333 0 -240 61.667 -356 185zM444.5 596.999c-15.667 0 -32.5 -2.33301 -50.5 -7c-28 -8 -42 -22.667 -42 -44c0 -19.333 31 -60.666 93 -123.999c61.333 63.333 92 104.666 92 123.999c0 21.333 -14 36 -42 44
c-18 4.66699 -34.833 7 -50.5 7zM382 1350h136v-150h-136v150zM495 1100h135v-150h-135v150zM270 1100h135v-150h-135v150z" />
    <glyph glyph-name="uni06A0.fina" unicode="&#x6a0;" horiz-adv-x="981" 
d="M1082 -401c-91.333 -66 -214 -98.9971 -368 -98.9971c-252.667 0 -426 62.667 -520 188c-59.333 81.333 -89 189 -89 323s56.333 247.667 169 341c-36.667 33.333 -65.167 69.333 -85.5 108s-30.5 72 -30.5 100c0 73.333 37.333 131.333 112 174
c58 32 122.833 48 194.5 48s135.834 -16 192.501 -48c76 -42.667 114 -101.334 114 -176.001c0 -60.667 -27.333 -113.334 -82 -158.001c-34 -28.667 -79 -53.667 -135 -75c40.667 -42.667 88.167 -76.834 142.5 -102.501s107.166 -38.5 158.499 -38.5h144v-184h-130
c-159.333 0 -313.333 76 -462 228c-92.667 -86 -139 -164.667 -139 -236c0 -72 12.333 -128.333 37 -169c64 -105.333 201.333 -158 412 -158c116 0 237.667 39.333 365 118v-184zM435 445.003c81.333 37.333 122 72 122 104s-30.833 48 -92.5 48s-92.5 -17 -92.5 -51
c0 -24 21 -57.667 63 -101zM382 1350h136v-150h-136v150zM495 1100h135v-150h-135v150zM270 1100h135v-150h-135v150z" />
    <glyph glyph-name="uni06A1.init" unicode="&#x6a1;" horiz-adv-x="881" 
d="M538 537c24.667 28.667 37.001 68.666 37.001 119.999c0 39.333 -19.667 76 -59 110c-18.667 16.667 -41.334 24.667 -68.001 24c-31.333 -0.666992 -59 -15 -83 -43c-24 -27.333 -36.333 -58 -37 -92c0 -53.333 16.667 -92.666 50 -117.999
c24 -16.667 48.667 -25 74 -25c43.333 0 72 8 86 24zM-17.999 183.999h217.001c50 0 120.333 7.66699 211 23c48 8 90 43 126 105c18 32 31.667 64.667 41 98c-38 -36.667 -86 -55.667 -144 -57c-78 -1.33301 -140.333 21 -187 67c-58.667 58 -88 130 -88 216
c0 34.667 2.33301 66.667 7 96c13.333 98.667 65 171 155 217c47.333 24 93.666 36 138.999 36c54 0 100.667 -16.667 140 -50c58 -48 100.667 -106 128 -174c14 -34 21 -97.667 21 -191c0 -138.667 -23.333 -255.667 -70 -351c-44.667 -90.667 -104 -150.667 -178 -180
c-66 -26 -142.333 -39 -229 -39h-289v184z" />
    <glyph glyph-name="uni06A1.medi" unicode="&#x6a1;" horiz-adv-x="932" 
d="M553 762c109.333 -53.333 171.332 -130 185.999 -230c4.66699 -33.333 7 -64 7 -92c0 -48.667 -6.33301 -89.334 -19 -122.001c-17.333 -44.667 -36.666 -83.667 -57.999 -117c23.333 -11.333 79 -17 167 -17h114v-184h-195c-81.333 0 -177.666 19 -288.999 57
c-110.667 -38 -207 -57 -289 -57h-195v184h114c88.667 0 144.667 5.66699 168 17c-17.333 26.667 -37 65.667 -59 117c-12.667 30.667 -19 71.334 -19 122.001c0 29.333 2.66699 60 8 92c13.333 95.333 75.666 172 186.999 230c18 9.33301 46.333 14 85 14
c38 0 67 -4.66699 87 -14zM465.999 592c-8.66699 0 -18.668 -3.33398 -30.001 -10.001c-33.333 -21.333 -57.333 -49.666 -72 -84.999c-5.33301 -14 -8 -30.667 -8 -50c0 -28.667 7 -60.667 21 -96c18.667 -45.333 48.334 -75.333 89.001 -90c38 14 67.667 44 89 90
c15.333 33.333 23 65.333 23 96c0 16 -3.33301 32.667 -10 50c-14 34.667 -38 63 -72 85c-11.333 6.66699 -21.333 10 -30 10z" />
    <glyph glyph-name="uni06A1.fina" unicode="&#x6a1;" horiz-adv-x="1908" 
d="M1490 36c-62 -28.667 -126 -51.001 -192 -67.001c-168 -40 -333.667 -60 -497 -60c-183.333 0.666992 -312.333 14 -387 40c-197.333 68.667 -296.333 190.334 -297 365.001c-0.666992 92 18.333 168.667 57 230h165c-38.667 -62.667 -58 -139.334 -58 -230.001
c0 -76.667 61 -140.667 183 -192c48 -20.667 162 -31 342 -31c138.667 0 293.667 18 465 54l25 4c-20.667 18 -39.667 41.667 -57 71c-48.667 82.667 -73 164.334 -73 245.001c0 20.667 1 43 3 67c13.333 103.333 76.333 180 189 230c34.667 15.333 67.667 23 99 23
c49.333 0 98.333 -16.667 147 -50c82 -55.333 128.333 -133 139 -233c2.66699 -24.667 4 -47 4 -67c0 -96 -24 -179.333 -72 -250c5.33301 -0.666992 10 -1 14 -1h237v-184h-241c-63.333 0 -128.333 12 -195 36zM1490 222.999c62.667 43.333 94.001 105.667 94.001 187
c0 13.333 -1.33301 29 -4 47c-8.66699 47.333 -28.667 84 -60 110c-20 16.667 -42 25 -66 25c-14.667 0 -28.667 -3.33301 -42 -10c-36.667 -16.667 -60.667 -45 -72 -85c-3.33301 -12.667 -5 -25 -5 -37c0 -37.333 12.333 -78 37 -122
c29.333 -52 68.666 -90.333 117.999 -115z" />
    <glyph glyph-name="uni06A2.init" unicode="&#x6a2;" horiz-adv-x="881" 
d="M538 537c24.667 28.667 37.001 68.666 37.001 119.999c0 39.333 -19.667 76 -59 110c-18.667 16.667 -41.334 24.667 -68.001 24c-31.333 -0.666992 -59 -15 -83 -43c-24 -27.333 -36.333 -58 -37 -92c0 -53.333 16.667 -92.666 50 -117.999
c24 -16.667 48.667 -25 74 -25c43.333 0 72 8 86 24zM-17.999 183.999h217.001c50 0 120.333 7.66699 211 23c48 8 90 43 126 105c18 32 31.667 64.667 41 98c-38 -36.667 -86 -55.667 -144 -57c-78 -1.33301 -140.333 21 -187 67c-58.667 58 -88 130 -88 216
c0 34.667 2.33301 66.667 7 96c13.333 98.667 65 171 155 217c47.333 24 93.666 36 138.999 36c54 0 100.667 -16.667 140 -50c58 -48 100.667 -106 128 -174c14 -34 21 -97.667 21 -191c0 -138.667 -23.333 -255.667 -70 -351c-44.667 -90.667 -104 -150.667 -178 -180
c-66 -26 -142.333 -39 -229 -39h-289v184zM382.002 -150.001h135v-150h-135v150z" />
    <glyph glyph-name="uni06A2.medi" unicode="&#x6a2;" horiz-adv-x="932" 
d="M553 762c109.333 -53.333 171.332 -130 185.999 -230c4.66699 -33.333 7 -64 7 -92c0 -48.667 -6.33301 -89.334 -19 -122.001c-17.333 -44.667 -36.666 -83.667 -57.999 -117c23.333 -11.333 79 -17 167 -17h114v-184h-195c-81.333 0 -177.666 19 -288.999 57
c-110.667 -38 -207 -57 -289 -57h-195v184h114c88.667 0 144.667 5.66699 168 17c-17.333 26.667 -37 65.667 -59 117c-12.667 30.667 -19 71.334 -19 122.001c0 29.333 2.66699 60 8 92c13.333 95.333 75.666 172 186.999 230c18 9.33301 46.333 14 85 14
c38 0 67 -4.66699 87 -14zM465.999 592c-8.66699 0 -18.668 -3.33398 -30.001 -10.001c-33.333 -21.333 -57.333 -49.666 -72 -84.999c-5.33301 -14 -8 -30.667 -8 -50c0 -28.667 7 -60.667 21 -96c18.667 -45.333 48.334 -75.333 89.001 -90c38 14 67.667 44 89 90
c15.333 33.333 23 65.333 23 96c0 16 -3.33301 32.667 -10 50c-14 34.667 -38 63 -72 85c-11.333 6.66699 -21.333 10 -30 10zM381.998 -150.001h135v-150h-135v150z" />
    <glyph glyph-name="uni06A2.fina" unicode="&#x6a2;" horiz-adv-x="1908" 
d="M1490 36c-62 -28.667 -126 -51.001 -192 -67.001c-168 -40 -333.667 -60 -497 -60c-183.333 0.666992 -312.333 14 -387 40c-197.333 68.667 -296.333 190.334 -297 365.001c-0.666992 92 18.333 168.667 57 230h165c-38.667 -62.667 -58 -139.334 -58 -230.001
c0 -76.667 61 -140.667 183 -192c48 -20.667 162 -31 342 -31c138.667 0 293.667 18 465 54l25 4c-20.667 18 -39.667 41.667 -57 71c-48.667 82.667 -73 164.334 -73 245.001c0 20.667 1 43 3 67c13.333 103.333 76.333 180 189 230c34.667 15.333 67.667 23 99 23
c49.333 0 98.333 -16.667 147 -50c82 -55.333 128.333 -133 139 -233c2.66699 -24.667 4 -47 4 -67c0 -96 -24 -179.333 -72 -250c5.33301 -0.666992 10 -1 14 -1h237v-184h-241c-63.333 0 -128.333 12 -195 36zM1490 222.999c62.667 43.333 94.001 105.667 94.001 187
c0 13.333 -1.33301 29 -4 47c-8.66699 47.333 -28.667 84 -60 110c-20 16.667 -42 25 -66 25c-14.667 0 -28.667 -3.33301 -42 -10c-36.667 -16.667 -60.667 -45 -72 -85c-3.33301 -12.667 -5 -25 -5 -37c0 -37.333 12.333 -78 37 -122
c29.333 -52 68.666 -90.333 117.999 -115zM788.001 -200h135v-150h-135v150z" />
    <glyph glyph-name="uni06A3.init" unicode="&#x6a3;" horiz-adv-x="881" 
d="M538 537c24.667 28.667 37.001 68.666 37.001 119.999c0 39.333 -19.667 76 -59 110c-18.667 16.667 -41.334 24.667 -68.001 24c-31.333 -0.666992 -59 -15 -83 -43c-24 -27.333 -36.333 -58 -37 -92c0 -53.333 16.667 -92.666 50 -117.999
c24 -16.667 48.667 -25 74 -25c43.333 0 72 8 86 24zM-17.999 183.999h217.001c50 0 120.333 7.66699 211 23c48 8 90 43 126 105c18 32 31.667 64.667 41 98c-38 -36.667 -86 -55.667 -144 -57c-78 -1.33301 -140.333 21 -187 67c-58.667 58 -88 130 -88 216
c0 34.667 2.33301 66.667 7 96c13.333 98.667 65 171 155 217c47.333 24 93.666 36 138.999 36c54 0 100.667 -16.667 140 -50c58 -48 100.667 -106 128 -174c14 -34 21 -97.667 21 -191c0 -138.667 -23.333 -255.667 -70 -351c-44.667 -90.667 -104 -150.667 -178 -180
c-66 -26 -142.333 -39 -229 -39h-289v184zM382.002 1300h135v-150h-135v150zM382.002 -150.001h135v-150h-135v150z" />
    <glyph glyph-name="uni06A3.medi" unicode="&#x6a3;" horiz-adv-x="932" 
d="M553 762c109.333 -53.333 171.332 -130 185.999 -230c4.66699 -33.333 7 -64 7 -92c0 -48.667 -6.33301 -89.334 -19 -122.001c-17.333 -44.667 -36.666 -83.667 -57.999 -117c23.333 -11.333 79 -17 167 -17h114v-184h-195c-81.333 0 -177.666 19 -288.999 57
c-110.667 -38 -207 -57 -289 -57h-195v184h114c88.667 0 144.667 5.66699 168 17c-17.333 26.667 -37 65.667 -59 117c-12.667 30.667 -19 71.334 -19 122.001c0 29.333 2.66699 60 8 92c13.333 95.333 75.666 172 186.999 230c18 9.33301 46.333 14 85 14
c38 0 67 -4.66699 87 -14zM465.999 592c-8.66699 0 -18.668 -3.33398 -30.001 -10.001c-33.333 -21.333 -57.333 -49.666 -72 -84.999c-5.33301 -14 -8 -30.667 -8 -50c0 -28.667 7 -60.667 21 -96c18.667 -45.333 48.334 -75.333 89.001 -90c38 14 67.667 44 89 90
c15.333 33.333 23 65.333 23 96c0 16 -3.33301 32.667 -10 50c-14 34.667 -38 63 -72 85c-11.333 6.66699 -21.333 10 -30 10zM398.998 1150h135v-150h-135v150zM381.998 -150.001h135v-150h-135v150z" />
    <glyph glyph-name="uni06A3.fina" unicode="&#x6a3;" horiz-adv-x="1908" 
d="M1490 36c-62 -28.667 -126 -51.001 -192 -67.001c-168 -40 -333.667 -60 -497 -60c-183.333 0.666992 -312.333 14 -387 40c-197.333 68.667 -296.333 190.334 -297 365.001c-0.666992 92 18.333 168.667 57 230h165c-38.667 -62.667 -58 -139.334 -58 -230.001
c0 -76.667 61 -140.667 183 -192c48 -20.667 162 -31 342 -31c138.667 0 293.667 18 465 54l25 4c-20.667 18 -39.667 41.667 -57 71c-48.667 82.667 -73 164.334 -73 245.001c0 20.667 1 43 3 67c13.333 103.333 76.333 180 189 230c34.667 15.333 67.667 23 99 23
c49.333 0 98.333 -16.667 147 -50c82 -55.333 128.333 -133 139 -233c2.66699 -24.667 4 -47 4 -67c0 -96 -24 -179.333 -72 -250c5.33301 -0.666992 10 -1 14 -1h237v-184h-241c-63.333 0 -128.333 12 -195 36zM1490 222.999c62.667 43.333 94.001 105.667 94.001 187
c0 13.333 -1.33301 29 -4 47c-8.66699 47.333 -28.667 84 -60 110c-20 16.667 -42 25 -66 25c-14.667 0 -28.667 -3.33301 -42 -10c-36.667 -16.667 -60.667 -45 -72 -85c-3.33301 -12.667 -5 -25 -5 -37c0 -37.333 12.333 -78 37 -122
c29.333 -52 68.666 -90.333 117.999 -115zM1372 1100h135v-150h-135v150zM788.001 -200h135v-150h-135v150z" />
    <glyph glyph-name="uni06A5.init" unicode="&#x6a5;" horiz-adv-x="881" 
d="M538 537c24.667 28.667 37.001 68.666 37.001 119.999c0 39.333 -19.667 76 -59 110c-18.667 16.667 -41.334 24.667 -68.001 24c-31.333 -0.666992 -59 -15 -83 -43c-24 -27.333 -36.333 -58 -37 -92c0 -53.333 16.667 -92.666 50 -117.999
c24 -16.667 48.667 -25 74 -25c43.333 0 72 8 86 24zM-17.999 183.999h217.001c50 0 120.333 7.66699 211 23c48 8 90 43 126 105c18 32 31.667 64.667 41 98c-38 -36.667 -86 -55.667 -144 -57c-78 -1.33301 -140.333 21 -187 67c-58.667 58 -88 130 -88 216
c0 34.667 2.33301 66.667 7 96c13.333 98.667 65 171 155 217c47.333 24 93.666 36 138.999 36c54 0 100.667 -16.667 140 -50c58 -48 100.667 -106 128 -174c14 -34 21 -97.667 21 -191c0 -138.667 -23.333 -255.667 -70 -351c-44.667 -90.667 -104 -150.667 -178 -180
c-66 -26 -142.333 -39 -229 -39h-289v184zM382.002 -400.001h136v-150h-136v150zM495.002 -150.001h135v-150h-135v150zM270.002 -150.001h135v-150h-135v150z" />
    <glyph glyph-name="uni06A5.medi" unicode="&#x6a5;" horiz-adv-x="932" 
d="M553 762c109.333 -53.333 171.332 -130 185.999 -230c4.66699 -33.333 7 -64 7 -92c0 -48.667 -6.33301 -89.334 -19 -122.001c-17.333 -44.667 -36.666 -83.667 -57.999 -117c23.333 -11.333 79 -17 167 -17h114v-184h-195c-81.333 0 -177.666 19 -288.999 57
c-110.667 -38 -207 -57 -289 -57h-195v184h114c88.667 0 144.667 5.66699 168 17c-17.333 26.667 -37 65.667 -59 117c-12.667 30.667 -19 71.334 -19 122.001c0 29.333 2.66699 60 8 92c13.333 95.333 75.666 172 186.999 230c18 9.33301 46.333 14 85 14
c38 0 67 -4.66699 87 -14zM465.999 592c-8.66699 0 -18.668 -3.33398 -30.001 -10.001c-33.333 -21.333 -57.333 -49.666 -72 -84.999c-5.33301 -14 -8 -30.667 -8 -50c0 -28.667 7 -60.667 21 -96c18.667 -45.333 48.334 -75.333 89.001 -90c38 14 67.667 44 89 90
c15.333 33.333 23 65.333 23 96c0 16 -3.33301 32.667 -10 50c-14 34.667 -38 63 -72 85c-11.333 6.66699 -21.333 10 -30 10zM381.998 -400.001h136v-150h-136v150zM494.998 -150.001h135v-150h-135v150zM269.998 -150.001h135v-150h-135v150z" />
    <glyph glyph-name="uni06A5.fina" unicode="&#x6a5;" horiz-adv-x="1908" 
d="M1490 36c-62 -28.667 -126 -51.001 -192 -67.001c-168 -40 -333.667 -60 -497 -60c-183.333 0.666992 -312.333 14 -387 40c-197.333 68.667 -296.333 190.334 -297 365.001c-0.666992 92 18.333 168.667 57 230h165c-38.667 -62.667 -58 -139.334 -58 -230.001
c0 -76.667 61 -140.667 183 -192c48 -20.667 162 -31 342 -31c138.667 0 293.667 18 465 54l25 4c-20.667 18 -39.667 41.667 -57 71c-48.667 82.667 -73 164.334 -73 245.001c0 20.667 1 43 3 67c13.333 103.333 76.333 180 189 230c34.667 15.333 67.667 23 99 23
c49.333 0 98.333 -16.667 147 -50c82 -55.333 128.333 -133 139 -233c2.66699 -24.667 4 -47 4 -67c0 -96 -24 -179.333 -72 -250c5.33301 -0.666992 10 -1 14 -1h237v-184h-241c-63.333 0 -128.333 12 -195 36zM1490 222.999c62.667 43.333 94.001 105.667 94.001 187
c0 13.333 -1.33301 29 -4 47c-8.66699 47.333 -28.667 84 -60 110c-20 16.667 -42 25 -66 25c-14.667 0 -28.667 -3.33301 -42 -10c-36.667 -16.667 -60.667 -45 -72 -85c-3.33301 -12.667 -5 -25 -5 -37c0 -37.333 12.333 -78 37 -122
c29.333 -52 68.666 -90.333 117.999 -115zM787.001 -450h136v-150h-136v150zM900.001 -200h135v-150h-135v150zM675.001 -200h135v-150h-135v150z" />
    <glyph glyph-name="uni06A7.init" unicode="&#x6a7;" horiz-adv-x="881" 
d="M538 537c24.667 28.667 37.001 68.666 37.001 119.999c0 39.333 -19.667 76 -59 110c-18.667 16.667 -41.334 24.667 -68.001 24c-31.333 -0.666992 -59 -15 -83 -43c-24 -27.333 -36.333 -58 -37 -92c0 -53.333 16.667 -92.666 50 -117.999
c24 -16.667 48.667 -25 74 -25c43.333 0 72 8 86 24zM-17.999 183.999h217.001c50 0 120.333 7.66699 211 23c48 8 90 43 126 105c18 32 31.667 64.667 41 98c-38 -36.667 -86 -55.667 -144 -57c-78 -1.33301 -140.333 21 -187 67c-58.667 58 -88 130 -88 216
c0 34.667 2.33301 66.667 7 96c13.333 98.667 65 171 155 217c47.333 24 93.666 36 138.999 36c54 0 100.667 -16.667 140 -50c58 -48 100.667 -106 128 -174c14 -34 21 -97.667 21 -191c0 -138.667 -23.333 -255.667 -70 -351c-44.667 -90.667 -104 -150.667 -178 -180
c-66 -26 -142.333 -39 -229 -39h-289v184zM382.002 1300h135v-150h-135v150z" />
    <glyph glyph-name="uni06A7.medi" unicode="&#x6a7;" horiz-adv-x="932" 
d="M553 762c109.333 -53.333 171.332 -130 185.999 -230c4.66699 -33.333 7 -64 7 -92c0 -48.667 -6.33301 -89.334 -19 -122.001c-17.333 -44.667 -36.666 -83.667 -57.999 -117c23.333 -11.333 79 -17 167 -17h114v-184h-195c-81.333 0 -177.666 19 -288.999 57
c-110.667 -38 -207 -57 -289 -57h-195v184h114c88.667 0 144.667 5.66699 168 17c-17.333 26.667 -37 65.667 -59 117c-12.667 30.667 -19 71.334 -19 122.001c0 29.333 2.66699 60 8 92c13.333 95.333 75.666 172 186.999 230c18 9.33301 46.333 14 85 14
c38 0 67 -4.66699 87 -14zM465.999 592c-8.66699 0 -18.668 -3.33398 -30.001 -10.001c-33.333 -21.333 -57.333 -49.666 -72 -84.999c-5.33301 -14 -8 -30.667 -8 -50c0 -28.667 7 -60.667 21 -96c18.667 -45.333 48.334 -75.333 89.001 -90c38 14 67.667 44 89 90
c15.333 33.333 23 65.333 23 96c0 16 -3.33301 32.667 -10 50c-14 34.667 -38 63 -72 85c-11.333 6.66699 -21.333 10 -30 10zM398.998 1150h135v-150h-135v150z" />
    <glyph glyph-name="uni06A7.fina" unicode="&#x6a7;" horiz-adv-x="1537" 
d="M1087 10c-39.333 3.33301 -72.999 9.33398 -100.999 18.001c-72 23.333 -125.333 49.333 -160 78c-88 72.667 -132 170.667 -132 294c0 40.667 1.66699 69.667 5 87c24 110 80.333 188 169 234c24 12.667 62.333 19 115 19c67.333 0 117.666 -16.667 150.999 -50
c59.333 -58.667 104 -136.334 134 -233.001c12 -38.667 20 -129.334 24 -272.001c15.333 -0.666992 24 -1 26 -1h237v-184h-241h-43c-26.667 -81.333 -58.667 -145.333 -96 -192c-76 -96.667 -161.667 -171 -257 -223c-105.333 -57.333 -219.333 -85.666 -342 -84.999
c-222 1.33301 -361.333 65.333 -418 192c-41.333 92 -62 179.667 -62 263c0 110.667 18.667 198 56 262h166c-37.333 -71.333 -56 -158.666 -56 -261.999c0 -50.667 8 -95.334 24 -134.001c36 -86.667 132.667 -130 290 -130c84 0 171 22.667 261 68
c128 65.333 211.333 149 250 251zM1126 203.001c2.66699 81.333 -2.66504 150.999 -15.998 208.999c-11.333 50 -31.333 86.667 -60 110c-20 16.667 -41.667 25 -65 25c-20.667 0 -37.334 -3.33301 -50.001 -10c-30.667 -18 -52.334 -46.333 -65.001 -85
c-6 -20 -9 -38.333 -9 -55c0 -40 17.333 -74.667 52 -104c45.333 -39.333 98 -65.666 158 -78.999c28 -6 46.333 -9.66699 55 -11zM922.002 1025h135v-150h-135v150z" />
    <glyph glyph-name="uni06A8.init" unicode="&#x6a8;" horiz-adv-x="881" 
d="M538 537c24.667 28.667 37.001 68.666 37.001 119.999c0 39.333 -19.667 76 -59 110c-18.667 16.667 -41.334 24.667 -68.001 24c-31.333 -0.666992 -59 -15 -83 -43c-24 -27.333 -36.333 -58 -37 -92c0 -53.333 16.667 -92.666 50 -117.999
c24 -16.667 48.667 -25 74 -25c43.333 0 72 8 86 24zM-17.999 183.999h217.001c50 0 120.333 7.66699 211 23c48 8 90 43 126 105c18 32 31.667 64.667 41 98c-38 -36.667 -86 -55.667 -144 -57c-78 -1.33301 -140.333 21 -187 67c-58.667 58 -88 130 -88 216
c0 34.667 2.33301 66.667 7 96c13.333 98.667 65 171 155 217c47.333 24 93.666 36 138.999 36c54 0 100.667 -16.667 140 -50c58 -48 100.667 -106 128 -174c14 -34 21 -97.667 21 -191c0 -138.667 -23.333 -255.667 -70 -351c-44.667 -90.667 -104 -150.667 -178 -180
c-66 -26 -142.333 -39 -229 -39h-289v184zM382.002 1550h136v-150h-136v150zM495.002 1300h135v-150h-135v150zM270.002 1300h135v-150h-135v150z" />
    <glyph glyph-name="uni06A8.medi" unicode="&#x6a8;" horiz-adv-x="932" 
d="M553 762c109.333 -53.333 171.332 -130 185.999 -230c4.66699 -33.333 7 -64 7 -92c0 -48.667 -6.33301 -89.334 -19 -122.001c-17.333 -44.667 -36.666 -83.667 -57.999 -117c23.333 -11.333 79 -17 167 -17h114v-184h-195c-81.333 0 -177.666 19 -288.999 57
c-110.667 -38 -207 -57 -289 -57h-195v184h114c88.667 0 144.667 5.66699 168 17c-17.333 26.667 -37 65.667 -59 117c-12.667 30.667 -19 71.334 -19 122.001c0 29.333 2.66699 60 8 92c13.333 95.333 75.666 172 186.999 230c18 9.33301 46.333 14 85 14
c38 0 67 -4.66699 87 -14zM465.999 592c-8.66699 0 -18.668 -3.33398 -30.001 -10.001c-33.333 -21.333 -57.333 -49.666 -72 -84.999c-5.33301 -14 -8 -30.667 -8 -50c0 -28.667 7 -60.667 21 -96c18.667 -45.333 48.334 -75.333 89.001 -90c38 14 67.667 44 89 90
c15.333 33.333 23 65.333 23 96c0 16 -3.33301 32.667 -10 50c-14 34.667 -38 63 -72 85c-11.333 6.66699 -21.333 10 -30 10zM397.998 1400h136v-150h-136v150zM510.998 1150h135v-150h-135v150zM285.998 1150h135v-150h-135v150z" />
    <glyph glyph-name="uni06A8.fina" unicode="&#x6a8;" horiz-adv-x="1537" 
d="M1087 10c-39.333 3.33301 -72.999 9.33398 -100.999 18.001c-72 23.333 -125.333 49.333 -160 78c-88 72.667 -132 170.667 -132 294c0 40.667 1.66699 69.667 5 87c24 110 80.333 188 169 234c24 12.667 62.333 19 115 19c67.333 0 117.666 -16.667 150.999 -50
c59.333 -58.667 104 -136.334 134 -233.001c12 -38.667 20 -129.334 24 -272.001c15.333 -0.666992 24 -1 26 -1h237v-184h-241h-43c-26.667 -81.333 -58.667 -145.333 -96 -192c-76 -96.667 -161.667 -171 -257 -223c-105.333 -57.333 -219.333 -85.666 -342 -84.999
c-222 1.33301 -361.333 65.333 -418 192c-41.333 92 -62 179.667 -62 263c0 110.667 18.667 198 56 262h166c-37.333 -71.333 -56 -158.666 -56 -261.999c0 -50.667 8 -95.334 24 -134.001c36 -86.667 132.667 -130 290 -130c84 0 171 22.667 261 68
c128 65.333 211.333 149 250 251zM1126 203.001c2.66699 81.333 -2.66504 150.999 -15.998 208.999c-11.333 50 -31.333 86.667 -60 110c-20 16.667 -41.667 25 -65 25c-20.667 0 -37.334 -3.33301 -50.001 -10c-30.667 -18 -52.334 -46.333 -65.001 -85
c-6 -20 -9 -38.333 -9 -55c0 -40 17.333 -74.667 52 -104c45.333 -39.333 98 -65.666 158 -78.999c28 -6 46.333 -9.66699 55 -11zM922.002 1275h136v-150h-136v150zM1035 1025h135v-150h-135v150zM810.002 1025h135v-150h-135v150z" />
    <glyph glyph-name="uni06AA.init" unicode="&#x6aa;" horiz-adv-x="1600" 
d="M-18 0v183.998h1159c88.667 0 146.667 34.667 174 104c11.333 29.333 16 53.333 14 72c-7.33301 73.333 -41 115 -101 125l-841 145c-212.667 36.667 -319 118.334 -319 245.001v8c0 3.33301 3 25.666 9 66.999c10.667 65.333 64.334 130.333 161.001 195l620 411h316
l-828 -536c-56.667 -36.667 -89.334 -66.667 -98.001 -90c-6 -6.66699 -7.66699 -21.667 -5 -45c3.33301 -35.333 57.333 -62 162 -80l873 -150c148.667 -25.333 223 -120.666 223 -285.999c0 -75.333 -18.667 -146.666 -56 -213.999c-56.667 -103.333 -152 -155 -286 -155
h-1177z" />
    <glyph glyph-name="uni06AA.medi" unicode="&#x6aa;" horiz-adv-x="1600" 
d="M-18 0l0.000976562 183.997h1159c82 0 140 34.667 174 104c9.33301 19.333 14 37 14 53c0 84.667 -33.667 132.667 -101 144l-841 145c-212.667 36.667 -319 118.334 -319 245.001v8c0 2.66699 3 25 9 67c10.667 65.333 64.334 130.333 161.001 195l620 411h316
l-828 -536c-56.667 -36.667 -89.334 -66.667 -98.001 -90c-6 -6.66699 -7.66699 -21.667 -5 -45c3.33301 -35.333 57.333 -62 162 -80l873 -150c148.667 -25.333 223 -120.666 223 -285.999v-69c0 -63.333 14.333 -100.333 43 -111c8.66699 -3.33301 19.667 -5 33 -5h41
v-184h-81c-54 0 -89.333 7.83301 -106 23.5s-28.334 36.834 -35.001 63.501c-57.333 -58 -136.333 -87 -237 -87h-1177z" />
    <glyph glyph-name="uni06AA.fina" unicode="&#x6aa;" horiz-adv-x="1942" 
d="M1143 88c110.667 0 220.333 24.999 329 74.999s170.334 93 185.001 129s22 55.667 22 59v9c0 71.333 -36.333 113 -109 125l-841 145c-212.667 36.667 -319 118.334 -319 245.001v7c0 4 3 26.667 9 68c11.333 66 65 131 161 195l620 411h316l-828 -536
c-56.667 -36.667 -89.334 -66.667 -98.001 -90c-6 -6.66699 -7.66699 -21.667 -5 -45c3.33301 -35.333 57.333 -62 162 -80l873 -150c148.667 -25.333 223 -120.666 223 -285.999v-69c0 -62.667 14.333 -99.667 43 -111c8.66699 -3.33301 19.667 -5 33 -5h41v-184h-81
c-55.333 0 -91.5 8.33301 -108.5 25s-28.833 41 -35.5 73c-50 -38 -135.5 -78.667 -256.5 -122s-229.833 -65 -326.5 -65h-450c-115.333 0 -211.333 12.667 -288 38c-198 65.333 -297 187 -297 365c0 92 19 168.667 57 230h165c-38.667 -62.667 -58 -139.334 -58 -230.001
c0 -84 61 -148 183 -192c62 -22.667 138.333 -34 229 -34h450z" />
    <glyph glyph-name="uni06AB.init" unicode="&#x6ab;" horiz-adv-x="877" 
d="M279 0l-296.999 -0.00195312v184h279c88.667 0 146.667 34.667 174 104c9.33301 24 14 48 14 72c0 46 -16.333 91 -49 135l-278 380c-30.667 40.667 -46 88 -46 142c0 23.333 3.33301 46 10 68c18 78.667 58.333 132.334 121 161.001l671 310v-186l-536 -250
c-42.667 -20 -70.334 -43.333 -83.001 -70c-3.33301 -7.33301 -5 -19.333 -5 -36c0 -21.333 9.33301 -44.333 28 -69l247 -330c61.333 -82 92 -164 92 -246c0 -75.333 -18.667 -146.666 -56 -213.999c-56.667 -103.333 -152 -155 -286 -155zM734.001 1120
c0 26.667 -8.33301 49.333 -25 68c-16.667 19.333 -37.334 29 -62.001 29s-45.334 -9.33301 -62.001 -28s-25 -41.667 -25 -69c0 -28 8.33301 -51.333 25 -70c16.667 -18 37.334 -27 62.001 -27s45.334 9.33301 62.001 28s25 41.667 25 69zM844.001 1120
c0 -61.333 -18.667 -113.333 -56 -156c-38.667 -42.667 -85.667 -64 -141 -64s-101.666 21.333 -138.999 64c-38.667 42.667 -58 94.667 -58 156s19.333 113.333 58 156c37.333 42 83.666 63 138.999 63s102.333 -21 141 -63c37.333 -42.667 56 -94.667 56 -156z" />
    <glyph glyph-name="uni06AB.medi" unicode="&#x6ab;" horiz-adv-x="1017" 
d="M279 0l-296.998 -0.00195312v184h279c88.667 0 146.667 34.667 174 104c9.33301 24 14 48 14 72c0 46 -16.333 91 -49 135l-278 380c-30.667 40.667 -46 88 -46 142c0 23.333 3.33301 46 10 68c18 78.667 58.333 132.334 121 161.001l671 310v-186l-536 -250
c-42.667 -20 -70.334 -43.333 -83.001 -70c-3.33301 -7.33301 -5 -19.333 -5 -36c0 -21.333 9.33301 -44.333 28 -69l524 -705c13.333 -17.333 31.333 -30.666 54 -39.999c26 -10.667 58.333 -16 97 -16h79v-184h-119c-38.667 0 -75.667 8 -111 24
c-61.333 28.667 -102 56.667 -122 84l-87 120c-12.667 -30.667 -24.334 -55 -35.001 -73c-56.667 -103.333 -151 -155 -283 -155zM734.002 1120c0 26.667 -8.33301 49.333 -25 68c-16.667 19.333 -37.334 29 -62.001 29s-45.334 -9.33301 -62.001 -28s-25 -41.667 -25 -69
c0 -28 8.33301 -51.333 25 -70c16.667 -18 37.334 -27 62.001 -27s45.334 9.33301 62.001 28s25 41.667 25 69zM844.002 1120c0 -61.333 -18.667 -113.333 -56 -156c-38.667 -42.667 -85.667 -64 -141 -64s-101.666 21.333 -138.999 64c-38.667 42.667 -58 94.667 -58 156
s19.333 113.333 58 156c37.333 42 83.666 63 138.999 63s102.333 -21 141 -63c37.333 -42.667 56 -94.667 56 -156z" />
    <glyph glyph-name="uni06AB.fina" unicode="&#x6ab;" horiz-adv-x="1649" 
d="M1292 120c-59.333 -50.667 -139.665 -96 -240.998 -136c-122.667 -48.667 -239 -73 -349 -73c-115.333 0 -211.333 12.667 -288 38c-198 65.333 -297 187 -297 365c0 92 19 168.667 57 230h165c-38.667 -62.667 -58 -139.334 -58 -230.001c0 -84 61 -148 183 -192
c62 -22.667 138.333 -34 229 -34c110.667 0 224 26.667 340 80c94.667 43.333 152.667 83.333 174 120c9.33301 17.333 14 41.333 14 72c0 46 -16 91 -48 135l-279 380c-30 40.667 -45 88 -45 142c0 23.333 3 46 9 68c20.667 79.333 61 133 121 161l671 310v-186l-536 -250
c-42.667 -20 -70.334 -43.333 -83.001 -70c-3.33301 -7.33301 -5 -19.333 -5 -36c0 -21.333 9.33301 -44.333 28 -69l525 -705c12.667 -17.333 30.667 -30.666 54 -39.999c25.333 -10.667 57.333 -16 96 -16h79v-184h-119c-38.667 0 -75.334 8 -110.001 24
c-62 28.667 -103 56.667 -123 84l-87 120c-15.333 -42.667 -41 -78.667 -77 -108zM1499 1120c0 26.667 -8.33301 49.333 -25 68c-16.667 19.333 -37.334 29 -62.001 29s-45.334 -9.33301 -62.001 -28s-25 -41.667 -25 -69c0 -28 8.33301 -51.333 25 -70
c16.667 -18 37.334 -27 62.001 -27s45.334 9.33301 62.001 28s25 41.667 25 69zM1609 1120c0 -61.333 -18.667 -113.333 -56 -156c-38.667 -42.667 -85.667 -64 -141 -64s-101.666 21.333 -138.999 64c-38.667 42.667 -58 94.667 -58 156s19.333 113.333 58 156
c37.333 42 83.666 63 138.999 63s102.333 -21 141 -63c37.333 -42.667 56 -94.667 56 -156z" />
    <glyph glyph-name="uni06AC.init" unicode="&#x6ac;" horiz-adv-x="877" 
d="M279 0l-296.999 -0.00195312v184h279c88.667 0 146.667 34.667 174 104c9.33301 24 14 48 14 72c0 46 -16.333 91 -49 135l-278 380c-30.667 40.667 -46 88 -46 142c0 23.333 3.33301 46 10 68c18 78.667 58.333 132.334 121 161.001l671 310v-186l-536 -250
c-42.667 -20 -70.334 -43.333 -83.001 -70c-3.33301 -7.33301 -5 -19.333 -5 -36c0 -21.333 9.33301 -44.333 28 -69l247 -330c61.333 -82 92 -164 92 -246c0 -75.333 -18.667 -146.666 -56 -213.999c-56.667 -103.333 -152 -155 -286 -155zM180.001 1650h135v-150h-135v150
z" />
    <glyph glyph-name="uni06AC.medi" unicode="&#x6ac;" horiz-adv-x="1017" 
d="M279 0l-296.998 -0.00195312v184h279c88.667 0 146.667 34.667 174 104c9.33301 24 14 48 14 72c0 46 -16.333 91 -49 135l-278 380c-30.667 40.667 -46 88 -46 142c0 23.333 3.33301 46 10 68c18 78.667 58.333 132.334 121 161.001l671 310v-186l-536 -250
c-42.667 -20 -70.334 -43.333 -83.001 -70c-3.33301 -7.33301 -5 -19.333 -5 -36c0 -21.333 9.33301 -44.333 28 -69l524 -705c13.333 -17.333 31.333 -30.666 54 -39.999c26 -10.667 58.333 -16 97 -16h79v-184h-119c-38.667 0 -75.667 8 -111 24
c-61.333 28.667 -102 56.667 -122 84l-87 120c-12.667 -30.667 -24.334 -55 -35.001 -73c-56.667 -103.333 -151 -155 -283 -155zM180.002 1650h135v-150h-135v150z" />
    <glyph glyph-name="uni06AC.fina" unicode="&#x6ac;" horiz-adv-x="1553" 
d="M878 1135v-82c-44 -2.66699 -77.333 -8.66699 -100 -18c-48 -20 -72 -41 -72 -63c0 -18.667 4 -34 12 -46c7.33301 -10.667 31.333 -19.334 72 -26.001c61.333 -10 92 -44.333 92 -103c0 -73.333 -26.333 -124 -79 -152c-49.333 -26 -97.333 -39 -144 -39
c-40 0 -76.667 3.66699 -110 11v88c40.667 -6.66699 74.667 -10 102 -10c36 0 71 8.66699 105 26c36 17.333 54 36 54 56c0 25.333 -23.333 43.666 -70 54.999c-44.667 10.667 -72.334 25.334 -83.001 44.001c-19.333 31.333 -28.666 62.333 -27.999 93
c1.33301 54 24.333 93.667 69 119c51.333 28.667 111.333 44.334 180 47.001zM899 -37c-65.333 -13.333 -141.667 -19.332 -229 -17.999c-124 1.33301 -216.333 12 -277 32c-175.333 58.667 -263 153 -263 283c0 50 4.66699 92.667 14 128h166
c-8.66699 -38.667 -13 -72.667 -13 -102c1.33301 -61.333 50 -107.333 146 -138c72.667 -23.333 147 -35 223 -35c84 0 152.667 9 206 27c91.333 31.333 166.333 78.333 225 141c46 48.667 69 158.667 69 330v945h165v-1173c0 -70.667 14.667 -122.334 44 -155.001
c26.667 -29.333 69.667 -44 129 -44h67v-184h-117c-91.333 0 -171 41 -239 123c-94.667 -84 -200 -137.333 -316 -160zM674.999 1500h135v-150h-135v150z" />
    <glyph glyph-name="uni06AE.init" unicode="&#x6ae;" horiz-adv-x="877" 
d="M279 0l-296.999 -0.00195312v184h279c88.667 0 146.667 34.667 174 104c9.33301 24 14 48 14 72c0 46 -16.333 91 -49 135l-278 380c-30.667 40.667 -46 88 -46 142c0 23.333 3.33301 46 10 68c18 78.667 58.333 132.334 121 161.001l671 310v-186l-536 -250
c-42.667 -20 -70.334 -43.333 -83.001 -70c-3.33301 -7.33301 -5 -19.333 -5 -36c0 -21.333 9.33301 -44.333 28 -69l247 -330c61.333 -82 92 -164 92 -246c0 -75.333 -18.667 -146.666 -56 -213.999c-56.667 -103.333 -152 -155 -286 -155zM292.001 -400.002h136v-150h-136
v150zM405.001 -150.002h135v-150h-135v150zM180.001 -150.002h135v-150h-135v150z" />
    <glyph glyph-name="uni06AE.medi" unicode="&#x6ae;" horiz-adv-x="1017" 
d="M279 0l-296.998 -0.00195312v184h279c88.667 0 146.667 34.667 174 104c9.33301 24 14 48 14 72c0 46 -16.333 91 -49 135l-278 380c-30.667 40.667 -46 88 -46 142c0 23.333 3.33301 46 10 68c18 78.667 58.333 132.334 121 161.001l671 310v-186l-536 -250
c-42.667 -20 -70.334 -43.333 -83.001 -70c-3.33301 -7.33301 -5 -19.333 -5 -36c0 -21.333 9.33301 -44.333 28 -69l524 -705c13.333 -17.333 31.333 -30.666 54 -39.999c26 -10.667 58.333 -16 97 -16h79v-184h-119c-38.667 0 -75.667 8 -111 24
c-61.333 28.667 -102 56.667 -122 84l-87 120c-12.667 -30.667 -24.334 -55 -35.001 -73c-56.667 -103.333 -151 -155 -283 -155zM292.002 -400.002h136v-150h-136v150zM405.002 -150.002h135v-150h-135v150zM180.002 -150.002h135v-150h-135v150z" />
    <glyph glyph-name="uni06AE.fina" unicode="&#x6ae;" horiz-adv-x="1553" 
d="M878 1135v-82c-44 -2.66699 -77.333 -8.66699 -100 -18c-48 -20 -72 -41 -72 -63c0 -18.667 4 -34 12 -46c7.33301 -10.667 31.333 -19.334 72 -26.001c61.333 -10 92 -44.333 92 -103c0 -73.333 -26.333 -124 -79 -152c-49.333 -26 -97.333 -39 -144 -39
c-40 0 -76.667 3.66699 -110 11v88c40.667 -6.66699 74.667 -10 102 -10c36 0 71 8.66699 105 26c36 17.333 54 36 54 56c0 25.333 -23.333 43.666 -70 54.999c-44.667 10.667 -72.334 25.334 -83.001 44.001c-19.333 31.333 -28.666 62.333 -27.999 93
c1.33301 54 24.333 93.667 69 119c51.333 28.667 111.333 44.334 180 47.001zM899 -37c-65.333 -13.333 -141.667 -19.332 -229 -17.999c-124 1.33301 -216.333 12 -277 32c-175.333 58.667 -263 153 -263 283c0 50 4.66699 92.667 14 128h166
c-8.66699 -38.667 -13 -72.667 -13 -102c1.33301 -61.333 50 -107.333 146 -138c72.667 -23.333 147 -35 223 -35c84 0 152.667 9 206 27c91.333 31.333 166.333 78.333 225 141c46 48.667 69 158.667 69 330v945h165v-1173c0 -70.667 14.667 -122.334 44 -155.001
c26.667 -29.333 69.667 -44 129 -44h67v-184h-117c-91.333 0 -171 41 -239 123c-94.667 -84 -200 -137.333 -316 -160zM651.999 -449.999h136v-150h-136v150zM764.999 -199.999h135v-150h-135v150zM539.999 -199.999h135v-150h-135v150z" />
    <glyph glyph-name="uni06B0.init" unicode="&#x6b0;" horiz-adv-x="877" 
d="M279 0l-296.999 -0.00195312v184h279c88.667 0 146.667 34.667 174 104c9.33301 24 14 48 14 72c0 46 -16.333 91 -49 135l-278 380c-30.667 40.667 -46 88 -46 142c0 23.333 3.33301 46 10 68c18 78.667 58.333 132.334 121 161.001l671 310v-186l-536 -250
c-42.667 -20 -70.334 -43.333 -83.001 -70c-3.33301 -7.33301 -5 -19.333 -5 -36c0 -21.333 9.33301 -44.333 28 -69l247 -330c61.333 -82 92 -164 92 -246c0 -75.333 -18.667 -146.666 -56 -213.999c-56.667 -103.333 -152 -155 -286 -155zM878.001 1685l-777 -354v150
l777 354v-150zM734.001 1120c0 26.667 -8.33301 49.333 -25 68c-16.667 19.333 -37.334 29 -62.001 29s-45.334 -9.33301 -62.001 -28s-25 -41.667 -25 -69c0 -28 8.33301 -51.333 25 -70c16.667 -18 37.334 -27 62.001 -27s45.334 9.33301 62.001 28s25 41.667 25 69z
M844.001 1120c0 -61.333 -18.667 -113.333 -56 -156c-38.667 -42.667 -85.667 -64 -141 -64s-101.666 21.333 -138.999 64c-38.667 42.667 -58 94.667 -58 156s19.333 113.333 58 156c37.333 42 83.666 63 138.999 63s102.333 -21 141 -63
c37.333 -42.667 56 -94.667 56 -156z" />
    <glyph glyph-name="uni06B0.medi" unicode="&#x6b0;" horiz-adv-x="1017" 
d="M279 0l-296.998 -0.00195312v184h279c88.667 0 146.667 34.667 174 104c9.33301 24 14 48 14 72c0 46 -16.333 91 -49 135l-278 380c-30.667 40.667 -46 88 -46 142c0 23.333 3.33301 46 10 68c18 78.667 58.333 132.334 121 161.001l671 310v-186l-536 -250
c-42.667 -20 -70.334 -43.333 -83.001 -70c-3.33301 -7.33301 -5 -19.333 -5 -36c0 -21.333 9.33301 -44.333 28 -69l524 -705c13.333 -17.333 31.333 -30.666 54 -39.999c26 -10.667 58.333 -16 97 -16h79v-184h-119c-38.667 0 -75.667 8 -111 24
c-61.333 28.667 -102 56.667 -122 84l-87 120c-12.667 -30.667 -24.334 -55 -35.001 -73c-56.667 -103.333 -151 -155 -283 -155zM878.002 1685l-777 -354v150l777 354v-150zM734.002 1120c0 26.667 -8.33301 49.333 -25 68c-16.667 19.333 -37.334 29 -62.001 29
s-45.334 -9.33301 -62.001 -28s-25 -41.667 -25 -69c0 -28 8.33301 -51.333 25 -70c16.667 -18 37.334 -27 62.001 -27s45.334 9.33301 62.001 28s25 41.667 25 69zM844.002 1120c0 -61.333 -18.667 -113.333 -56 -156c-38.667 -42.667 -85.667 -64 -141 -64
s-101.666 21.333 -138.999 64c-38.667 42.667 -58 94.667 -58 156s19.333 113.333 58 156c37.333 42 83.666 63 138.999 63s102.333 -21 141 -63c37.333 -42.667 56 -94.667 56 -156z" />
    <glyph glyph-name="uni06B0.fina" unicode="&#x6b0;" horiz-adv-x="1649" 
d="M1292 120c-59.333 -50.667 -139.665 -96 -240.998 -136c-122.667 -48.667 -239 -73 -349 -73c-115.333 0 -211.333 12.667 -288 38c-198 65.333 -297 187 -297 365c0 92 19 168.667 57 230h165c-38.667 -62.667 -58 -139.334 -58 -230.001c0 -84 61 -148 183 -192
c62 -22.667 138.333 -34 229 -34c110.667 0 224 26.667 340 80c94.667 43.333 152.667 83.333 174 120c9.33301 17.333 14 41.333 14 72c0 46 -16 91 -48 135l-279 380c-30 40.667 -45 88 -45 142c0 23.333 3 46 9 68c20.667 79.333 61 133 121 161l671 310v-186l-536 -250
c-42.667 -20 -70.334 -43.333 -83.001 -70c-3.33301 -7.33301 -5 -19.333 -5 -36c0 -21.333 9.33301 -44.333 28 -69l525 -705c12.667 -17.333 30.667 -30.666 54 -39.999c25.333 -10.667 57.333 -16 96 -16h79v-184h-119c-38.667 0 -75.334 8 -110.001 24
c-62 28.667 -103 56.667 -123 84l-87 120c-15.333 -42.667 -41 -78.667 -77 -108zM1650 1685l-777 -354v150l777 354v-150zM1499 1120c0 26.667 -8.33301 49.333 -25 68c-16.667 19.333 -37.334 29 -62.001 29s-45.334 -9.33301 -62.001 -28s-25 -41.667 -25 -69
c0 -28 8.33301 -51.333 25 -70c16.667 -18 37.334 -27 62.001 -27s45.334 9.33301 62.001 28s25 41.667 25 69zM1609 1120c0 -61.333 -18.667 -113.333 -56 -156c-38.667 -42.667 -85.667 -64 -141 -64s-101.666 21.333 -138.999 64c-38.667 42.667 -58 94.667 -58 156
s19.333 113.333 58 156c37.333 42 83.666 63 138.999 63s102.333 -21 141 -63c37.333 -42.667 56 -94.667 56 -156z" />
    <glyph glyph-name="uni06B2.init" unicode="&#x6b2;" horiz-adv-x="877" 
d="M279 0l-296.999 -0.00195312v184h279c88.667 0 146.667 34.667 174 104c9.33301 24 14 48 14 72c0 46 -16.333 91 -49 135l-278 380c-30.667 40.667 -46 88 -46 142c0 23.333 3.33301 46 10 68c18 78.667 58.333 132.334 121 161.001l671 310v-186l-536 -250
c-42.667 -20 -70.334 -43.333 -83.001 -70c-3.33301 -7.33301 -5 -19.333 -5 -36c0 -21.333 9.33301 -44.333 28 -69l247 -330c61.333 -82 92 -164 92 -246c0 -75.333 -18.667 -146.666 -56 -213.999c-56.667 -103.333 -152 -155 -286 -155zM878.001 1685l-777 -354v150
l777 354v-150zM405.001 -150.002h135v-150h-135v150zM180.001 -150.002h135v-150h-135v150z" />
    <glyph glyph-name="uni06B2.medi" unicode="&#x6b2;" horiz-adv-x="1017" 
d="M279 0l-296.998 -0.00195312v184h279c88.667 0 146.667 34.667 174 104c9.33301 24 14 48 14 72c0 46 -16.333 91 -49 135l-278 380c-30.667 40.667 -46 88 -46 142c0 23.333 3.33301 46 10 68c18 78.667 58.333 132.334 121 161.001l671 310v-186l-536 -250
c-42.667 -20 -70.334 -43.333 -83.001 -70c-3.33301 -7.33301 -5 -19.333 -5 -36c0 -21.333 9.33301 -44.333 28 -69l524 -705c13.333 -17.333 31.333 -30.666 54 -39.999c26 -10.667 58.333 -16 97 -16h79v-184h-119c-38.667 0 -75.667 8 -111 24
c-61.333 28.667 -102 56.667 -122 84l-87 120c-12.667 -30.667 -24.334 -55 -35.001 -73c-56.667 -103.333 -151 -155 -283 -155zM878.002 1685l-777 -354v150l777 354v-150zM405.002 -150.002h135v-150h-135v150zM180.002 -150.002h135v-150h-135v150z" />
    <glyph glyph-name="uni06B2.fina" unicode="&#x6b2;" horiz-adv-x="1649" 
d="M1292 120c-59.333 -50.667 -139.665 -96 -240.998 -136c-122.667 -48.667 -239 -73 -349 -73c-115.333 0 -211.333 12.667 -288 38c-198 65.333 -297 187 -297 365c0 92 19 168.667 57 230h165c-38.667 -62.667 -58 -139.334 -58 -230.001c0 -84 61 -148 183 -192
c62 -22.667 138.333 -34 229 -34c110.667 0 224 26.667 340 80c94.667 43.333 152.667 83.333 174 120c9.33301 17.333 14 41.333 14 72c0 46 -16 91 -48 135l-279 380c-30 40.667 -45 88 -45 142c0 23.333 3 46 9 68c20.667 79.333 61 133 121 161l671 310v-186l-536 -250
c-42.667 -20 -70.334 -43.333 -83.001 -70c-3.33301 -7.33301 -5 -19.333 -5 -36c0 -21.333 9.33301 -44.333 28 -69l525 -705c12.667 -17.333 30.667 -30.666 54 -39.999c25.333 -10.667 57.333 -16 96 -16h79v-184h-119c-38.667 0 -75.334 8 -110.001 24
c-62 28.667 -103 56.667 -123 84l-87 120c-15.333 -42.667 -41 -78.667 -77 -108zM1650 1685l-777 -354v150l777 354v-150zM765.001 -200h135v-150h-135v150zM540.001 -200h135v-150h-135v150z" />
    <glyph glyph-name="uni06B4.init" unicode="&#x6b4;" horiz-adv-x="877" 
d="M279 0l-296.999 -0.00195312v184h279c88.667 0 146.667 34.667 174 104c9.33301 24 14 48 14 72c0 46 -16.333 91 -49 135l-278 380c-30.667 40.667 -46 88 -46 142c0 23.333 3.33301 46 10 68c18 78.667 58.333 132.334 121 161.001l671 310v-186l-536 -250
c-42.667 -20 -70.334 -43.333 -83.001 -70c-3.33301 -7.33301 -5 -19.333 -5 -36c0 -21.333 9.33301 -44.333 28 -69l247 -330c61.333 -82 92 -164 92 -246c0 -75.333 -18.667 -146.666 -56 -213.999c-56.667 -103.333 -152 -155 -286 -155zM878.001 1685l-777 -354v150
l777 354v-150zM180.001 2100h136v-150h-136v150zM293.001 1850h135v-150h-135v150zM68.001 1850h135v-150h-135v150z" />
    <glyph glyph-name="uni06B4.medi" unicode="&#x6b4;" horiz-adv-x="1017" 
d="M279 0l-296.998 -0.00195312v184h279c88.667 0 146.667 34.667 174 104c9.33301 24 14 48 14 72c0 46 -16.333 91 -49 135l-278 380c-30.667 40.667 -46 88 -46 142c0 23.333 3.33301 46 10 68c18 78.667 58.333 132.334 121 161.001l671 310v-186l-536 -250
c-42.667 -20 -70.334 -43.333 -83.001 -70c-3.33301 -7.33301 -5 -19.333 -5 -36c0 -21.333 9.33301 -44.333 28 -69l524 -705c13.333 -17.333 31.333 -30.666 54 -39.999c26 -10.667 58.333 -16 97 -16h79v-184h-119c-38.667 0 -75.667 8 -111 24
c-61.333 28.667 -102 56.667 -122 84l-87 120c-12.667 -30.667 -24.334 -55 -35.001 -73c-56.667 -103.333 -151 -155 -283 -155zM878.002 1685l-777 -354v150l777 354v-150zM180.002 2100h136v-150h-136v150zM293.002 1850h135v-150h-135v150zM68.002 1850h135v-150h-135
v150z" />
    <glyph glyph-name="uni06B4.fina" unicode="&#x6b4;" horiz-adv-x="1649" 
d="M1292 120c-59.333 -50.667 -139.665 -96 -240.998 -136c-122.667 -48.667 -239 -73 -349 -73c-115.333 0 -211.333 12.667 -288 38c-198 65.333 -297 187 -297 365c0 92 19 168.667 57 230h165c-38.667 -62.667 -58 -139.334 -58 -230.001c0 -84 61 -148 183 -192
c62 -22.667 138.333 -34 229 -34c110.667 0 224 26.667 340 80c94.667 43.333 152.667 83.333 174 120c9.33301 17.333 14 41.333 14 72c0 46 -16 91 -48 135l-279 380c-30 40.667 -45 88 -45 142c0 23.333 3 46 9 68c20.667 79.333 61 133 121 161l671 310v-186l-536 -250
c-42.667 -20 -70.334 -43.333 -83.001 -70c-3.33301 -7.33301 -5 -19.333 -5 -36c0 -21.333 9.33301 -44.333 28 -69l525 -705c12.667 -17.333 30.667 -30.666 54 -39.999c25.333 -10.667 57.333 -16 96 -16h79v-184h-119c-38.667 0 -75.334 8 -110.001 24
c-62 28.667 -103 56.667 -123 84l-87 120c-15.333 -42.667 -41 -78.667 -77 -108zM1650 1685l-777 -354v150l777 354v-150zM922.001 2100h136v-150h-136v150zM1035 1850h135v-150h-135v150zM810.001 1850h135v-150h-135v150z" />
    <glyph glyph-name="uni06B5.init" unicode="&#x6b5;" horiz-adv-x="561" 
d="M238 1662l-175 326h125l117 -195l117 195h125l-176 -326h-133zM388 371c0 -118.667 -26 -211.668 -78 -279.001c-48 -61.333 -118.333 -92 -211 -92h-117v184h68c59.333 0 102 14.667 128 44c29.333 32.667 44 84.334 44 155.001v1173h166v-1185z" />
    <glyph glyph-name="uni06B5.medi" unicode="&#x6b5;" horiz-adv-x="610" 
d="M238 1662l-175 326h125l117 -195l117 195h125l-176 -326h-133zM305 86c-46 -57.333 -114.667 -86 -206 -86h-117v184h68c59.333 0 102 14.667 128 44c29.333 32.667 44 84.334 44 155.001v1173h166v-1173c0 -70.667 14.667 -122.334 44 -155.001
c26.667 -29.333 69.667 -44 129 -44h67v-184h-117c-90 0 -158.667 28.667 -206 86z" />
    <glyph glyph-name="uni06B5.fina" unicode="&#x6b5;" horiz-adv-x="1395" 
d="M1024 1662l-175 326h125l117 -195l117 195h125l-176 -326h-133zM938 73c46.667 84 70 201.67 70 353.003v1130h166v-1173c0 -70.667 14.667 -122.334 44 -155.001c26 -29.333 68.667 -44 128 -44h68v-184h-117c-67.333 0 -124.333 17 -171 51
c-10.667 -30.667 -24.334 -59.334 -41.001 -86.001c-72.667 -118 -187 -199 -343 -243c-80.667 -22.667 -146.667 -34 -198 -34c-59.333 0 -109.666 7.33301 -150.999 22c-175.333 60.667 -263 182.334 -263 365.001c-0.666992 92 18 168.667 56 230h166
c-39.333 -76.667 -59 -153.334 -59 -230.001c0 -84 50 -148 150 -192c24 -10.667 57.667 -16 101 -16c48 0 105 11.333 171 34c104 35.333 178.333 92.666 223 171.999z" />
    <glyph glyph-name="uni06B6.init" unicode="&#x6b6;" horiz-adv-x="561" 
d="M388 371c0 -118.667 -26 -211.668 -78 -279.001c-48 -61.333 -118.333 -92 -211 -92h-117v184h68c59.333 0 102 14.667 128 44c29.333 32.667 44 84.334 44 155.001v1173h166v-1185zM231 1950h135v-150h-135v150z" />
    <glyph glyph-name="uni06B6.medi" unicode="&#x6b6;" horiz-adv-x="610" 
d="M305 86c-46 -57.333 -114.667 -86 -206 -86h-117v184h68c59.333 0 102 14.667 128 44c29.333 32.667 44 84.334 44 155.001v1173h166v-1173c0 -70.667 14.667 -122.334 44 -155.001c26.667 -29.333 69.667 -44 129 -44h67v-184h-117c-90 0 -158.667 28.667 -206 86z
M231 1950h135v-150h-135v150z" />
    <glyph glyph-name="uni06B6.fina" unicode="&#x6b6;" horiz-adv-x="1395" 
d="M938 73c46.667 84 70 201.67 70 353.003v1130h166v-1173c0 -70.667 14.667 -122.334 44 -155.001c26 -29.333 68.667 -44 128 -44h68v-184h-117c-67.333 0 -124.333 17 -171 51c-10.667 -30.667 -24.334 -59.334 -41.001 -86.001c-72.667 -118 -187 -199 -343 -243
c-80.667 -22.667 -146.667 -34 -198 -34c-59.333 0 -109.666 7.33301 -150.999 22c-175.333 60.667 -263 182.334 -263 365.001c-0.666992 92 18 168.667 56 230h166c-39.333 -76.667 -59 -153.334 -59 -230.001c0 -84 50 -148 150 -192c24 -10.667 57.667 -16 101 -16
c48 0 105 11.333 171 34c104 35.333 178.333 92.666 223 171.999zM1017 1950h135v-150h-135v150z" />
    <glyph glyph-name="uni06B7.init" unicode="&#x6b7;" horiz-adv-x="561" 
d="M388 371c0 -118.667 -26 -211.668 -78 -279.001c-48 -61.333 -118.333 -92 -211 -92h-117v184h68c59.333 0 102 14.667 128 44c29.333 32.667 44 84.334 44 155.001v1173h166v-1185zM226 2100h136v-150h-136v150zM339 1850h135v-150h-135v150zM114 1850h135v-150h-135
v150z" />
    <glyph glyph-name="uni06B7.medi" unicode="&#x6b7;" horiz-adv-x="610" 
d="M305 86c-46 -57.333 -114.667 -86 -206 -86h-117v184h68c59.333 0 102 14.667 128 44c29.333 32.667 44 84.334 44 155.001v1173h166v-1173c0 -70.667 14.667 -122.334 44 -155.001c26.667 -29.333 69.667 -44 129 -44h67v-184h-117c-90 0 -158.667 28.667 -206 86z
M226 2100h136v-150h-136v150zM339 1850h135v-150h-135v150zM114 1850h135v-150h-135v150z" />
    <glyph glyph-name="uni06B7.fina" unicode="&#x6b7;" horiz-adv-x="1395" 
d="M938 73c46.667 84 70 201.67 70 353.003v1130h166v-1173c0 -70.667 14.667 -122.334 44 -155.001c26 -29.333 68.667 -44 128 -44h68v-184h-117c-67.333 0 -124.333 17 -171 51c-10.667 -30.667 -24.334 -59.334 -41.001 -86.001c-72.667 -118 -187 -199 -343 -243
c-80.667 -22.667 -146.667 -34 -198 -34c-59.333 0 -109.666 7.33301 -150.999 22c-175.333 60.667 -263 182.334 -263 365.001c-0.666992 92 18 168.667 56 230h166c-39.333 -76.667 -59 -153.334 -59 -230.001c0 -84 50 -148 150 -192c24 -10.667 57.667 -16 101 -16
c48 0 105 11.333 171 34c104 35.333 178.333 92.666 223 171.999zM1012 2100h136v-150h-136v150zM1125 1850h135v-150h-135v150zM900 1850h135v-150h-135v150z" />
    <glyph glyph-name="uni06B8.init" unicode="&#x6b8;" horiz-adv-x="561" 
d="M388 371c0 -118.667 -26 -211.668 -78 -279.001c-48 -61.333 -118.333 -92 -211 -92h-117v184h68c59.333 0 102 14.667 128 44c29.333 32.667 44 84.334 44 155.001v1173h166v-1185zM201 -350.001h136v-150h-136v150zM314 -100.001h135v-150h-135v150zM89 -100.001h135
v-150h-135v150z" />
    <glyph glyph-name="uni06B8.medi" unicode="&#x6b8;" horiz-adv-x="610" 
d="M305 86c-46 -57.333 -114.667 -86 -206 -86h-117v184h68c59.333 0 102 14.667 128 44c29.333 32.667 44 84.334 44 155.001v1173h166v-1173c0 -70.667 14.667 -122.334 44 -155.001c26.667 -29.333 69.667 -44 129 -44h67v-184h-117c-90 0 -158.667 28.667 -206 86z
M228 -350h136v-150h-136v150zM341 -100h135v-150h-135v150zM116 -100h135v-150h-135v150z" />
    <glyph glyph-name="uni06B8.fina" unicode="&#x6b8;" horiz-adv-x="1395" 
d="M938 73c46.667 84 70 201.67 70 353.003v1130h166v-1173c0 -70.667 14.667 -122.334 44 -155.001c26 -29.333 68.667 -44 128 -44h68v-184h-117c-67.333 0 -124.333 17 -171 51c-10.667 -30.667 -24.334 -59.334 -41.001 -86.001c-72.667 -118 -187 -199 -343 -243
c-80.667 -22.667 -146.667 -34 -198 -34c-59.333 0 -109.666 7.33301 -150.999 22c-175.333 60.667 -263 182.334 -263 365.001c-0.666992 92 18 168.667 56 230h166c-39.333 -76.667 -59 -153.334 -59 -230.001c0 -84 50 -148 150 -192c24 -10.667 57.667 -16 101 -16
c48 0 105 11.333 171 34c104 35.333 178.333 92.666 223 171.999zM607 -649.997h136v-150h-136v150zM720 -399.997h135v-150h-135v150zM495 -399.997h135v-150h-135v150z" />
    <glyph glyph-name="uni06B9.init" unicode="&#x6b9;" horiz-adv-x="513" 
d="M202 1000h135v-150h-135v150zM269 86c-43.333 -57.333 -112 -86.001 -206 -86.001h-81v184h32c59.333 0 102 14.667 128 44c29.333 32.667 44 84.334 44 155.001v217h166v-217c0 -124.667 -27.667 -223.667 -83 -297zM202 -150.001h135v-150h-135v150z" />
    <glyph glyph-name="uni06B9.medi" unicode="&#x6b9;" horiz-adv-x="556" 
d="M202 1000h135v-150h-135v150zM269 86c-46 -57.333 -114.667 -86 -206 -86h-81v184h32c59.333 0 102 14.667 128 44c29.333 32.667 44 84.334 44 155.001v217h166v-217c0 -70.667 14.667 -122.334 44 -155.001c26.667 -29.333 69.667 -44 129 -44h49v-184h-99
c-90 0 -158.667 28.667 -206 86zM202 -150h135v-150h-135v150z" />
    <glyph glyph-name="uni06B9.fina" unicode="&#x6b9;" horiz-adv-x="1403" 
d="M1123 581c26.667 -64.667 48.002 -129.002 64.002 -193.002c13.333 -53.333 35 -100 65 -140c32 -42.667 66 -64 102 -64h67v-184h-117c-42.667 0 -74 16 -94 48c-2 -72.667 -29.667 -158 -83 -256c-72 -132.667 -179.667 -221 -323 -265
c-58.667 -18 -115.334 -27 -170.001 -27c-70 0 -138.667 12.333 -206 37c-197.333 71.333 -296 225.333 -296 462c0 116.667 14.333 222 43 316h165c-29.333 -91.333 -44 -196.666 -44 -315.999c0 -157.333 60.333 -253.666 181 -288.999c54 -16 103.667 -24 149 -24
c53.333 0 103.666 6.66699 150.999 20c116 32 196.667 123.667 242 275c19.333 67.333 29 138.333 29 213c0 122.667 -30 251.667 -90 387h165zM518.002 699.998h135v-150h-135v150zM630.002 -675.002h135v-150h-135v150z" />
    <glyph glyph-name="uni06BA.init" unicode="&#x6ba;" horiz-adv-x="513" 
d="M269 86c-43.333 -57.333 -112 -86.001 -206 -86.001h-81v184h32c59.333 0 102 14.667 128 44c29.333 32.667 44 84.334 44 155.001v217h166v-217c0 -124.667 -27.667 -223.667 -83 -297zM202 999.999h135v-150h-135v150z" />
    <glyph glyph-name="uni06BA.medi" unicode="&#x6ba;" horiz-adv-x="556" 
d="M269 86c-46 -57.333 -114.667 -86 -206 -86h-81v184h32c59.333 0 102 14.667 128 44c29.333 32.667 44 84.334 44 155.001v217h166v-217c0 -70.667 14.667 -122.334 44 -155.001c26.667 -29.333 69.667 -44 129 -44h49v-184h-99c-90 0 -158.667 28.667 -206 86zM202 1000
h135v-150h-135v150z" />
    <glyph glyph-name="uni06BC.init" unicode="&#x6bc;" horiz-adv-x="513" 
d="M202 1000h135v-150h-135v150zM269 86c-43.333 -57.333 -112 -86.001 -206 -86.001h-81v184h32c59.333 0 102 14.667 128 44c29.333 32.667 44 84.334 44 155.001v217h166v-217c0 -124.667 -27.667 -223.667 -83 -297zM356 -48.001c0 26.667 -8.33301 49.333 -25 68
c-16.667 19.333 -37.334 29 -62.001 29s-45.334 -9.33301 -62.001 -28s-25 -41.667 -25 -69c0 -28 8.33301 -51.333 25 -70c16.667 -18 37.334 -27 62.001 -27s45.334 9.33301 62.001 28s25 41.667 25 69zM466 -48.002c0 -61.333 -18.667 -113.333 -56 -156
c-38.667 -42.667 -85.667 -64 -141 -64s-101.666 21.333 -138.999 64c-38.667 42.667 -58 94.667 -58 156s19.333 113.333 58 156c37.333 42 83.666 63 138.999 63s102.333 -21 141 -63c37.333 -42.667 56 -94.667 56 -156z" />
    <glyph glyph-name="uni06BC.medi" unicode="&#x6bc;" horiz-adv-x="556" 
d="M202 1000h135v-150h-135v150zM269 86c-46 -57.333 -114.667 -86 -206 -86h-81v184h32c59.333 0 102 14.667 128 44c29.333 32.667 44 84.334 44 155.001v217h166v-217c0 -70.667 14.667 -122.334 44 -155.001c26.667 -29.333 69.667 -44 129 -44h49v-184h-99
c-90 0 -158.667 28.667 -206 86zM356 -48c0 26.667 -8.33301 49.333 -25 68c-16.667 19.333 -37.334 29 -62.001 29s-45.334 -9.33301 -62.001 -28s-25 -41.667 -25 -69c0 -28 8.33301 -51.333 25 -70c16.667 -18 37.334 -27 62.001 -27s45.334 9.33301 62.001 28
s25 41.667 25 69zM466 -48.001c0 -61.333 -18.667 -113.333 -56 -156c-38.667 -42.667 -85.667 -64 -141 -64s-101.666 21.333 -138.999 64c-38.667 42.667 -58 94.667 -58 156s19.333 113.333 58 156c37.333 42 83.666 63 138.999 63s102.333 -21 141 -63
c37.333 -42.667 56 -94.667 56 -156z" />
    <glyph glyph-name="uni06BC.fina" unicode="&#x6bc;" horiz-adv-x="1403" 
d="M1123 581c26.667 -64.667 48.002 -129.002 64.002 -193.002c13.333 -53.333 35 -100 65 -140c32 -42.667 66 -64 102 -64h67v-184h-117c-42.667 0 -74 16 -94 48c-2 -72.667 -29.667 -158 -83 -256c-72 -132.667 -179.667 -221 -323 -265
c-58.667 -18 -115.334 -27 -170.001 -27c-70 0 -138.667 12.333 -206 37c-197.333 71.333 -296 225.333 -296 462c0 116.667 14.333 222 43 316h165c-29.333 -91.333 -44 -196.666 -44 -315.999c0 -157.333 60.333 -253.666 181 -288.999c54 -16 103.667 -24 149 -24
c53.333 0 103.666 6.66699 150.999 20c116 32 196.667 123.667 242 275c19.333 67.333 29 138.333 29 213c0 122.667 -30 251.667 -90 387h165zM518.002 699.998h135v-150h-135v150zM779.002 -630.002c0 26.667 -8.33301 49.333 -25 68
c-16.667 19.333 -37.334 29 -62.001 29s-45.334 -9.33301 -62.001 -28s-25 -41.667 -25 -69c0 -28 8.33301 -51.333 25 -70c16.667 -18 37.334 -27 62.001 -27s45.334 9.33301 62.001 28s25 41.667 25 69zM889.002 -630.003c0 -61.333 -18.667 -113.333 -56 -156
c-38.667 -42.667 -85.667 -64 -141 -64s-101.666 21.333 -138.999 64c-38.667 42.667 -58 94.667 -58 156s19.333 113.333 58 156c37.333 42 83.666 63 138.999 63s102.333 -21 141 -63c37.333 -42.667 56 -94.667 56 -156z" />
    <glyph glyph-name="uni06BD.init" unicode="&#x6bd;" horiz-adv-x="513" 
d="M269 86c-43.333 -57.333 -112 -86.001 -206 -86.001h-81v184h32c59.333 0 102 14.667 128 44c29.333 32.667 44 84.334 44 155.001v217h166v-217c0 -124.667 -27.667 -223.667 -83 -297zM201 1250h136v-150h-136v150zM314 999.999h135v-150h-135v150zM89 999.999h135
v-150h-135v150z" />
    <glyph glyph-name="uni06BD.medi" unicode="&#x6bd;" horiz-adv-x="556" 
d="M269 86c-46 -57.333 -114.667 -86 -206 -86h-81v184h32c59.333 0 102 14.667 128 44c29.333 32.667 44 84.334 44 155.001v217h166v-217c0 -70.667 14.667 -122.334 44 -155.001c26.667 -29.333 69.667 -44 129 -44h49v-184h-99c-90 0 -158.667 28.667 -206 86zM201 1250
h136v-150h-136v150zM314 1000h135v-150h-135v150zM89 1000h135v-150h-135v150z" />
    <glyph glyph-name="uni06BD.fina" unicode="&#x6bd;" horiz-adv-x="1403" 
d="M1123 581c26.667 -64.667 48.002 -129.002 64.002 -193.002c13.333 -53.333 35 -100 65 -140c32 -42.667 66 -64 102 -64h67v-184h-117c-42.667 0 -74 16 -94 48c-2 -72.667 -29.667 -158 -83 -256c-72 -132.667 -179.667 -221 -323 -265
c-58.667 -18 -115.334 -27 -170.001 -27c-70 0 -138.667 12.333 -206 37c-197.333 71.333 -296 225.333 -296 462c0 116.667 14.333 222 43 316h165c-29.333 -91.333 -44 -196.666 -44 -315.999c0 -157.333 60.333 -253.666 181 -288.999c54 -16 103.667 -24 149 -24
c53.333 0 103.666 6.66699 150.999 20c116 32 196.667 123.667 242 275c19.333 67.333 29 138.333 29 213c0 122.667 -30 251.667 -90 387h165zM562.002 949.998h136v-150h-136v150zM675.002 699.998h135v-150h-135v150zM450.002 699.998h135v-150h-135v150z" />
    <glyph glyph-name="uni06BF.init" unicode="&#x6bf;" horiz-adv-x="1139" 
d="M766 541c-50 15.333 -106 30.665 -168 45.998c-50.667 12.667 -130 24.334 -238 35.001c-49.333 4.66699 -122.333 5 -219 1v184c43.333 4.66699 87.666 7.33398 132.999 8.00098c96.667 0 196.667 -11.667 300 -35c154.667 -34.667 298 -84.667 430 -150v-154
c-45.333 -16 -94.333 -41.333 -147 -76c-100 -65.333 -172 -120 -216 -164c-87.333 -86 -153.333 -138 -198 -156c-132.667 -53.333 -248 -80 -346 -80h-115v184h90c136 0 242.667 24 320 72c62.667 38.667 128.667 93.334 198 164.001
c56.667 57.333 115.334 97.666 176.001 120.999zM472 -300.001h136v-150h-136v150zM585 -50.001h135v-150h-135v150zM360 -50.001h135v-150h-135v150zM472 1100h135v-150h-135v150z" />
    <glyph glyph-name="uni06BF.medi" unicode="&#x6bf;" horiz-adv-x="1189" 
d="M574 780c154.667 -34.667 297.999 -84.668 429.999 -150.001v-154c-38.667 -13.333 -80 -33.666 -124 -60.999c30 -52 54 -89.333 72 -112c62.667 -79.333 128 -119 196 -119h60v-184h-78c-125.333 0 -225.666 56 -300.999 168c-24 36 -53.667 86.333 -89 151
c-41.333 -30.667 -74.333 -58.334 -99 -83.001c-87.333 -86 -153.333 -138 -198 -156c-132.667 -53.333 -248 -80 -346 -80h-115v184h90c136 0 242.667 24 320 72c62.667 38.667 128.667 93.334 198 164.001c56.667 57.333 115.334 97.666 176.001 120.999
c-50 15.333 -106 30.666 -168 45.999c-50.667 12.667 -130 24.334 -238 35.001c-49.333 4.66699 -122.333 5 -219 1v184c43.333 4.66699 87.666 7.33398 132.999 8.00098c96.667 0 196.667 -11.667 300 -35zM482.999 -300.001h136v-150h-136v150zM595.999 -50.001h135v-150
h-135v150zM370.999 -50.001h135v-150h-135v150zM471.999 1100h135v-150h-135v150z" />
    <glyph glyph-name="uni06BF.fina" unicode="&#x6bf;" horiz-adv-x="1189" 
d="M1172 184h36.002v-184h-44c-77.333 0 -153 50 -227 150c-49.333 66.667 -92.333 152 -129 256c-3.33301 10 -27 74.333 -71 193c-68.667 -16 -132.334 -50.667 -191.001 -104c-134 -122 -201 -267 -201 -435c0 -91.333 22 -168.333 66 -231
c77.333 -109.333 215 -164 413 -164c115.333 0 236.666 39.333 363.999 118v-184c-90 -66 -210 -99 -360 -99c-250.667 0 -426.667 64.667 -528 194c-78.667 100 -118 224.667 -118 374c0 172 63.667 332.333 191 481c57.333 67.333 127 118.333 209 153h-22
c-57.333 0 -128 -6.33301 -212 -19c-80.667 -12.667 -149.667 -32.667 -207 -60v184c163.333 42 303 63 419 63c176 0 324 -18 444 -54v-154c-65.333 0 -107.333 -4.33301 -126 -13l26 -91c30.667 -106.667 67.667 -191.667 111 -255c54 -79.333 106.333 -119 157 -119z
M518.002 1200h135v-150h-135v150zM550.002 -75h136v-150h-136v150zM663.002 175h135v-150h-135v150zM438.002 175h135v-150h-135v150z" />
    <glyph glyph-name="uni06CE.init" unicode="&#x6ce;" horiz-adv-x="513" 
d="M202 762l-175 326h125l117 -195l117 195h125l-176 -326h-133zM314 -150h135v-150h-135v150zM89 -150h135v-150h-135v150zM269 86c-43.333 -57.333 -112 -86.001 -206 -86.001h-81v184h32c59.333 0 102 14.667 128 44c29.333 32.667 44 84.334 44 155.001v217h166v-217
c0 -124.667 -27.667 -223.667 -83 -297z" />
    <glyph glyph-name="uni06CE.medi" unicode="&#x6ce;" horiz-adv-x="556" 
d="M202 762l-175 326h125l117 -195l117 195h125l-176 -326h-133zM314 -150h135v-150h-135v150zM89 -150h135v-150h-135v150zM269 86c-46 -57.333 -114.667 -86 -206 -86h-81v184h32c59.333 0 102 14.667 128 44c29.333 32.667 44 84.334 44 155.001v217h166v-217
c0 -70.667 14.667 -122.334 44 -155.001c26.667 -29.333 69.667 -44 129 -44h49v-184h-99c-90 0 -158.667 28.667 -206 86z" />
    <glyph glyph-name="uni06CE.fina" unicode="&#x6ce;" horiz-adv-x="1536" 
d="M563 512l-175 326h125l117 -195l117 195h125l-176 -326h-133zM990 -33c54.667 34 82.001 61.9961 82.001 83.9961c-0.666992 28.667 -15 47.334 -43 56.001c-17.333 5.33301 -35 21.333 -53 48c-26.667 39.333 -40 79.333 -40 120c0 43.333 15.667 85 47 125
c48 62.667 97 98.667 147 108c18 4 39.667 6 65 6c70 0 131.333 -44.667 184 -134c76.667 -130.667 124.667 -196 144 -196h31v-184h-31c-68.667 0 -136.667 57.333 -204 172c-64.667 110 -104.667 165 -120 165c-22 0 -37.333 -2 -46 -6
c-27.333 -11.333 -41 -28.666 -41 -51.999c0 -32 19.667 -57 59 -75c44 -20 66.667 -71 68 -153c2 -65.333 -31 -126.666 -99 -183.999c-76.667 -64 -180.334 -106.333 -311.001 -127c-53.333 -8 -111.333 -12 -174 -12c-112.667 0 -204 13.667 -274 41
c-176 68.667 -264 190.334 -264 365.001c0 102 19 183 57 243h165c-38.667 -60 -58 -141 -58 -243c0 -76 49.667 -140 149 -192c40 -20.667 113.667 -31 221 -31c54.667 0 105 2.66699 151 8c89.333 10 152 26 188 48z" />
    <glyph glyph-name="uni06D5.fina" unicode="&#x6d5;" horiz-adv-x="988" 
d="M608 282c-8.66699 28 -17 58.333 -25 91c-7.33301 33.333 -14.666 83.666 -21.999 150.999c-72 -8 -132.667 -34.333 -182 -79c-66.667 -59.333 -99.334 -109.666 -98.001 -150.999c0.666992 -27.333 28 -49.333 82 -66s135.667 1.33301 245 54zM548 668
c-2.66699 26 -4.66602 53.333 -5.99902 82h165c0.666992 -112 12 -226 34 -342c12.667 -67.333 35.667 -127.333 69 -180c18.667 -29.333 61.667 -44 129 -44h67v-184h-117c-54 0 -103 17 -147 51c-26.667 20.667 -51.334 50.667 -74.001 90
c-82.667 -48.667 -171 -73 -265 -73c-33.333 0 -67.333 5 -102 15c-114 32 -171 99.333 -171 202c0 115.333 61.333 215.333 184 300c65.333 45.333 143.333 73 234 83z" />
    <glyph glyph-name="uniFB52" unicode="&#x67b;" horiz-adv-x="1735" arabic-form="isolated" 
d="M742 -350h135v-150h-135v150zM742 -100h135v-150h-135v150zM1580 669c9.33301 -60 14 -113.333 14 -160c0 -90 -22.667 -168.667 -68 -236c-77.333 -114 -211 -192.333 -401 -235c-171.333 -38.667 -312.333 -58 -423 -58c-114.667 0 -210.667 12.667 -288 38
c-198 64.667 -297 186.334 -297 365.001c0 92 19 168.667 57 230h165c-38.667 -62.667 -58 -139.334 -58 -230.001c0 -83.333 61 -147.333 183 -192c62 -22.667 138.333 -34 229 -34c111.333 0 246.333 19 405 57c153.333 36 250 91.667 290 167c32.667 62 49 118 49 168
c0 39.333 -7.33301 79.333 -22 120h165z" />
    <glyph glyph-name="uniFB53" unicode="&#x67b;" horiz-adv-x="1809" arabic-form="final" 
d="M742 -350h135v-150h-135v150zM742 -100h135v-150h-135v150zM1598 504c0 -138.667 20.667 -227.668 62 -267.001c38 -35.333 76 -53 114 -53h54v-184h-92c-69.333 0 -125.333 24.333 -168 73c-48 55.333 -79.333 105 -94 149c-92.667 -87.333 -209 -148.666 -349 -183.999
c-155.333 -38.667 -296.333 -58 -423 -58c-117.333 0 -213.333 12.667 -288 38c-197.333 67.333 -296.333 189 -297 365c-0.666992 92 18.333 168.667 57 230h165c-38.667 -62.667 -58 -139.334 -58 -230.001c0 -83.333 61 -147.333 183 -192
c62 -22.667 138.333 -34 229 -34c156 1.33301 291 20.333 405 57c119.333 38.667 216 94.334 290 167.001c35.333 34.667 53 91.667 53 171c0 41.333 -8.66699 80.333 -26 117h165c12 -50 18 -105 18 -165z" />
    <glyph glyph-name="uniFB54" unicode="&#x67b;" horiz-adv-x="513" arabic-form="initial" 
d="M269 86c-43.333 -57.333 -112 -86.001 -206 -86.001h-81v184h32c59.333 0 102 14.667 128 44c29.333 32.667 44 84.334 44 155.001v217h166v-217c0 -124.667 -27.667 -223.667 -83 -297zM202 -350.001h135v-150h-135v150zM202 -100.001h135v-150h-135v150z" />
    <glyph glyph-name="uniFB55" unicode="&#x67b;" horiz-adv-x="556" arabic-form="medial" 
d="M202 -350h135v-150h-135v150zM202 -100h135v-150h-135v150zM269 86c-46 -57.333 -114.667 -86 -206 -86h-81v184h32c59.333 0 102 14.667 128 44c29.333 32.667 44 84.334 44 155.001v217h166v-217c0 -70.667 14.667 -122.334 44 -155.001
c26.667 -29.333 69.667 -44 129 -44h49v-184h-99c-90 0 -158.667 28.667 -206 86z" />
    <glyph glyph-name="uniFB56" unicode="&#x67e;" horiz-adv-x="1735" arabic-form="isolated" 
d="M742 -350h136v-150h-136v150zM855 -100h135v-150h-135v150zM630 -100h135v-150h-135v150zM1580 669c9.33301 -60 14 -113.333 14 -160c0 -90 -22.667 -168.667 -68 -236c-77.333 -114 -211 -192.333 -401 -235c-171.333 -38.667 -312.333 -58 -423 -58
c-114.667 0 -210.667 12.667 -288 38c-198 64.667 -297 186.334 -297 365.001c0 92 19 168.667 57 230h165c-38.667 -62.667 -58 -139.334 -58 -230.001c0 -83.333 61 -147.333 183 -192c62 -22.667 138.333 -34 229 -34c111.333 0 246.333 19 405 57
c153.333 36 250 91.667 290 167c32.667 62 49 118 49 168c0 39.333 -7.33301 79.333 -22 120h165z" />
    <glyph glyph-name="uniFB57" unicode="&#x67e;" horiz-adv-x="1809" arabic-form="final" 
d="M742 -350h136v-150h-136v150zM855 -100h135v-150h-135v150zM630 -100h135v-150h-135v150zM1598 504c0 -138.667 20.667 -227.668 62 -267.001c38 -35.333 76 -53 114 -53h54v-184h-92c-69.333 0 -125.333 24.333 -168 73c-48 55.333 -79.333 105 -94 149
c-92.667 -87.333 -209 -148.666 -349 -183.999c-155.333 -38.667 -296.333 -58 -423 -58c-117.333 0 -213.333 12.667 -288 38c-197.333 67.333 -296.333 189 -297 365c-0.666992 92 18.333 168.667 57 230h165c-38.667 -62.667 -58 -139.334 -58 -230.001
c0 -83.333 61 -147.333 183 -192c62 -22.667 138.333 -34 229 -34c156 1.33301 291 20.333 405 57c119.333 38.667 216 94.334 290 167.001c35.333 34.667 53 91.667 53 171c0 41.333 -8.66699 80.333 -26 117h165c12 -50 18 -105 18 -165z" />
    <glyph glyph-name="uniFB58" unicode="&#x67e;" horiz-adv-x="513" arabic-form="initial" 
d="M269 86c-43.333 -57.333 -112 -86.001 -206 -86.001h-81v184h32c59.333 0 102 14.667 128 44c29.333 32.667 44 84.334 44 155.001v217h166v-217c0 -124.667 -27.667 -223.667 -83 -297zM201 -350.001h136v-150h-136v150zM314 -100.001h135v-150h-135v150zM89 -100.001
h135v-150h-135v150z" />
    <glyph glyph-name="uniFB59" unicode="&#x67e;" horiz-adv-x="556" arabic-form="medial" 
d="M269 86c-46 -57.333 -114.667 -86 -206 -86h-81v184h32c59.333 0 102 14.667 128 44c29.333 32.667 44 84.334 44 155.001v217h166v-217c0 -70.667 14.667 -122.334 44 -155.001c26.667 -29.333 69.667 -44 129 -44h49v-184h-99c-90 0 -158.667 28.667 -206 86zM201 -350
h136v-150h-136v150zM314 -100h135v-150h-135v150zM89 -100h135v-150h-135v150z" />
    <glyph glyph-name="uniFB5A" unicode="&#x680;" horiz-adv-x="1735" arabic-form="isolated" 
d="M855 -350h135v-150h-135v150zM855 -100h135v-150h-135v150zM630 -350h135v-150h-135v150zM630 -100h135v-150h-135v150zM1580 669c9.33301 -60 14 -113.333 14 -160c0 -90 -22.667 -168.667 -68 -236c-77.333 -114 -211 -192.333 -401 -235
c-171.333 -38.667 -312.333 -58 -423 -58c-114.667 0 -210.667 12.667 -288 38c-198 64.667 -297 186.334 -297 365.001c0 92 19 168.667 57 230h165c-38.667 -62.667 -58 -139.334 -58 -230.001c0 -83.333 61 -147.333 183 -192c62 -22.667 138.333 -34 229 -34
c111.333 0 246.333 19 405 57c153.333 36 250 91.667 290 167c32.667 62 49 118 49 168c0 39.333 -7.33301 79.333 -22 120h165z" />
    <glyph glyph-name="uniFB5B" unicode="&#x680;" horiz-adv-x="1809" arabic-form="final" 
d="M855 -350h135v-150h-135v150zM855 -100h135v-150h-135v150zM630 -350h135v-150h-135v150zM630 -100h135v-150h-135v150zM1598 504c0 -138.667 20.667 -227.668 62 -267.001c38 -35.333 76 -53 114 -53h54v-184h-92c-69.333 0 -125.333 24.333 -168 73
c-48 55.333 -79.333 105 -94 149c-92.667 -87.333 -209 -148.666 -349 -183.999c-155.333 -38.667 -296.333 -58 -423 -58c-117.333 0 -213.333 12.667 -288 38c-197.333 67.333 -296.333 189 -297 365c-0.666992 92 18.333 168.667 57 230h165
c-38.667 -62.667 -58 -139.334 -58 -230.001c0 -83.333 61 -147.333 183 -192c62 -22.667 138.333 -34 229 -34c156 1.33301 291 20.333 405 57c119.333 38.667 216 94.334 290 167.001c35.333 34.667 53 91.667 53 171c0 41.333 -8.66699 80.333 -26 117h165
c12 -50 18 -105 18 -165z" />
    <glyph glyph-name="uniFB5C" unicode="&#x680;" horiz-adv-x="513" arabic-form="initial" 
d="M269 86c-43.333 -57.333 -112 -86.001 -206 -86.001h-81v184h32c59.333 0 102 14.667 128 44c29.333 32.667 44 84.334 44 155.001v217h166v-217c0 -124.667 -27.667 -223.667 -83 -297zM314 -350.001h135v-150h-135v150zM314 -100.001h135v-150h-135v150zM89 -350.001
h135v-150h-135v150zM89 -100.001h135v-150h-135v150z" />
    <glyph glyph-name="uniFB5D" unicode="&#x680;" horiz-adv-x="556" arabic-form="medial" 
d="M269 86c-46 -57.333 -114.667 -86 -206 -86h-81v184h32c59.333 0 102 14.667 128 44c29.333 32.667 44 84.334 44 155.001v217h166v-217c0 -70.667 14.667 -122.334 44 -155.001c26.667 -29.333 69.667 -44 129 -44h49v-184h-99c-90 0 -158.667 28.667 -206 86zM314 -350
h135v-150h-135v150zM314 -100h135v-150h-135v150zM89 -350h135v-150h-135v150zM89 -100h135v-150h-135v150z" />
    <glyph glyph-name="uniFB5E" unicode="&#x67a;" horiz-adv-x="1735" arabic-form="isolated" 
d="M742 800h135v-150h-135v150zM742 1050h135v-150h-135v150zM1580 669c9.33301 -60 14 -113.333 14 -160c0 -90 -22.667 -168.667 -68 -236c-77.333 -114 -211 -192.333 -401 -235c-171.333 -38.667 -312.333 -58 -423 -58c-114.667 0 -210.667 12.667 -288 38
c-198 64.667 -297 186.334 -297 365.001c0 92 19 168.667 57 230h165c-38.667 -62.667 -58 -139.334 -58 -230.001c0 -83.333 61 -147.333 183 -192c62 -22.667 138.333 -34 229 -34c111.333 0 246.333 19 405 57c153.333 36 250 91.667 290 167c32.667 62 49 118 49 168
c0 39.333 -7.33301 79.333 -22 120h165z" />
    <glyph glyph-name="uniFB5F" unicode="&#x67a;" horiz-adv-x="1809" arabic-form="final" 
d="M742 800h135v-150h-135v150zM742 1050h135v-150h-135v150zM1598 504c0 -138.667 20.667 -227.668 62 -267.001c38 -35.333 76 -53 114 -53h54v-184h-92c-69.333 0 -125.333 24.333 -168 73c-48 55.333 -79.333 105 -94 149c-92.667 -87.333 -209 -148.666 -349 -183.999
c-155.333 -38.667 -296.333 -58 -423 -58c-117.333 0 -213.333 12.667 -288 38c-197.333 67.333 -296.333 189 -297 365c-0.666992 92 18.333 168.667 57 230h165c-38.667 -62.667 -58 -139.334 -58 -230.001c0 -83.333 61 -147.333 183 -192
c62 -22.667 138.333 -34 229 -34c156 1.33301 291 20.333 405 57c119.333 38.667 216 94.334 290 167.001c35.333 34.667 53 91.667 53 171c0 41.333 -8.66699 80.333 -26 117h165c12 -50 18 -105 18 -165z" />
    <glyph glyph-name="uniFB60" unicode="&#x67a;" horiz-adv-x="513" arabic-form="initial" 
d="M269 86c-43.333 -57.333 -112 -86.001 -206 -86.001h-81v184h32c59.333 0 102 14.667 128 44c29.333 32.667 44 84.334 44 155.001v217h166v-217c0 -124.667 -27.667 -223.667 -83 -297zM202 999.999h135v-150h-135v150zM202 1250h135v-150h-135v150z" />
    <glyph glyph-name="uniFB61" unicode="&#x67a;" horiz-adv-x="556" arabic-form="medial" 
d="M269 86c-46 -57.333 -114.667 -86 -206 -86h-81v184h32c59.333 0 102 14.667 128 44c29.333 32.667 44 84.334 44 155.001v217h166v-217c0 -70.667 14.667 -122.334 44 -155.001c26.667 -29.333 69.667 -44 129 -44h49v-184h-99c-90 0 -158.667 28.667 -206 86zM202 1000
h135v-150h-135v150zM202 1250h135v-150h-135v150z" />
    <glyph glyph-name="uniFB62" unicode="&#x67f;" horiz-adv-x="1735" arabic-form="isolated" 
d="M855 800h135v-150h-135v150zM855 1050h135v-150h-135v150zM630 800h135v-150h-135v150zM630 1050h135v-150h-135v150zM1580 669c9.33301 -60 14 -113.333 14 -160c0 -90 -22.667 -168.667 -68 -236c-77.333 -114 -211 -192.333 -401 -235
c-171.333 -38.667 -312.333 -58 -423 -58c-114.667 0 -210.667 12.667 -288 38c-198 64.667 -297 186.334 -297 365.001c0 92 19 168.667 57 230h165c-38.667 -62.667 -58 -139.334 -58 -230.001c0 -83.333 61 -147.333 183 -192c62 -22.667 138.333 -34 229 -34
c111.333 0 246.333 19 405 57c153.333 36 250 91.667 290 167c32.667 62 49 118 49 168c0 39.333 -7.33301 79.333 -22 120h165z" />
    <glyph glyph-name="uniFB63" unicode="&#x67f;" horiz-adv-x="1809" arabic-form="final" 
d="M1598 504c0 -138.667 20.667 -227.668 62 -267.001c38 -35.333 76 -53 114 -53h54v-184h-92c-69.333 0 -125.333 24.333 -168 73c-48 55.333 -79.333 105 -94 149c-92.667 -87.333 -209 -148.666 -349 -183.999c-155.333 -38.667 -296.333 -58 -423 -58
c-117.333 0 -213.333 12.667 -288 38c-197.333 67.333 -296.333 189 -297 365c-0.666992 92 18.333 168.667 57 230h165c-38.667 -62.667 -58 -139.334 -58 -230.001c0 -83.333 61 -147.333 183 -192c62 -22.667 138.333 -34 229 -34c156 1.33301 291 20.333 405 57
c119.333 38.667 216 94.334 290 167.001c35.333 34.667 53 91.667 53 171c0 41.333 -8.66699 80.333 -26 117h165c12 -50 18 -105 18 -165zM855 799.999h135v-150h-135v150zM855 1050h135v-150h-135v150zM630 799.999h135v-150h-135v150zM630 1050h135v-150h-135v150z" />
    <glyph glyph-name="uniFB64" unicode="&#x67f;" horiz-adv-x="513" arabic-form="initial" 
d="M269 86c-43.333 -57.333 -112 -86.001 -206 -86.001h-81v184h32c59.333 0 102 14.667 128 44c29.333 32.667 44 84.334 44 155.001v217h166v-217c0 -124.667 -27.667 -223.667 -83 -297zM314 999.999h135v-150h-135v150zM314 1250h135v-150h-135v150zM89 999.999h135
v-150h-135v150zM89 1250h135v-150h-135v150z" />
    <glyph glyph-name="uniFB65" unicode="&#x67f;" horiz-adv-x="556" arabic-form="medial" 
d="M269 86c-46 -57.333 -114.667 -86 -206 -86h-81v184h32c59.333 0 102 14.667 128 44c29.333 32.667 44 84.334 44 155.001v217h166v-217c0 -70.667 14.667 -122.334 44 -155.001c26.667 -29.333 69.667 -44 129 -44h49v-184h-99c-90 0 -158.667 28.667 -206 86zM314 1000
h135v-150h-135v150zM314 1250h135v-150h-135v150zM89 1000h135v-150h-135v150zM89 1250h135v-150h-135v150z" />
    <glyph glyph-name="uniFB66" unicode="&#x679;" horiz-adv-x="1735" arabic-form="isolated" 
d="M764 778h49.002c47.333 0 77.333 4.33301 90 13c32 22 48 40 48 54c0 21.333 -9 37.333 -27 48c-0.666992 0.666992 -22.334 -8.33301 -65.001 -27c-30.667 -14 -62.334 -43.333 -95.001 -88zM834.002 677h-157h-101v101h73v399h92v-321
c21.333 48.667 63.333 86.334 126 113.001c37.333 16 77 15.333 119 -2c39.333 -16.667 59 -52.334 59 -107.001c0 -60.667 -19.333 -107.667 -58 -141c-32 -28 -83 -42 -153 -42zM1580 669c9.33301 -60 14 -113.333 14 -160c0 -90 -22.667 -168.667 -68 -236
c-77.333 -114 -211 -192.333 -401 -235c-171.333 -38.667 -312.333 -58 -423 -58c-114.667 0 -210.667 12.667 -288 38c-198 64.667 -297 186.334 -297 365.001c0 92 19 168.667 57 230h165c-38.667 -62.667 -58 -139.334 -58 -230.001c0 -83.333 61 -147.333 183 -192
c62 -22.667 138.333 -34 229 -34c111.333 0 246.333 19 405 57c153.333 36 250 91.667 290 167c32.667 62 49 118 49 168c0 39.333 -7.33301 79.333 -22 120h165z" />
    <glyph glyph-name="uniFB67" unicode="&#x679;" horiz-adv-x="1809" arabic-form="final" 
d="M1598 504c0 -138.667 20.667 -227.668 62 -267.001c38 -35.333 76 -53 114 -53h54v-184h-92c-69.333 0 -125.333 24.333 -168 73c-48 55.333 -79.333 105 -94 149c-92.667 -87.333 -209 -148.666 -349 -183.999c-155.333 -38.667 -296.333 -58 -423 -58
c-117.333 0 -213.333 12.667 -288 38c-197.333 67.333 -296.333 189 -297 365c-0.666992 92 18.333 168.667 57 230h165c-38.667 -62.667 -58 -139.334 -58 -230.001c0 -83.333 61 -147.333 183 -192c62 -22.667 138.333 -34 229 -34c156 1.33301 291 20.333 405 57
c119.333 38.667 216 94.334 290 167.001c35.333 34.667 53 91.667 53 171c0 41.333 -8.66699 80.333 -26 117h165c12 -50 18 -105 18 -165zM764 777.999h49.002c47.333 0 77.333 4.33301 90 13c32 22 48 40 48 54c0 21.333 -9 37.333 -27 48
c-0.666992 0.666992 -22.334 -8.33301 -65.001 -27c-30.667 -14 -62.334 -43.333 -95.001 -88zM834.002 676.999h-157h-101v101h73v399h92v-321c21.333 48.667 63.333 86.334 126 113.001c37.333 16 77 15.333 119 -2c39.333 -16.667 59 -52.334 59 -107.001
c0 -60.667 -19.333 -107.667 -58 -141c-32 -28 -83 -42 -153 -42z" />
    <glyph glyph-name="uniFB68" unicode="&#x679;" horiz-adv-x="513" arabic-form="initial" 
d="M269 86c-43.333 -57.333 -112 -86.001 -206 -86.001h-81v184h32c59.333 0 102 14.667 128 44c29.333 32.667 44 84.334 44 155.001v217h166v-217c0 -124.667 -27.667 -223.667 -83 -297zM223 977.999h49.002c47.333 0 77.333 4.33301 90 13c32 22 48 40 48 54
c0 21.333 -9 37.333 -27 48c-0.666992 0.666992 -22.334 -8.33301 -65.001 -27c-30.667 -14 -62.334 -43.333 -95.001 -88zM293.002 876.999h-157h-101v101h73v399h92v-321c21.333 48.667 63.333 86.334 126 113.001c37.333 16 77 15.333 119 -2
c39.333 -16.667 59 -52.334 59 -107.001c0 -60.667 -19.333 -107.667 -58 -141c-32 -28 -83 -42 -153 -42z" />
    <glyph glyph-name="uniFB69" unicode="&#x679;" horiz-adv-x="556" arabic-form="medial" 
d="M269 86c-46 -57.333 -114.667 -86 -206 -86h-81v184h32c59.333 0 102 14.667 128 44c29.333 32.667 44 84.334 44 155.001v217h166v-217c0 -70.667 14.667 -122.334 44 -155.001c26.667 -29.333 69.667 -44 129 -44h49v-184h-99c-90 0 -158.667 28.667 -206 86zM223 978
h49.002c47.333 0 77.333 4.33301 90 13c32 22 48 40 48 54c0 21.333 -9 37.333 -27 48c-0.666992 0.666992 -22.334 -8.33301 -65.001 -27c-30.667 -14 -62.334 -43.333 -95.001 -88zM293.002 877h-157h-101v101h73v399h92v-321c21.333 48.667 63.333 86.334 126 113.001
c37.333 16 77 15.333 119 -2c39.333 -16.667 59 -52.334 59 -107.001c0 -60.667 -19.333 -107.667 -58 -141c-32 -28 -83 -42 -153 -42z" />
    <glyph glyph-name="uniFB6A" unicode="&#x6a4;" horiz-adv-x="1910" arabic-form="isolated" 
d="M1372 1550h136v-150h-136v150zM1485 1300h135v-150h-135v150zM1260 1300h135v-150h-135v150zM1545 537c24.667 28.667 37.001 68.666 37.001 119.999c0 39.333 -19.667 76 -59 110c-18.667 16.667 -41.334 24.667 -68.001 24c-31.333 -0.666992 -59 -15 -83 -43
c-24 -27.333 -36 -58 -36 -92c0 -53.333 16.333 -92.666 49 -117.999c24 -16.667 48.667 -25 74 -25c43.333 0 72 8 86 24zM1685 218.999c-66 -120 -194.335 -203.333 -385.002 -250c-163.333 -40.667 -331.333 -61 -504 -61c-176.667 0 -304 13.667 -382 41
c-197.333 66.667 -296.333 188.334 -297 365.001c-0.666992 92 18.333 168.667 57 230h165c-38.667 -62.667 -58 -139.334 -58 -230.001c0 -77.333 61 -141.333 183 -192c53.333 -22.667 164 -34 332 -34c192.667 0 352 19 478 57c128.667 39.333 223 95 283 167
c20.667 25.333 37 64 49 116c-37.333 -50 -92.666 -75 -165.999 -75c-80 0 -142.333 22.333 -187 67c-58.667 58 -88 130 -88 216c0 34.667 2.33301 66.667 7 96c13.333 98.667 65.333 171 156 217c46.667 24 92.667 36 138 36c54 0 100.667 -16.667 140 -50
c58 -48 100.667 -106 128 -174c14.667 -36 21.667 -99.667 21 -191c-1.33301 -150.667 -24.666 -267.667 -69.999 -351z" />
    <glyph glyph-name="uniFB6B" unicode="&#x6a4;" horiz-adv-x="1908" arabic-form="final" 
d="M1490 36c-62 -28.667 -126 -51.001 -192 -67.001c-168 -40 -333.667 -60 -497 -60c-183.333 0.666992 -312.333 14 -387 40c-197.333 68.667 -296.333 190.334 -297 365.001c-0.666992 92 18.333 168.667 57 230h165c-38.667 -62.667 -58 -139.334 -58 -230.001
c0 -76.667 61 -140.667 183 -192c48 -20.667 162 -31 342 -31c138.667 0 293.667 18 465 54l25 4c-20.667 18 -39.667 41.667 -57 71c-48.667 82.667 -73 164.334 -73 245.001c0 20.667 1 43 3 67c13.333 103.333 76.333 180 189 230c34.667 15.333 67.667 23 99 23
c49.333 0 98.333 -16.667 147 -50c82 -55.333 128.333 -133 139 -233c2.66699 -24.667 4 -47 4 -67c0 -96 -24 -179.333 -72 -250c5.33301 -0.666992 10 -1 14 -1h237v-184h-241c-63.333 0 -128.333 12 -195 36zM1490 222.999c62.667 43.333 94.001 105.667 94.001 187
c0 13.333 -1.33301 29 -4 47c-8.66699 47.333 -28.667 84 -60 110c-20 16.667 -42 25 -66 25c-14.667 0 -28.667 -3.33301 -42 -10c-36.667 -16.667 -60.667 -45 -72 -85c-3.33301 -12.667 -5 -25 -5 -37c0 -37.333 12.333 -78 37 -122
c29.333 -52 68.666 -90.333 117.999 -115zM1372 1350h136v-150h-136v150zM1485 1100h135v-150h-135v150zM1260 1100h135v-150h-135v150z" />
    <glyph glyph-name="uniFB6C" unicode="&#x6a4;" horiz-adv-x="881" arabic-form="initial" 
d="M538 537c24.667 28.667 37.001 68.666 37.001 119.999c0 39.333 -19.667 76 -59 110c-18.667 16.667 -41.334 24.667 -68.001 24c-31.333 -0.666992 -59 -15 -83 -43c-24 -27.333 -36.333 -58 -37 -92c0 -53.333 16.667 -92.666 50 -117.999
c24 -16.667 48.667 -25 74 -25c43.333 0 72 8 86 24zM-17.999 183.999h217.001c50 0 120.333 7.66699 211 23c48 8 90 43 126 105c18 32 31.667 64.667 41 98c-38 -36.667 -86 -55.667 -144 -57c-78 -1.33301 -140.333 21 -187 67c-58.667 58 -88 130 -88 216
c0 34.667 2.33301 66.667 7 96c13.333 98.667 65 171 155 217c47.333 24 93.666 36 138.999 36c54 0 100.667 -16.667 140 -50c58 -48 100.667 -106 128 -174c14 -34 21 -97.667 21 -191c0 -138.667 -23.333 -255.667 -70 -351c-44.667 -90.667 -104 -150.667 -178 -180
c-66 -26 -142.333 -39 -229 -39h-289v184zM382.002 1550h136v-150h-136v150zM495.002 1300h135v-150h-135v150zM270.002 1300h135v-150h-135v150z" />
    <glyph glyph-name="uniFB6D" unicode="&#x6a4;" horiz-adv-x="932" arabic-form="medial" 
d="M553 762c109.333 -53.333 171.332 -130 185.999 -230c4.66699 -33.333 7 -64 7 -92c0 -48.667 -6.33301 -89.334 -19 -122.001c-17.333 -44.667 -36.666 -83.667 -57.999 -117c23.333 -11.333 79 -17 167 -17h114v-184h-195c-81.333 0 -177.666 19 -288.999 57
c-110.667 -38 -207 -57 -289 -57h-195v184h114c88.667 0 144.667 5.66699 168 17c-17.333 26.667 -37 65.667 -59 117c-12.667 30.667 -19 71.334 -19 122.001c0 29.333 2.66699 60 8 92c13.333 95.333 75.666 172 186.999 230c18 9.33301 46.333 14 85 14
c38 0 67 -4.66699 87 -14zM465.999 592c-8.66699 0 -18.668 -3.33398 -30.001 -10.001c-33.333 -21.333 -57.333 -49.666 -72 -84.999c-5.33301 -14 -8 -30.667 -8 -50c0 -28.667 7 -60.667 21 -96c18.667 -45.333 48.334 -75.333 89.001 -90c38 14 67.667 44 89 90
c15.333 33.333 23 65.333 23 96c0 16 -3.33301 32.667 -10 50c-14 34.667 -38 63 -72 85c-11.333 6.66699 -21.333 10 -30 10zM397.998 1400h136v-150h-136v150zM510.998 1150h135v-150h-135v150zM285.998 1150h135v-150h-135v150z" />
    <glyph glyph-name="uniFB6E" unicode="&#x6a6;" horiz-adv-x="1910" arabic-form="isolated" 
d="M1485 1300h135v-150h-135v150zM1485 1550h135v-150h-135v150zM1260 1300h135v-150h-135v150zM1260 1550h135v-150h-135v150zM1545 537c24.667 28.667 37.001 68.666 37.001 119.999c0 39.333 -19.667 76 -59 110c-18.667 16.667 -41.334 24.667 -68.001 24
c-31.333 -0.666992 -59 -15 -83 -43c-24 -27.333 -36 -58 -36 -92c0 -53.333 16.333 -92.666 49 -117.999c24 -16.667 48.667 -25 74 -25c43.333 0 72 8 86 24zM1685 218.999c-66 -120 -194.335 -203.333 -385.002 -250c-163.333 -40.667 -331.333 -61 -504 -61
c-176.667 0 -304 13.667 -382 41c-197.333 66.667 -296.333 188.334 -297 365.001c-0.666992 92 18.333 168.667 57 230h165c-38.667 -62.667 -58 -139.334 -58 -230.001c0 -77.333 61 -141.333 183 -192c53.333 -22.667 164 -34 332 -34c192.667 0 352 19 478 57
c128.667 39.333 223 95 283 167c20.667 25.333 37 64 49 116c-37.333 -50 -92.666 -75 -165.999 -75c-80 0 -142.333 22.333 -187 67c-58.667 58 -88 130 -88 216c0 34.667 2.33301 66.667 7 96c13.333 98.667 65.333 171 156 217c46.667 24 92.667 36 138 36
c54 0 100.667 -16.667 140 -50c58 -48 100.667 -106 128 -174c14.667 -36 21.667 -99.667 21 -191c-1.33301 -150.667 -24.666 -267.667 -69.999 -351z" />
    <glyph glyph-name="uniFB6F" unicode="&#x6a6;" horiz-adv-x="1908" arabic-form="final" 
d="M1490 36c-62 -28.667 -126 -51.001 -192 -67.001c-168 -40 -333.667 -60 -497 -60c-183.333 0.666992 -312.333 14 -387 40c-197.333 68.667 -296.333 190.334 -297 365.001c-0.666992 92 18.333 168.667 57 230h165c-38.667 -62.667 -58 -139.334 -58 -230.001
c0 -76.667 61 -140.667 183 -192c48 -20.667 162 -31 342 -31c138.667 0 293.667 18 465 54l25 4c-20.667 18 -39.667 41.667 -57 71c-48.667 82.667 -73 164.334 -73 245.001c0 20.667 1 43 3 67c13.333 103.333 76.333 180 189 230c34.667 15.333 67.667 23 99 23
c49.333 0 98.333 -16.667 147 -50c82 -55.333 128.333 -133 139 -233c2.66699 -24.667 4 -47 4 -67c0 -96 -24 -179.333 -72 -250c5.33301 -0.666992 10 -1 14 -1h237v-184h-241c-63.333 0 -128.333 12 -195 36zM1490 222.999c62.667 43.333 94.001 105.667 94.001 187
c0 13.333 -1.33301 29 -4 47c-8.66699 47.333 -28.667 84 -60 110c-20 16.667 -42 25 -66 25c-14.667 0 -28.667 -3.33301 -42 -10c-36.667 -16.667 -60.667 -45 -72 -85c-3.33301 -12.667 -5 -25 -5 -37c0 -37.333 12.333 -78 37 -122
c29.333 -52 68.666 -90.333 117.999 -115zM1485 1100h135v-150h-135v150zM1485 1350h135v-150h-135v150zM1260 1100h135v-150h-135v150zM1260 1350h135v-150h-135v150z" />
    <glyph glyph-name="uniFB70" unicode="&#x6a6;" horiz-adv-x="881" arabic-form="initial" 
d="M538 537c24.667 28.667 37.001 68.666 37.001 119.999c0 39.333 -19.667 76 -59 110c-18.667 16.667 -41.334 24.667 -68.001 24c-31.333 -0.666992 -59 -15 -83 -43c-24 -27.333 -36.333 -58 -37 -92c0 -53.333 16.667 -92.666 50 -117.999
c24 -16.667 48.667 -25 74 -25c43.333 0 72 8 86 24zM-17.999 183.999h217.001c50 0 120.333 7.66699 211 23c48 8 90 43 126 105c18 32 31.667 64.667 41 98c-38 -36.667 -86 -55.667 -144 -57c-78 -1.33301 -140.333 21 -187 67c-58.667 58 -88 130 -88 216
c0 34.667 2.33301 66.667 7 96c13.333 98.667 65 171 155 217c47.333 24 93.666 36 138.999 36c54 0 100.667 -16.667 140 -50c58 -48 100.667 -106 128 -174c14 -34 21 -97.667 21 -191c0 -138.667 -23.333 -255.667 -70 -351c-44.667 -90.667 -104 -150.667 -178 -180
c-66 -26 -142.333 -39 -229 -39h-289v184zM495.002 1300h135v-150h-135v150zM495.002 1550h135v-150h-135v150zM270.002 1300h135v-150h-135v150zM270.002 1550h135v-150h-135v150z" />
    <glyph glyph-name="uniFB71" unicode="&#x6a6;" horiz-adv-x="932" arabic-form="medial" 
d="M553 762c109.333 -53.333 171.332 -130 185.999 -230c4.66699 -33.333 7 -64 7 -92c0 -48.667 -6.33301 -89.334 -19 -122.001c-17.333 -44.667 -36.666 -83.667 -57.999 -117c23.333 -11.333 79 -17 167 -17h114v-184h-195c-81.333 0 -177.666 19 -288.999 57
c-110.667 -38 -207 -57 -289 -57h-195v184h114c88.667 0 144.667 5.66699 168 17c-17.333 26.667 -37 65.667 -59 117c-12.667 30.667 -19 71.334 -19 122.001c0 29.333 2.66699 60 8 92c13.333 95.333 75.666 172 186.999 230c18 9.33301 46.333 14 85 14
c38 0 67 -4.66699 87 -14zM465.999 592c-8.66699 0 -18.668 -3.33398 -30.001 -10.001c-33.333 -21.333 -57.333 -49.666 -72 -84.999c-5.33301 -14 -8 -30.667 -8 -50c0 -28.667 7 -60.667 21 -96c18.667 -45.333 48.334 -75.333 89.001 -90c38 14 67.667 44 89 90
c15.333 33.333 23 65.333 23 96c0 16 -3.33301 32.667 -10 50c-14 34.667 -38 63 -72 85c-11.333 6.66699 -21.333 10 -30 10zM510.998 1150h135v-150h-135v150zM510.998 1400h135v-150h-135v150zM285.998 1150h135v-150h-135v150zM285.998 1400h135v-150h-135v150z" />
    <glyph glyph-name="uniFB72" unicode="&#x684;" horiz-adv-x="1189" arabic-form="isolated" 
d="M698 75h135v-150h-135v150zM698 325h135v-150h-135v150zM141 807c166 42 307.334 63 424.001 63c175.333 0 321.666 -18 438.999 -54v-154c-176 0 -328.667 -55.667 -458 -167c-134 -116 -201 -261 -201 -435c0 -90 22 -167 66 -231
c76.667 -109.333 214.334 -164 413.001 -164c115.333 0 236.666 39.333 363.999 118v-184c-90 -66 -210 -99 -360 -99c-250.667 0 -426.667 64.667 -528 194c-78.667 100 -118 224.667 -118 374c0 172 63.667 332.333 191 481c57.333 67.333 127 118.333 209 153
c-60.667 0 -138.667 -6.33301 -234 -19c-75.333 -10 -144.333 -30 -207 -60v184z" />
    <glyph glyph-name="uniFB73" unicode="&#x684;" horiz-adv-x="1189" arabic-form="final" 
d="M608 25h135v-150h-135v150zM608 275h135v-150h-135v150zM1172 184h36.002v-184h-44c-77.333 0 -153 50 -227 150c-49.333 66.667 -92.333 152 -129 256c-3.33301 10 -27 74.333 -71 193c-68.667 -16 -132.334 -50.667 -191.001 -104c-134 -122 -201 -267 -201 -435
c0 -91.333 22 -168.333 66 -231c77.333 -109.333 215 -164 413 -164c115.333 0 236.666 39.333 363.999 118v-184c-90 -66 -210 -99 -360 -99c-250.667 0 -426.667 64.667 -528 194c-78.667 100 -118 224.667 -118 374c0 172 63.667 332.333 191 481
c57.333 67.333 127 118.333 209 153h-22c-57.333 0 -128 -6.33301 -212 -19c-80.667 -12.667 -149.667 -32.667 -207 -60v184c163.333 42 303 63 419 63c176 0 324 -18 444 -54v-154c-65.333 0 -107.333 -4.33301 -126 -13l26 -91c30.667 -106.667 67.667 -191.667 111 -255
c54 -79.333 106.333 -119 157 -119z" />
    <glyph glyph-name="uniFB74" unicode="&#x684;" horiz-adv-x="1139" arabic-form="initial" 
d="M766 541c-50 15.333 -106 30.665 -168 45.998c-50.667 12.667 -130 24.334 -238 35.001c-49.333 4.66699 -122.333 5 -219 1v184c43.333 4.66699 87.666 7.33398 132.999 8.00098c96.667 0 196.667 -11.667 300 -35c154.667 -34.667 298 -84.667 430 -150v-154
c-45.333 -16 -94.333 -41.333 -147 -76c-100 -65.333 -172 -120 -216 -164c-87.333 -86 -153.333 -138 -198 -156c-132.667 -53.333 -248 -80 -346 -80h-115v184h90c136 0 242.667 24 320 72c62.667 38.667 128.667 93.334 198 164.001
c56.667 57.333 115.334 97.666 176.001 120.999zM472 -300.001h135v-150h-135v150zM472 -50.001h135v-150h-135v150z" />
    <glyph glyph-name="uniFB75" unicode="&#x684;" horiz-adv-x="1189" arabic-form="medial" 
d="M574 780c154.667 -34.667 297.999 -84.668 429.999 -150.001v-154c-38.667 -13.333 -80 -33.666 -124 -60.999c30 -52 54 -89.333 72 -112c62.667 -79.333 128 -119 196 -119h60v-184h-78c-125.333 0 -225.666 56 -300.999 168c-24 36 -53.667 86.333 -89 151
c-41.333 -30.667 -74.333 -58.334 -99 -83.001c-87.333 -86 -153.333 -138 -198 -156c-132.667 -53.333 -248 -80 -346 -80h-115v184h90c136 0 242.667 24 320 72c62.667 38.667 128.667 93.334 198 164.001c56.667 57.333 115.334 97.666 176.001 120.999
c-50 15.333 -106 30.666 -168 45.999c-50.667 12.667 -130 24.334 -238 35.001c-49.333 4.66699 -122.333 5 -219 1v184c43.333 4.66699 87.666 7.33398 132.999 8.00098c96.667 0 196.667 -11.667 300 -35zM471.999 -300.001h135v-150h-135v150zM471.999 -50.001h135v-150
h-135v150z" />
    <glyph glyph-name="uniFB76" unicode="&#x683;" horiz-adv-x="1189" arabic-form="isolated" 
d="M810 175h135v-150h-135v150zM585 175h135v-150h-135v150zM141 807c166 42 307.334 63 424.001 63c175.333 0 321.666 -18 438.999 -54v-154c-176 0 -328.667 -55.667 -458 -167c-134 -116 -201 -261 -201 -435c0 -90 22 -167 66 -231
c76.667 -109.333 214.334 -164 413.001 -164c115.333 0 236.666 39.333 363.999 118v-184c-90 -66 -210 -99 -360 -99c-250.667 0 -426.667 64.667 -528 194c-78.667 100 -118 224.667 -118 374c0 172 63.667 332.333 191 481c57.333 67.333 127 118.333 209 153
c-60.667 0 -138.667 -6.33301 -234 -19c-75.333 -10 -144.333 -30 -207 -60v184z" />
    <glyph glyph-name="uniFB77" unicode="&#x683;" horiz-adv-x="1189" arabic-form="final" 
d="M720 125h135v-150h-135v150zM495 125h135v-150h-135v150zM1172 184h36.002v-184h-44c-77.333 0 -153 50 -227 150c-49.333 66.667 -92.333 152 -129 256c-3.33301 10 -27 74.333 -71 193c-68.667 -16 -132.334 -50.667 -191.001 -104c-134 -122 -201 -267 -201 -435
c0 -91.333 22 -168.333 66 -231c77.333 -109.333 215 -164 413 -164c115.333 0 236.666 39.333 363.999 118v-184c-90 -66 -210 -99 -360 -99c-250.667 0 -426.667 64.667 -528 194c-78.667 100 -118 224.667 -118 374c0 172 63.667 332.333 191 481
c57.333 67.333 127 118.333 209 153h-22c-57.333 0 -128 -6.33301 -212 -19c-80.667 -12.667 -149.667 -32.667 -207 -60v184c163.333 42 303 63 419 63c176 0 324 -18 444 -54v-154c-65.333 0 -107.333 -4.33301 -126 -13l26 -91c30.667 -106.667 67.667 -191.667 111 -255
c54 -79.333 106.333 -119 157 -119z" />
    <glyph glyph-name="uniFB78" unicode="&#x683;" horiz-adv-x="1139" arabic-form="initial" 
d="M766 541c-50 15.333 -106 30.665 -168 45.998c-50.667 12.667 -130 24.334 -238 35.001c-49.333 4.66699 -122.333 5 -219 1v184c43.333 4.66699 87.666 7.33398 132.999 8.00098c96.667 0 196.667 -11.667 300 -35c154.667 -34.667 298 -84.667 430 -150v-154
c-45.333 -16 -94.333 -41.333 -147 -76c-100 -65.333 -172 -120 -216 -164c-87.333 -86 -153.333 -138 -198 -156c-132.667 -53.333 -248 -80 -346 -80h-115v184h90c136 0 242.667 24 320 72c62.667 38.667 128.667 93.334 198 164.001
c56.667 57.333 115.334 97.666 176.001 120.999zM585 -50.001h135v-150h-135v150zM360 -50.001h135v-150h-135v150z" />
    <glyph glyph-name="uniFB79" unicode="&#x683;" horiz-adv-x="1189" arabic-form="medial" 
d="M574 780c154.667 -34.667 297.999 -84.668 429.999 -150.001v-154c-38.667 -13.333 -80 -33.666 -124 -60.999c30 -52 54 -89.333 72 -112c62.667 -79.333 128 -119 196 -119h60v-184h-78c-125.333 0 -225.666 56 -300.999 168c-24 36 -53.667 86.333 -89 151
c-41.333 -30.667 -74.333 -58.334 -99 -83.001c-87.333 -86 -153.333 -138 -198 -156c-132.667 -53.333 -248 -80 -346 -80h-115v184h90c136 0 242.667 24 320 72c62.667 38.667 128.667 93.334 198 164.001c56.667 57.333 115.334 97.666 176.001 120.999
c-50 15.333 -106 30.666 -168 45.999c-50.667 12.667 -130 24.334 -238 35.001c-49.333 4.66699 -122.333 5 -219 1v184c43.333 4.66699 87.666 7.33398 132.999 8.00098c96.667 0 196.667 -11.667 300 -35zM584.999 -50.001h135v-150h-135v150zM359.999 -50.001h135v-150
h-135v150z" />
    <glyph glyph-name="uniFB7A" unicode="&#x686;" horiz-adv-x="1189" arabic-form="isolated" 
d="M708 50h136v-150h-136v150zM821 300h135v-150h-135v150zM596 300h135v-150h-135v150zM141 807c166 42 307.334 63 424.001 63c175.333 0 321.666 -18 438.999 -54v-154c-176 0 -328.667 -55.667 -458 -167c-134 -116 -201 -261 -201 -435c0 -90 22 -167 66 -231
c76.667 -109.333 214.334 -164 413.001 -164c115.333 0 236.666 39.333 363.999 118v-184c-90 -66 -210 -99 -360 -99c-250.667 0 -426.667 64.667 -528 194c-78.667 100 -118 224.667 -118 374c0 172 63.667 332.333 191 481c57.333 67.333 127 118.333 209 153
c-60.667 0 -138.667 -6.33301 -234 -19c-75.333 -10 -144.333 -30 -207 -60v184z" />
    <glyph glyph-name="uniFB7B" unicode="&#x686;" horiz-adv-x="1189" arabic-form="final" 
d="M595 -50h136v-150h-136v150zM708 200h135v-150h-135v150zM483 200h135v-150h-135v150zM1172 184h36.002v-184h-44c-77.333 0 -153 50 -227 150c-49.333 66.667 -92.333 152 -129 256c-3.33301 10 -27 74.333 -71 193c-68.667 -16 -132.334 -50.667 -191.001 -104
c-134 -122 -201 -267 -201 -435c0 -91.333 22 -168.333 66 -231c77.333 -109.333 215 -164 413 -164c115.333 0 236.666 39.333 363.999 118v-184c-90 -66 -210 -99 -360 -99c-250.667 0 -426.667 64.667 -528 194c-78.667 100 -118 224.667 -118 374
c0 172 63.667 332.333 191 481c57.333 67.333 127 118.333 209 153h-22c-57.333 0 -128 -6.33301 -212 -19c-80.667 -12.667 -149.667 -32.667 -207 -60v184c163.333 42 303 63 419 63c176 0 324 -18 444 -54v-154c-65.333 0 -107.333 -4.33301 -126 -13l26 -91
c30.667 -106.667 67.667 -191.667 111 -255c54 -79.333 106.333 -119 157 -119z" />
    <glyph glyph-name="uniFB7C" unicode="&#x686;" horiz-adv-x="1139" arabic-form="initial" 
d="M766 541c-50 15.333 -106 30.665 -168 45.998c-50.667 12.667 -130 24.334 -238 35.001c-49.333 4.66699 -122.333 5 -219 1v184c43.333 4.66699 87.666 7.33398 132.999 8.00098c96.667 0 196.667 -11.667 300 -35c154.667 -34.667 298 -84.667 430 -150v-154
c-45.333 -16 -94.333 -41.333 -147 -76c-100 -65.333 -172 -120 -216 -164c-87.333 -86 -153.333 -138 -198 -156c-132.667 -53.333 -248 -80 -346 -80h-115v184h90c136 0 242.667 24 320 72c62.667 38.667 128.667 93.334 198 164.001
c56.667 57.333 115.334 97.666 176.001 120.999zM472 -300.001h136v-150h-136v150zM585 -50.001h135v-150h-135v150zM360 -50.001h135v-150h-135v150z" />
    <glyph glyph-name="uniFB7D" unicode="&#x686;" horiz-adv-x="1189" arabic-form="medial" 
d="M574 780c154.667 -34.667 297.999 -84.668 429.999 -150.001v-154c-38.667 -13.333 -80 -33.666 -124 -60.999c30 -52 54 -89.333 72 -112c62.667 -79.333 128 -119 196 -119h60v-184h-78c-125.333 0 -225.666 56 -300.999 168c-24 36 -53.667 86.333 -89 151
c-41.333 -30.667 -74.333 -58.334 -99 -83.001c-87.333 -86 -153.333 -138 -198 -156c-132.667 -53.333 -248 -80 -346 -80h-115v184h90c136 0 242.667 24 320 72c62.667 38.667 128.667 93.334 198 164.001c56.667 57.333 115.334 97.666 176.001 120.999
c-50 15.333 -106 30.666 -168 45.999c-50.667 12.667 -130 24.334 -238 35.001c-49.333 4.66699 -122.333 5 -219 1v184c43.333 4.66699 87.666 7.33398 132.999 8.00098c96.667 0 196.667 -11.667 300 -35zM471.999 -300.001h136v-150h-136v150zM584.999 -50.001h135v-150
h-135v150zM359.999 -50.001h135v-150h-135v150z" />
    <glyph glyph-name="uniFB7E" unicode="&#x687;" horiz-adv-x="1189" arabic-form="isolated" 
d="M821 75h135v-150h-135v150zM821 325h135v-150h-135v150zM596 75h135v-150h-135v150zM596 325h135v-150h-135v150zM141 807c166 42 307.334 63 424.001 63c175.333 0 321.666 -18 438.999 -54v-154c-176 0 -328.667 -55.667 -458 -167c-134 -116 -201 -261 -201 -435
c0 -90 22 -167 66 -231c76.667 -109.333 214.334 -164 413.001 -164c115.333 0 236.666 39.333 363.999 118v-184c-90 -66 -210 -99 -360 -99c-250.667 0 -426.667 64.667 -528 194c-78.667 100 -118 224.667 -118 374c0 172 63.667 332.333 191 481
c57.333 67.333 127 118.333 209 153c-60.667 0 -138.667 -6.33301 -234 -19c-75.333 -10 -144.333 -30 -207 -60v184z" />
    <glyph glyph-name="uniFB7F" unicode="&#x687;" horiz-adv-x="1189" arabic-form="final" 
d="M708 -50h135v-150h-135v150zM708 200h135v-150h-135v150zM483 -50h135v-150h-135v150zM483 200h135v-150h-135v150zM1172 184h36.002v-184h-44c-77.333 0 -153 50 -227 150c-49.333 66.667 -92.333 152 -129 256c-3.33301 10 -27 74.333 -71 193
c-68.667 -16 -132.334 -50.667 -191.001 -104c-134 -122 -201 -267 -201 -435c0 -91.333 22 -168.333 66 -231c77.333 -109.333 215 -164 413 -164c115.333 0 236.666 39.333 363.999 118v-184c-90 -66 -210 -99 -360 -99c-250.667 0 -426.667 64.667 -528 194
c-78.667 100 -118 224.667 -118 374c0 172 63.667 332.333 191 481c57.333 67.333 127 118.333 209 153h-22c-57.333 0 -128 -6.33301 -212 -19c-80.667 -12.667 -149.667 -32.667 -207 -60v184c163.333 42 303 63 419 63c176 0 324 -18 444 -54v-154
c-65.333 0 -107.333 -4.33301 -126 -13l26 -91c30.667 -106.667 67.667 -191.667 111 -255c54 -79.333 106.333 -119 157 -119z" />
    <glyph glyph-name="uniFB80" unicode="&#x687;" horiz-adv-x="1139" arabic-form="initial" 
d="M766 541c-50 15.333 -106 30.665 -168 45.998c-50.667 12.667 -130 24.334 -238 35.001c-49.333 4.66699 -122.333 5 -219 1v184c43.333 4.66699 87.666 7.33398 132.999 8.00098c96.667 0 196.667 -11.667 300 -35c154.667 -34.667 298 -84.667 430 -150v-154
c-45.333 -16 -94.333 -41.333 -147 -76c-100 -65.333 -172 -120 -216 -164c-87.333 -86 -153.333 -138 -198 -156c-132.667 -53.333 -248 -80 -346 -80h-115v184h90c136 0 242.667 24 320 72c62.667 38.667 128.667 93.334 198 164.001
c56.667 57.333 115.334 97.666 176.001 120.999zM585 -300.001h135v-150h-135v150zM585 -50.001h135v-150h-135v150zM360 -300.001h135v-150h-135v150zM360 -50.001h135v-150h-135v150z" />
    <glyph glyph-name="uniFB81" unicode="&#x687;" horiz-adv-x="1189" arabic-form="medial" 
d="M574 780c154.667 -34.667 297.999 -84.668 429.999 -150.001v-154c-38.667 -13.333 -80 -33.666 -124 -60.999c30 -52 54 -89.333 72 -112c62.667 -79.333 128 -119 196 -119h60v-184h-78c-125.333 0 -225.666 56 -300.999 168c-24 36 -53.667 86.333 -89 151
c-41.333 -30.667 -74.333 -58.334 -99 -83.001c-87.333 -86 -153.333 -138 -198 -156c-132.667 -53.333 -248 -80 -346 -80h-115v184h90c136 0 242.667 24 320 72c62.667 38.667 128.667 93.334 198 164.001c56.667 57.333 115.334 97.666 176.001 120.999
c-50 15.333 -106 30.666 -168 45.999c-50.667 12.667 -130 24.334 -238 35.001c-49.333 4.66699 -122.333 5 -219 1v184c43.333 4.66699 87.666 7.33398 132.999 8.00098c96.667 0 196.667 -11.667 300 -35zM584.999 -300.001h135v-150h-135v150zM584.999 -50.001h135v-150
h-135v150zM359.999 -300.001h135v-150h-135v150zM359.999 -50.001h135v-150h-135v150z" />
    <glyph glyph-name="uniFB82" unicode="&#x68d;" horiz-adv-x="820" arabic-form="isolated" 
d="M494 -150h135v-150h-135v150zM269 -150h135v-150h-135v150zM352 151c103.333 32.667 165.332 86.333 185.999 161c4.66699 18 7 41 7 69c0 52 -18 116.667 -54 194c-39.333 86 -111 177.667 -215 275h205c67.333 -60.667 121 -132.334 161 -215.001
c49.333 -101.333 74 -187 74 -257c0 -66 -9.66699 -124 -29 -174c-48 -129.333 -150.667 -207.666 -308 -234.999c-27.333 -4.66699 -54.666 -7 -81.999 -7c-61.333 0 -123 12.667 -185 38v184c69.333 -28 129.333 -42 180 -42c19.333 0 39.333 3 60 9z" />
    <glyph glyph-name="uniFB83" unicode="&#x68d;" horiz-adv-x="967" arabic-form="final" 
d="M494 -150h135v-150h-135v150zM269 -150h135v-150h-135v150zM491 575c-34 81.333 -105.668 172.999 -215.001 274.999h205c58 -52 111.667 -123.667 161 -215c48.667 -89.333 73 -173 73 -251c0 -48.667 24.667 -100.667 74 -156c26.667 -29.333 69.667 -44 129 -44h68
v-184h-118c-88 0 -161 43.333 -219 130c-56 -85.333 -146 -139 -270 -161c-27.333 -4.66699 -54.666 -7 -81.999 -7c-61.333 0 -123 12.667 -185 38v184c69.333 -28 129.333 -42 180 -42c19.333 0 39.333 3 60 9c103.333 32.667 165.333 86.334 186 161.001
c4.66699 18 7 41 7 69c0 45.333 -18 110 -54 194z" />
    <glyph glyph-name="uniFB84" unicode="&#x68c;" horiz-adv-x="820" arabic-form="isolated" 
d="M450 1200h135v-150h-135v150zM225 1200h135v-150h-135v150zM352 151c103.333 32.667 165.332 86.333 185.999 161c4.66699 18 7 41 7 69c0 52 -18 116.667 -54 194c-39.333 86 -111 177.667 -215 275h205c67.333 -60.667 121 -132.334 161 -215.001
c49.333 -101.333 74 -187 74 -257c0 -66 -9.66699 -124 -29 -174c-48 -129.333 -150.667 -207.666 -308 -234.999c-27.333 -4.66699 -54.666 -7 -81.999 -7c-61.333 0 -123 12.667 -185 38v184c69.333 -28 129.333 -42 180 -42c19.333 0 39.333 3 60 9z" />
    <glyph glyph-name="uniFB85" unicode="&#x68c;" horiz-adv-x="967" arabic-form="final" 
d="M450 1200h135v-150h-135v150zM225 1200h135v-150h-135v150zM491 575c-34 81.333 -105.668 172.999 -215.001 274.999h205c58 -52 111.667 -123.667 161 -215c48.667 -89.333 73 -173 73 -251c0 -48.667 24.667 -100.667 74 -156c26.667 -29.333 69.667 -44 129 -44h68
v-184h-118c-88 0 -161 43.333 -219 130c-56 -85.333 -146 -139 -270 -161c-27.333 -4.66699 -54.666 -7 -81.999 -7c-61.333 0 -123 12.667 -185 38v184c69.333 -28 129.333 -42 180 -42c19.333 0 39.333 3 60 9c103.333 32.667 165.333 86.334 186 161.001
c4.66699 18 7 41 7 69c0 45.333 -18 110 -54 194z" />
    <glyph glyph-name="uniFB86" unicode="&#x68e;" horiz-adv-x="820" arabic-form="isolated" 
d="M337 1450h136v-150h-136v150zM450 1200h135v-150h-135v150zM225 1200h135v-150h-135v150zM352 151c103.333 32.667 165.332 86.333 185.999 161c4.66699 18 7 41 7 69c0 52 -18 116.667 -54 194c-39.333 86 -111 177.667 -215 275h205
c67.333 -60.667 121 -132.334 161 -215.001c49.333 -101.333 74 -187 74 -257c0 -66 -9.66699 -124 -29 -174c-48 -129.333 -150.667 -207.666 -308 -234.999c-27.333 -4.66699 -54.666 -7 -81.999 -7c-61.333 0 -123 12.667 -185 38v184c69.333 -28 129.333 -42 180 -42
c19.333 0 39.333 3 60 9z" />
    <glyph glyph-name="uniFB87" unicode="&#x68e;" horiz-adv-x="967" arabic-form="final" 
d="M337 1450h136v-150h-136v150zM450 1200h135v-150h-135v150zM225 1200h135v-150h-135v150zM491 575c-34 81.333 -105.668 172.999 -215.001 274.999h205c58 -52 111.667 -123.667 161 -215c48.667 -89.333 73 -173 73 -251c0 -48.667 24.667 -100.667 74 -156
c26.667 -29.333 69.667 -44 129 -44h68v-184h-118c-88 0 -161 43.333 -219 130c-56 -85.333 -146 -139 -270 -161c-27.333 -4.66699 -54.666 -7 -81.999 -7c-61.333 0 -123 12.667 -185 38v184c69.333 -28 129.333 -42 180 -42c19.333 0 39.333 3 60 9
c103.333 32.667 165.333 86.334 186 161.001c4.66699 18 7 41 7 69c0 45.333 -18 110 -54 194z" />
    <glyph glyph-name="uniFB88" unicode="&#x688;" horiz-adv-x="820" arabic-form="isolated" 
d="M359 1128h49.002c47.333 0 77.333 4.33301 90 13c32 22 48 40 48 54c0 21.333 -9 37.333 -27 48c-0.666992 0.666992 -22.334 -8.33301 -65.001 -27c-30.667 -14 -62.334 -43.333 -95.001 -88zM429.002 1027h-157h-101v101h73v399h92v-321
c21.333 48.667 63.333 86.334 126 113.001c37.333 16 77 15.333 119 -2c39.333 -16.667 59 -52.334 59 -107.001c0 -60.667 -19.333 -107.667 -58 -141c-32 -28 -83 -42 -153 -42zM352.002 151c103.333 32.667 165.332 86.333 185.999 161c4.66699 18 7 41 7 69
c0 52 -18 116.667 -54 194c-39.333 86 -111 177.667 -215 275h205c67.333 -60.667 121 -132.334 161 -215.001c49.333 -101.333 74 -187 74 -257c0 -66 -9.66699 -124 -29 -174c-48 -129.333 -150.667 -207.666 -308 -234.999c-27.333 -4.66699 -54.666 -7 -81.999 -7
c-61.333 0 -123 12.667 -185 38v184c69.333 -28 129.333 -42 180 -42c19.333 0 39.333 3 60 9z" />
    <glyph glyph-name="uniFB89" unicode="&#x688;" horiz-adv-x="967" arabic-form="final" 
d="M359 1128h49.002c47.333 0 77.333 4.33301 90 13c32 22 48 40 48 54c0 21.333 -9 37.333 -27 48c-0.666992 0.666992 -22.334 -8.33301 -65.001 -27c-30.667 -14 -62.334 -43.333 -95.001 -88zM429.002 1027h-157h-101v101h73v399h92v-321
c21.333 48.667 63.333 86.334 126 113.001c37.333 16 77 15.333 119 -2c39.333 -16.667 59 -52.334 59 -107.001c0 -60.667 -19.333 -107.667 -58 -141c-32 -28 -83 -42 -153 -42zM491.002 575c-34 81.333 -105.668 172.999 -215.001 274.999h205
c58 -52 111.667 -123.667 161 -215c48.667 -89.333 73 -173 73 -251c0 -48.667 24.667 -100.667 74 -156c26.667 -29.333 69.667 -44 129 -44h68v-184h-118c-88 0 -161 43.333 -219 130c-56 -85.333 -146 -139 -270 -161c-27.333 -4.66699 -54.666 -7 -81.999 -7
c-61.333 0 -123 12.667 -185 38v184c69.333 -28 129.333 -42 180 -42c19.333 0 39.333 3 60 9c103.333 32.667 165.333 86.334 186 161.001c4.66699 18 7 41 7 69c0 45.333 -18 110 -54 194z" />
    <glyph glyph-name="uniFB8A" unicode="&#x698;" horiz-adv-x="890" arabic-form="isolated" 
d="M562 1200h136v-150h-136v150zM675 950h135v-150h-135v150zM450 950h135v-150h-135v150zM608 158c5.33301 38.667 8.00098 81.999 8.00098 129.999c0 84 -15.667 171.333 -47 262h165c30 -78.667 45 -162 45 -250c0 -54.667 -2.33301 -102.667 -7 -144
c-27.333 -233.333 -128.333 -401.666 -303 -504.999c-170.667 -100.667 -352.334 -151 -545.001 -151v184c182 0 334 42.667 456 128c130.667 92 206.667 207.333 228 346z" />
    <glyph glyph-name="uniFB8B" unicode="&#x698;" horiz-adv-x="1017" arabic-form="final" 
d="M569 550h165.002c18 -74.667 28 -122 30 -142c6 -68.667 31 -128.667 75 -180c25.333 -29.333 68.333 -44 129 -44h67v-184h-117c-78 0 -132 20.667 -162 62c-40.667 -185.333 -136.334 -322.333 -287.001 -411c-170.667 -100.667 -352.334 -151 -545.001 -151v184
c182 0 334 42.667 456 128c130.667 92 206.667 207.333 228 346c5.33301 38.667 8 82 8 130c0 84 -15.667 171.333 -47 262zM562.002 1200h136v-150h-136v150zM675.002 950h135v-150h-135v150zM450.002 950h135v-150h-135v150z" />
    <glyph glyph-name="uniFB8C" unicode="&#x691;" horiz-adv-x="890" arabic-form="isolated" 
d="M608 158c5.33301 38.667 8.00098 81.999 8.00098 129.999c0 84 -15.667 171.333 -47 262h165c30 -78.667 45 -162 45 -250c0 -54.667 -2.33301 -102.667 -7 -144c-27.333 -233.333 -128.333 -401.666 -303 -504.999c-170.667 -100.667 -352.334 -151 -545.001 -151v184
c182 0 334 42.667 456 128c130.667 92 206.667 207.333 228 346zM584.001 927.999h49.002c47.333 0 77.333 4.33301 90 13c32 22 48 40 48 54c0 21.333 -9 37.333 -27 48c-0.666992 0.666992 -22.334 -8.33301 -65.001 -27c-30.667 -14 -62.334 -43.333 -95.001 -88z
M654.003 826.999h-157h-101v101h73v399h92v-321c21.333 48.667 63.333 86.334 126 113.001c37.333 16 77 15.333 119 -2c39.333 -16.667 59 -52.334 59 -107.001c0 -60.667 -19.333 -107.667 -58 -141c-32 -28 -83 -42 -153 -42z" />
    <glyph glyph-name="uniFB8D" unicode="&#x691;" horiz-adv-x="1017" arabic-form="final" 
d="M569 550h165.002c18 -74.667 28 -122 30 -142c6 -68.667 31 -128.667 75 -180c25.333 -29.333 68.333 -44 129 -44h67v-184h-117c-78 0 -132 20.667 -162 62c-40.667 -185.333 -136.334 -322.333 -287.001 -411c-170.667 -100.667 -352.334 -151 -545.001 -151v184
c182 0 334 42.667 456 128c130.667 92 206.667 207.333 228 346c5.33301 38.667 8 82 8 130c0 84 -15.667 171.333 -47 262zM584.002 928h49.002c47.333 0 77.333 4.33301 90 13c32 22 48 40 48 54c0 21.333 -9 37.333 -27 48
c-0.666992 0.666992 -22.334 -8.33301 -65.001 -27c-30.667 -14 -62.334 -43.333 -95.001 -88zM654.004 827h-157h-101v101h73v399h92v-321c21.333 48.667 63.333 86.334 126 113.001c37.333 16 77 15.333 119 -2c39.333 -16.667 59 -52.334 59 -107.001
c0 -60.667 -19.333 -107.667 -58 -141c-32 -28 -83 -42 -153 -42z" />
    <glyph glyph-name="uniFB8E" unicode="&#x6a9;" horiz-adv-x="1649" arabic-form="isolated" 
d="M693 88c110.667 0 224 26.667 340 80c94 43.333 152 83.333 174 120c9.33301 17.333 14 41.333 14 72c0 46 -16 91 -48 135l-279 380c-30 40.667 -45 88 -45 142c0 23.333 3 46 9 68c20.667 79.333 61 133 121 161l671 310v-186l-536 -250
c-42.667 -20 -70.334 -43.333 -83.001 -70c-3.33301 -7.33301 -5 -19.333 -5 -36c0 -21.333 9.33301 -44.333 28 -69l247 -330c61.333 -82 92 -164 92 -246c0 -75.333 -18.667 -146.666 -56 -213.999c-31.333 -57.333 -126.666 -114.333 -285.999 -171
c-136 -48.667 -252.333 -73 -349 -73c-114.667 0 -210.667 12.667 -288 38c-198 65.333 -297 187 -297 365c0 92 19 168.667 57 230h165c-38.667 -62.667 -58 -139.334 -58 -230.001c0 -84 61 -148 183 -192c62 -22.667 138.333 -34 229 -34z" />
    <glyph glyph-name="uniFB8F" unicode="&#x6a9;" horiz-adv-x="1649" arabic-form="final" 
d="M1292 120c-59.333 -50.667 -139.665 -96 -240.998 -136c-122.667 -48.667 -239 -73 -349 -73c-115.333 0 -211.333 12.667 -288 38c-198 65.333 -297 187 -297 365c0 92 19 168.667 57 230h165c-38.667 -62.667 -58 -139.334 -58 -230.001c0 -84 61 -148 183 -192
c62 -22.667 138.333 -34 229 -34c110.667 0 224 26.667 340 80c94.667 43.333 152.667 83.333 174 120c9.33301 17.333 14 41.333 14 72c0 46 -16 91 -48 135l-279 380c-30 40.667 -45 88 -45 142c0 23.333 3 46 9 68c20.667 79.333 61 133 121 161l671 310v-186l-536 -250
c-42.667 -20 -70.334 -43.333 -83.001 -70c-3.33301 -7.33301 -5 -19.333 -5 -36c0 -21.333 9.33301 -44.333 28 -69l525 -705c12.667 -17.333 30.667 -30.666 54 -39.999c25.333 -10.667 57.333 -16 96 -16h79v-184h-119c-38.667 0 -75.334 8 -110.001 24
c-62 28.667 -103 56.667 -123 84l-87 120c-15.333 -42.667 -41 -78.667 -77 -108z" />
    <glyph glyph-name="uniFB90" unicode="&#x6a9;" horiz-adv-x="877" arabic-form="initial" 
d="M279 0l-296.999 -0.00195312v184h279c88.667 0 146.667 34.667 174 104c9.33301 24 14 48 14 72c0 46 -16.333 91 -49 135l-278 380c-30.667 40.667 -46 88 -46 142c0 23.333 3.33301 46 10 68c18 78.667 58.333 132.334 121 161.001l671 310v-186l-536 -250
c-42.667 -20 -70.334 -43.333 -83.001 -70c-3.33301 -7.33301 -5 -19.333 -5 -36c0 -21.333 9.33301 -44.333 28 -69l247 -330c61.333 -82 92 -164 92 -246c0 -75.333 -18.667 -146.666 -56 -213.999c-56.667 -103.333 -152 -155 -286 -155z" />
    <glyph glyph-name="uniFB91" unicode="&#x6a9;" horiz-adv-x="1017" arabic-form="medial" 
d="M279 0l-296.998 -0.00195312v184h279c88.667 0 146.667 34.667 174 104c9.33301 24 14 48 14 72c0 46 -16.333 91 -49 135l-278 380c-30.667 40.667 -46 88 -46 142c0 23.333 3.33301 46 10 68c18 78.667 58.333 132.334 121 161.001l671 310v-186l-536 -250
c-42.667 -20 -70.334 -43.333 -83.001 -70c-3.33301 -7.33301 -5 -19.333 -5 -36c0 -21.333 9.33301 -44.333 28 -69l524 -705c13.333 -17.333 31.333 -30.666 54 -39.999c26 -10.667 58.333 -16 97 -16h79v-184h-119c-38.667 0 -75.667 8 -111 24
c-61.333 28.667 -102 56.667 -122 84l-87 120c-12.667 -30.667 -24.334 -55 -35.001 -73c-56.667 -103.333 -151 -155 -283 -155z" />
    <glyph glyph-name="uniFB92" unicode="&#x6af;" horiz-adv-x="1649" arabic-form="isolated" 
d="M1650 1685l-777 -354v150l777 354v-150zM693 88c110.667 0 224 26.667 340 80c94 43.333 152 83.333 174 120c9.33301 17.333 14 41.333 14 72c0 46 -16 91 -48 135l-279 380c-30 40.667 -45 88 -45 142c0 23.333 3 46 9 68c20.667 79.333 61 133 121 161l671 310v-186
l-536 -250c-42.667 -20 -70.334 -43.333 -83.001 -70c-3.33301 -7.33301 -5 -19.333 -5 -36c0 -21.333 9.33301 -44.333 28 -69l247 -330c61.333 -82 92 -164 92 -246c0 -75.333 -18.667 -146.666 -56 -213.999c-31.333 -57.333 -126.666 -114.333 -285.999 -171
c-136 -48.667 -252.333 -73 -349 -73c-114.667 0 -210.667 12.667 -288 38c-198 65.333 -297 187 -297 365c0 92 19 168.667 57 230h165c-38.667 -62.667 -58 -139.334 -58 -230.001c0 -84 61 -148 183 -192c62 -22.667 138.333 -34 229 -34z" />
    <glyph glyph-name="uniFB93" unicode="&#x6af;" horiz-adv-x="1649" arabic-form="final" 
d="M1292 120c-59.333 -50.667 -139.665 -96 -240.998 -136c-122.667 -48.667 -239 -73 -349 -73c-115.333 0 -211.333 12.667 -288 38c-198 65.333 -297 187 -297 365c0 92 19 168.667 57 230h165c-38.667 -62.667 -58 -139.334 -58 -230.001c0 -84 61 -148 183 -192
c62 -22.667 138.333 -34 229 -34c110.667 0 224 26.667 340 80c94.667 43.333 152.667 83.333 174 120c9.33301 17.333 14 41.333 14 72c0 46 -16 91 -48 135l-279 380c-30 40.667 -45 88 -45 142c0 23.333 3 46 9 68c20.667 79.333 61 133 121 161l671 310v-186l-536 -250
c-42.667 -20 -70.334 -43.333 -83.001 -70c-3.33301 -7.33301 -5 -19.333 -5 -36c0 -21.333 9.33301 -44.333 28 -69l525 -705c12.667 -17.333 30.667 -30.666 54 -39.999c25.333 -10.667 57.333 -16 96 -16h79v-184h-119c-38.667 0 -75.334 8 -110.001 24
c-62 28.667 -103 56.667 -123 84l-87 120c-15.333 -42.667 -41 -78.667 -77 -108zM1650 1685l-777 -354v150l777 354v-150z" />
    <glyph glyph-name="uniFB94" unicode="&#x6af;" horiz-adv-x="877" arabic-form="initial" 
d="M279 0l-296.999 -0.00195312v184h279c88.667 0 146.667 34.667 174 104c9.33301 24 14 48 14 72c0 46 -16.333 91 -49 135l-278 380c-30.667 40.667 -46 88 -46 142c0 23.333 3.33301 46 10 68c18 78.667 58.333 132.334 121 161.001l671 310v-186l-536 -250
c-42.667 -20 -70.334 -43.333 -83.001 -70c-3.33301 -7.33301 -5 -19.333 -5 -36c0 -21.333 9.33301 -44.333 28 -69l247 -330c61.333 -82 92 -164 92 -246c0 -75.333 -18.667 -146.666 -56 -213.999c-56.667 -103.333 -152 -155 -286 -155zM878.001 1685l-777 -354v150
l777 354v-150z" />
    <glyph glyph-name="uniFB95" unicode="&#x6af;" horiz-adv-x="1017" arabic-form="medial" 
d="M279 0l-296.998 -0.00195312v184h279c88.667 0 146.667 34.667 174 104c9.33301 24 14 48 14 72c0 46 -16.333 91 -49 135l-278 380c-30.667 40.667 -46 88 -46 142c0 23.333 3.33301 46 10 68c18 78.667 58.333 132.334 121 161.001l671 310v-186l-536 -250
c-42.667 -20 -70.334 -43.333 -83.001 -70c-3.33301 -7.33301 -5 -19.333 -5 -36c0 -21.333 9.33301 -44.333 28 -69l524 -705c13.333 -17.333 31.333 -30.666 54 -39.999c26 -10.667 58.333 -16 97 -16h79v-184h-119c-38.667 0 -75.667 8 -111 24
c-61.333 28.667 -102 56.667 -122 84l-87 120c-12.667 -30.667 -24.334 -55 -35.001 -73c-56.667 -103.333 -151 -155 -283 -155zM878.002 1685l-777 -354v150l777 354v-150z" />
    <glyph glyph-name="uniFB96" unicode="&#x6b3;" horiz-adv-x="1649" arabic-form="isolated" 
d="M652 -450h135v-150h-135v150zM652 -200h135v-150h-135v150zM693 88c110.667 0 224 26.667 340 80c94 43.333 152 83.333 174 120c9.33301 17.333 14 41.333 14 72c0 46 -16 91 -48 135l-279 380c-30 40.667 -45 88 -45 142c0 23.333 3 46 9 68
c20.667 79.333 61 133 121 161l671 310v-186l-536 -250c-42.667 -20 -70.334 -43.333 -83.001 -70c-3.33301 -7.33301 -5 -19.333 -5 -36c0 -21.333 9.33301 -44.333 28 -69l247 -330c61.333 -82 92 -164 92 -246c0 -75.333 -18.667 -146.666 -56 -213.999
c-31.333 -57.333 -126.666 -114.333 -285.999 -171c-136 -48.667 -252.333 -73 -349 -73c-114.667 0 -210.667 12.667 -288 38c-198 65.333 -297 187 -297 365c0 92 19 168.667 57 230h165c-38.667 -62.667 -58 -139.334 -58 -230.001c0 -84 61 -148 183 -192
c62 -22.667 138.333 -34 229 -34zM1650 1685l-777 -354v150l777 354v-150z" />
    <glyph glyph-name="uniFB97" unicode="&#x6b3;" horiz-adv-x="1649" arabic-form="final" 
d="M1292 120c-59.333 -50.667 -139.665 -96 -240.998 -136c-122.667 -48.667 -239 -73 -349 -73c-115.333 0 -211.333 12.667 -288 38c-198 65.333 -297 187 -297 365c0 92 19 168.667 57 230h165c-38.667 -62.667 -58 -139.334 -58 -230.001c0 -84 61 -148 183 -192
c62 -22.667 138.333 -34 229 -34c110.667 0 224 26.667 340 80c94.667 43.333 152.667 83.333 174 120c9.33301 17.333 14 41.333 14 72c0 46 -16 91 -48 135l-279 380c-30 40.667 -45 88 -45 142c0 23.333 3 46 9 68c20.667 79.333 61 133 121 161l671 310v-186l-536 -250
c-42.667 -20 -70.334 -43.333 -83.001 -70c-3.33301 -7.33301 -5 -19.333 -5 -36c0 -21.333 9.33301 -44.333 28 -69l525 -705c12.667 -17.333 30.667 -30.666 54 -39.999c25.333 -10.667 57.333 -16 96 -16h79v-184h-119c-38.667 0 -75.334 8 -110.001 24
c-62 28.667 -103 56.667 -123 84l-87 120c-15.333 -42.667 -41 -78.667 -77 -108zM1650 1685l-777 -354v150l777 354v-150zM652.001 -450h135v-150h-135v150zM652.001 -200h135v-150h-135v150z" />
    <glyph glyph-name="uniFB98" unicode="&#x6b3;" horiz-adv-x="877" arabic-form="initial" 
d="M279 0l-296.999 -0.00195312v184h279c88.667 0 146.667 34.667 174 104c9.33301 24 14 48 14 72c0 46 -16.333 91 -49 135l-278 380c-30.667 40.667 -46 88 -46 142c0 23.333 3.33301 46 10 68c18 78.667 58.333 132.334 121 161.001l671 310v-186l-536 -250
c-42.667 -20 -70.334 -43.333 -83.001 -70c-3.33301 -7.33301 -5 -19.333 -5 -36c0 -21.333 9.33301 -44.333 28 -69l247 -330c61.333 -82 92 -164 92 -246c0 -75.333 -18.667 -146.666 -56 -213.999c-56.667 -103.333 -152 -155 -286 -155zM878.001 1685l-777 -354v150
l777 354v-150zM292.001 -400.002h135v-150h-135v150zM292.001 -150.002h135v-150h-135v150z" />
    <glyph glyph-name="uniFB99" unicode="&#x6b3;" horiz-adv-x="1017" arabic-form="medial" 
d="M279 0l-296.998 -0.00195312v184h279c88.667 0 146.667 34.667 174 104c9.33301 24 14 48 14 72c0 46 -16.333 91 -49 135l-278 380c-30.667 40.667 -46 88 -46 142c0 23.333 3.33301 46 10 68c18 78.667 58.333 132.334 121 161.001l671 310v-186l-536 -250
c-42.667 -20 -70.334 -43.333 -83.001 -70c-3.33301 -7.33301 -5 -19.333 -5 -36c0 -21.333 9.33301 -44.333 28 -69l524 -705c13.333 -17.333 31.333 -30.666 54 -39.999c26 -10.667 58.333 -16 97 -16h79v-184h-119c-38.667 0 -75.667 8 -111 24
c-61.333 28.667 -102 56.667 -122 84l-87 120c-12.667 -30.667 -24.334 -55 -35.001 -73c-56.667 -103.333 -151 -155 -283 -155zM878.002 1685l-777 -354v150l777 354v-150zM292.002 -400.002h135v-150h-135v150zM292.002 -150.002h135v-150h-135v150z" />
    <glyph glyph-name="uniFB9A" unicode="&#x6b1;" horiz-adv-x="1649" arabic-form="isolated" 
d="M1035 1850h135v-150h-135v150zM810 1850h135v-150h-135v150zM693 88c110.667 0 224 26.667 340 80c94 43.333 152 83.333 174 120c9.33301 17.333 14 41.333 14 72c0 46 -16 91 -48 135l-279 380c-30 40.667 -45 88 -45 142c0 23.333 3 46 9 68
c20.667 79.333 61 133 121 161l671 310v-186l-536 -250c-42.667 -20 -70.334 -43.333 -83.001 -70c-3.33301 -7.33301 -5 -19.333 -5 -36c0 -21.333 9.33301 -44.333 28 -69l247 -330c61.333 -82 92 -164 92 -246c0 -75.333 -18.667 -146.666 -56 -213.999
c-31.333 -57.333 -126.666 -114.333 -285.999 -171c-136 -48.667 -252.333 -73 -349 -73c-114.667 0 -210.667 12.667 -288 38c-198 65.333 -297 187 -297 365c0 92 19 168.667 57 230h165c-38.667 -62.667 -58 -139.334 -58 -230.001c0 -84 61 -148 183 -192
c62 -22.667 138.333 -34 229 -34zM1650 1685l-777 -354v150l777 354v-150z" />
    <glyph glyph-name="uniFB9B" unicode="&#x6b1;" horiz-adv-x="1649" arabic-form="final" 
d="M1292 120c-59.333 -50.667 -139.665 -96 -240.998 -136c-122.667 -48.667 -239 -73 -349 -73c-115.333 0 -211.333 12.667 -288 38c-198 65.333 -297 187 -297 365c0 92 19 168.667 57 230h165c-38.667 -62.667 -58 -139.334 -58 -230.001c0 -84 61 -148 183 -192
c62 -22.667 138.333 -34 229 -34c110.667 0 224 26.667 340 80c94.667 43.333 152.667 83.333 174 120c9.33301 17.333 14 41.333 14 72c0 46 -16 91 -48 135l-279 380c-30 40.667 -45 88 -45 142c0 23.333 3 46 9 68c20.667 79.333 61 133 121 161l671 310v-186l-536 -250
c-42.667 -20 -70.334 -43.333 -83.001 -70c-3.33301 -7.33301 -5 -19.333 -5 -36c0 -21.333 9.33301 -44.333 28 -69l525 -705c12.667 -17.333 30.667 -30.666 54 -39.999c25.333 -10.667 57.333 -16 96 -16h79v-184h-119c-38.667 0 -75.334 8 -110.001 24
c-62 28.667 -103 56.667 -123 84l-87 120c-15.333 -42.667 -41 -78.667 -77 -108zM1650 1685l-777 -354v150l777 354v-150zM1035 1850h135v-150h-135v150zM810.001 1850h135v-150h-135v150z" />
    <glyph glyph-name="uniFB9C" unicode="&#x6b1;" horiz-adv-x="877" arabic-form="initial" 
d="M279 0l-296.999 -0.00195312v184h279c88.667 0 146.667 34.667 174 104c9.33301 24 14 48 14 72c0 46 -16.333 91 -49 135l-278 380c-30.667 40.667 -46 88 -46 142c0 23.333 3.33301 46 10 68c18 78.667 58.333 132.334 121 161.001l671 310v-186l-536 -250
c-42.667 -20 -70.334 -43.333 -83.001 -70c-3.33301 -7.33301 -5 -19.333 -5 -36c0 -21.333 9.33301 -44.333 28 -69l247 -330c61.333 -82 92 -164 92 -246c0 -75.333 -18.667 -146.666 -56 -213.999c-56.667 -103.333 -152 -155 -286 -155zM878.001 1685l-777 -354v150
l777 354v-150zM293.001 1850h135v-150h-135v150zM68.001 1850h135v-150h-135v150z" />
    <glyph glyph-name="uniFB9D" unicode="&#x6b1;" horiz-adv-x="1017" arabic-form="medial" 
d="M279 0l-296.998 -0.00195312v184h279c88.667 0 146.667 34.667 174 104c9.33301 24 14 48 14 72c0 46 -16.333 91 -49 135l-278 380c-30.667 40.667 -46 88 -46 142c0 23.333 3.33301 46 10 68c18 78.667 58.333 132.334 121 161.001l671 310v-186l-536 -250
c-42.667 -20 -70.334 -43.333 -83.001 -70c-3.33301 -7.33301 -5 -19.333 -5 -36c0 -21.333 9.33301 -44.333 28 -69l524 -705c13.333 -17.333 31.333 -30.666 54 -39.999c26 -10.667 58.333 -16 97 -16h79v-184h-119c-38.667 0 -75.667 8 -111 24
c-61.333 28.667 -102 56.667 -122 84l-87 120c-12.667 -30.667 -24.334 -55 -35.001 -73c-56.667 -103.333 -151 -155 -283 -155zM878.002 1685l-777 -354v150l777 354v-150zM293.002 1850h135v-150h-135v150zM68.002 1850h135v-150h-135v150z" />
    <glyph glyph-name="uniFB9E" unicode="&#x6ba;" horiz-adv-x="1353" arabic-form="isolated" 
d="M1217 312c0 -115.333 -29.999 -232.334 -89.999 -351.001c-66.667 -131.333 -174.334 -219.666 -323.001 -264.999c-58.667 -18 -112 -27 -160 -27c-78.667 0 -150.667 12.333 -216 37c-197.333 70.667 -296 224.667 -296 462c0 156.667 14.333 262 43 316h165
c-29.333 -96 -44 -201.333 -44 -316c0 -158 60.333 -254.333 181 -289c55.333 -16 111 -24 167 -24c46 0 90.333 6.66699 133 20c115.333 35.333 196 127 242 275c20 65.333 30 130 30 194c0 122.667 -30.333 258 -91 406h165c62.667 -104 94 -250 94 -438z" />
    <glyph glyph-name="uniFB9F" unicode="&#x6ba;" horiz-adv-x="1403" arabic-form="final" 
d="M1123 581c26.667 -64.667 48.002 -129.002 64.002 -193.002c13.333 -53.333 35 -100 65 -140c32 -42.667 66 -64 102 -64h67v-184h-117c-42.667 0 -74 16 -94 48c-2 -72.667 -29.667 -158 -83 -256c-72 -132.667 -179.667 -221 -323 -265
c-58.667 -18 -115.334 -27 -170.001 -27c-70 0 -138.667 12.333 -206 37c-197.333 71.333 -296 225.333 -296 462c0 116.667 14.333 222 43 316h165c-29.333 -91.333 -44 -196.666 -44 -315.999c0 -157.333 60.333 -253.666 181 -288.999c54 -16 103.667 -24 149 -24
c53.333 0 103.666 6.66699 150.999 20c116 32 196.667 123.667 242 275c19.333 67.333 29 138.333 29 213c0 122.667 -30 251.667 -90 387h165z" />
    <glyph glyph-name="uniFBA0" unicode="&#x6bb;" horiz-adv-x="1353" arabic-form="isolated" 
d="M595 903h49.002c47.333 0 77.333 4.33301 90 13c32 22 48 40 48 54c0 21.333 -9 37.333 -27 48c-0.666992 0.666992 -22.334 -8.33301 -65.001 -27c-30.667 -14 -62.334 -43.333 -95.001 -88zM665.002 802h-157h-101v101h73v399h92v-321
c21.333 48.667 63.333 86.334 126 113.001c37.333 16 77 15.333 119 -2c39.333 -16.667 59 -52.334 59 -107.001c0 -60.667 -19.333 -107.667 -58 -141c-32 -28 -83 -42 -153 -42zM1217 312c0 -115.333 -29.999 -232.334 -89.999 -351.001
c-66.667 -131.333 -174.334 -219.666 -323.001 -264.999c-58.667 -18 -112 -27 -160 -27c-78.667 0 -150.667 12.333 -216 37c-197.333 70.667 -296 224.667 -296 462c0 156.667 14.333 262 43 316h165c-29.333 -96 -44 -201.333 -44 -316c0 -158 60.333 -254.333 181 -289
c55.333 -16 111 -24 167 -24c46 0 90.333 6.66699 133 20c115.333 35.333 196 127 242 275c20 65.333 30 130 30 194c0 122.667 -30.333 258 -91 406h165c62.667 -104 94 -250 94 -438z" />
    <glyph glyph-name="uniFBA1" unicode="&#x6bb;" horiz-adv-x="1403" arabic-form="final" 
d="M1123 581c26.667 -64.667 48.002 -129.002 64.002 -193.002c13.333 -53.333 35 -100 65 -140c32 -42.667 66 -64 102 -64h67v-184h-117c-42.667 0 -74 16 -94 48c-2 -72.667 -29.667 -158 -83 -256c-72 -132.667 -179.667 -221 -323 -265
c-58.667 -18 -115.334 -27 -170.001 -27c-70 0 -138.667 12.333 -206 37c-197.333 71.333 -296 225.333 -296 462c0 116.667 14.333 222 43 316h165c-29.333 -91.333 -44 -196.666 -44 -315.999c0 -157.333 60.333 -253.666 181 -288.999c54 -16 103.667 -24 149 -24
c53.333 0 103.666 6.66699 150.999 20c116 32 196.667 123.667 242 275c19.333 67.333 29 138.333 29 213c0 122.667 -30 251.667 -90 387h165zM595.002 652.998h49.002c47.333 0 77.333 4.33301 90 13c32 22 48 40 48 54c0 21.333 -9 37.333 -27 48
c-0.666992 0.666992 -22.334 -8.33301 -65.001 -27c-30.667 -14 -62.334 -43.333 -95.001 -88zM665.004 551.998h-157h-101v101h73v399h92v-321c21.333 48.667 63.333 86.334 126 113.001c37.333 16 77 15.333 119 -2c39.333 -16.667 59 -52.334 59 -107.001
c0 -60.667 -19.333 -107.667 -58 -141c-32 -28 -83 -42 -153 -42z" />
    <glyph glyph-name="uniFBA2" unicode="&#x6bb;" horiz-adv-x="513" arabic-form="initial" 
d="M269 86c-43.333 -57.333 -112 -86.001 -206 -86.001h-81v184h32c59.333 0 102 14.667 128 44c29.333 32.667 44 84.334 44 155.001v217h166v-217c0 -124.667 -27.667 -223.667 -83 -297zM223 977.999h49.002c47.333 0 77.333 4.33301 90 13c32 22 48 40 48 54
c0 21.333 -9 37.333 -27 48c-0.666992 0.666992 -22.334 -8.33301 -65.001 -27c-30.667 -14 -62.334 -43.333 -95.001 -88zM293.002 876.999h-157h-101v101h73v399h92v-321c21.333 48.667 63.333 86.334 126 113.001c37.333 16 77 15.333 119 -2
c39.333 -16.667 59 -52.334 59 -107.001c0 -60.667 -19.333 -107.667 -58 -141c-32 -28 -83 -42 -153 -42z" />
    <glyph glyph-name="uniFBA3" unicode="&#x6bb;" horiz-adv-x="556" arabic-form="medial" 
d="M269 86c-46 -57.333 -114.667 -86 -206 -86h-81v184h32c59.333 0 102 14.667 128 44c29.333 32.667 44 84.334 44 155.001v217h166v-217c0 -70.667 14.667 -122.334 44 -155.001c26.667 -29.333 69.667 -44 129 -44h49v-184h-99c-90 0 -158.667 28.667 -206 86zM223 978
h49.002c47.333 0 77.333 4.33301 90 13c32 22 48 40 48 54c0 21.333 -9 37.333 -27 48c-0.666992 0.666992 -22.334 -8.33301 -65.001 -27c-30.667 -14 -62.334 -43.333 -95.001 -88zM293.002 877h-157h-101v101h73v399h92v-321c21.333 48.667 63.333 86.334 126 113.001
c37.333 16 77 15.333 119 -2c39.333 -16.667 59 -52.334 59 -107.001c0 -60.667 -19.333 -107.667 -58 -141c-32 -28 -83 -42 -153 -42z" />
    <glyph glyph-name="uniFBAA" unicode="&#x6be;" horiz-adv-x="1287" arabic-form="isolated" 
d="M777 493c0 90 -28.666 135.001 -85.999 135.001c-38.667 0 -64.834 -14.667 -78.501 -44s-20.5 -54.833 -20.5 -76.5s2 -44.834 6 -69.501c12.667 -78.667 39.667 -135 81 -169c21.333 18 43 49.667 65 95s33 88.333 33 129zM680.001 24.001
c-90.667 -52.667 -168.668 -79 -234.001 -79c-34.667 0 -82.334 10.667 -143.001 32c-115.333 40.667 -173 118.334 -173 233.001c0 49.333 4.66699 92 14 128h166c-8.66699 -41.333 -13 -75.333 -13 -102c0 -46 18.667 -75.333 56 -88s64 -19 80 -19
c15.333 0 31.5 1.5 48.5 4.5s38.833 15.5 65.5 37.5c-43.333 44 -73.666 110 -90.999 198c-10.667 54 -16 105 -16 153c0 49.333 13.333 101 40 155c26.667 55.333 60 83 100 83c4.66699 0 9 -0.333008 13 -1c-26 26 -63.333 43.667 -112 53v185
c130.667 -44 262.334 -126.333 395.001 -247c200 -182 300 -362 300 -540c0 -68.667 -12 -123.334 -36 -164.001c-44 -75.333 -118.667 -113 -224 -113c-79.333 0 -158 30.333 -236 91zM912 508.001c3.33301 -24.667 5 -50 5 -76c0 -98 -29.333 -182 -88 -252l-26 -33
c31.333 -30.667 61.666 -46 90.999 -46c74.667 0 117.334 22.333 128.001 67c4 20 6 45.5 6 76.5s-9.33301 71 -28 120s-48 96.833 -88 143.5z" />
    <glyph glyph-name="uniFBAB" unicode="&#x6be;" horiz-adv-x="1164" arabic-form="final" 
d="M620 159c38 18 88.168 54.332 150.501 108.999s93.5 99.334 93.5 134.001c0 74.667 -25.333 112 -76 112c-44.667 0 -89.334 -47 -134.001 -141c-22.667 -48 -34 -111 -34 -189v-25zM130.001 209.999c0 49.333 4.66699 91.999 14 127.999h166
c-8.66699 -41.333 -13 -75.333 -13 -102c0 -46 18.667 -75.333 56 -88s62 -19 74 -19h27v55c0 176.667 41.667 307.334 125 392.001c69.333 71.333 143 107 221 107s137.333 -33 178 -99c28 -44.667 42 -105 42 -181c-12.667 -80.667 -47.334 -153.667 -104.001 -219h267
v-184h-310c98 -72 147 -145.667 147 -221s-14 -135 -42 -179c-41.333 -66 -102.166 -99 -182.499 -99s-156.833 37 -229.5 111s-109 185.333 -109 334c-34.667 0 -86 10.333 -154 31c-115.333 35.333 -173 113 -173 233zM620.001 -17.002c0 -70 11.332 -127.333 33.999 -172
c48 -94 92.667 -141 134 -141c50.667 0 76 37.333 76 112c0 34.667 -28.667 77.167 -86 127.5s-98.666 79.5 -123.999 87.5z" />
    <glyph glyph-name="uniFBAC" unicode="&#x6be;" horiz-adv-x="972" arabic-form="initial" 
d="M364 269c21.333 18 42.333 48.332 63 90.999c23.333 48 35 92.333 35 133c0 30.667 -4.66699 58.334 -14 83.001c-13.333 34.667 -37.333 52 -72 52c-38.667 0 -65 -15 -79 -45c-13.333 -28.667 -20 -54.667 -20 -78c0 -20 2.33301 -42.333 7 -67
c12 -78.667 38.667 -135 80 -169zM78 183.999c31.333 0 70.333 3.66699 117 11c-26.667 70 -44.667 128 -54 174c-10.667 52 -16 99.333 -16 142c0 56 13.667 111.667 41 167c28.667 60 66 87 112 81c-26.667 26 -64 43.667 -112 53v185
c133.333 -45.333 265 -127.666 395 -246.999c153.333 -139.333 249.333 -283 288 -431c8 -34.667 12 -71 12 -109c0 -68.667 -12 -123.334 -36 -164.001c-44 -75.333 -118.667 -113 -224 -113c-78.667 0 -164 36 -256 108c-72 -27.333 -152 -41 -240 -41h-123v184h96z
M597 507.999c3.33301 -24.667 5.00098 -50 5.00098 -76c0 -98 -29.333 -182 -88 -252l-26 -33c31.333 -30.667 61.666 -46 90.999 -46c74.667 0 117 22.333 127 67c4.66699 20 7 41 7 63c0 40 -10 86 -30 138c-17.333 46 -46 92.333 -86 139z" />
    <glyph glyph-name="uniFBAD" unicode="&#x6be;" horiz-adv-x="849" arabic-form="medial" 
d="M305 184h17.002c25.333 0 66.666 25.333 123.999 76c68.667 60 103 107.333 103 142c0 74.667 -25.333 112 -76 112c-44.667 0 -89.334 -47 -134.001 -141c-22.667 -48 -34 -111 -34 -189zM140.002 184c5.33301 177.333 46.666 308 123.999 392
c64.667 71.333 135.667 107 213 107c82.667 0 144.667 -33 186 -99c28 -44.667 42 -105 42 -181c0 -74 -49 -147 -147 -219h310v-184h-310c98 -72 147 -145 147 -219c0 -76 -14 -136.333 -42 -181c-41.333 -66 -103.333 -99 -186 -99c-77.333 0 -148.333 35.667 -213 107
c-77.333 85.333 -118.666 216 -123.999 392h-158v184h158zM305.002 0c0 -78 11.3311 -141 33.998 -189c44.667 -94 89.334 -141 134.001 -141c50.667 0 76 37.333 76 112c0 34.667 -34.333 82 -103 142c-57.333 50.667 -98.666 76 -123.999 76h-17z" />
    <glyph glyph-name="uniFBD3" unicode="&#x6ad;" horiz-adv-x="1519" arabic-form="isolated" 
d="M674 1750h136v-150h-136v150zM787 1500h135v-150h-135v150zM562 1500h135v-150h-135v150zM878 1135v-82c-44 -2.66699 -77.333 -8.66699 -100 -18c-48 -20 -72 -41 -72 -63c0 -18.667 4 -34 12 -46c7.33301 -10.667 31.333 -19.334 72 -26.001
c61.333 -10 92 -44.333 92 -103c0 -73.333 -26.333 -124 -79 -152c-49.333 -26 -97.333 -39 -144 -39c-40 0 -76.667 3.66699 -110 11v88c40.667 -6.66699 74.667 -10 102 -10c36 0 71 8.66699 105 26c36 17.333 54 36 54 56c0 25.333 -23.333 43.666 -70 54.999
c-44.667 10.667 -72.334 25.334 -83.001 44.001c-19.333 31.333 -28.666 62.333 -27.999 93c1.33301 54 24.333 93.667 69 119c51.333 28.667 111.333 44.334 180 47.001zM1097 281c46 48.667 68.999 158.667 68.999 330v945h165v-945c0 -218 -33 -368 -99 -450
c-89.333 -111.333 -200.333 -177.333 -333 -198c-81.333 -12.667 -157.666 -18.667 -228.999 -18c-124 1.33301 -216.333 12 -277 32c-175.333 58.667 -263 153 -263 283c0 50 4.66699 92.667 14 128h166c-8.66699 -38.667 -13 -72.667 -13 -102
c1.33301 -61.333 50 -107.333 146 -138c72.667 -23.333 147 -35 223 -35c84 0 152.667 9 206 27c91.333 31.333 166.333 78.333 225 141z" />
    <glyph glyph-name="uniFBD4" unicode="&#x6ad;" horiz-adv-x="1553" arabic-form="final" 
d="M878 1135v-82c-44 -2.66699 -77.333 -8.66699 -100 -18c-48 -20 -72 -41 -72 -63c0 -18.667 4 -34 12 -46c7.33301 -10.667 31.333 -19.334 72 -26.001c61.333 -10 92 -44.333 92 -103c0 -73.333 -26.333 -124 -79 -152c-49.333 -26 -97.333 -39 -144 -39
c-40 0 -76.667 3.66699 -110 11v88c40.667 -6.66699 74.667 -10 102 -10c36 0 71 8.66699 105 26c36 17.333 54 36 54 56c0 25.333 -23.333 43.666 -70 54.999c-44.667 10.667 -72.334 25.334 -83.001 44.001c-19.333 31.333 -28.666 62.333 -27.999 93
c1.33301 54 24.333 93.667 69 119c51.333 28.667 111.333 44.334 180 47.001zM899 -37c-65.333 -13.333 -141.667 -19.332 -229 -17.999c-124 1.33301 -216.333 12 -277 32c-175.333 58.667 -263 153 -263 283c0 50 4.66699 92.667 14 128h166
c-8.66699 -38.667 -13 -72.667 -13 -102c1.33301 -61.333 50 -107.333 146 -138c72.667 -23.333 147 -35 223 -35c84 0 152.667 9 206 27c91.333 31.333 166.333 78.333 225 141c46 48.667 69 158.667 69 330v945h165v-1173c0 -70.667 14.667 -122.334 44 -155.001
c26.667 -29.333 69.667 -44 129 -44h67v-184h-117c-91.333 0 -171 41 -239 123c-94.667 -84 -200 -137.333 -316 -160zM673.999 1750h136v-150h-136v150zM786.999 1500h135v-150h-135v150zM561.999 1500h135v-150h-135v150z" />
    <glyph glyph-name="uniFBD5" unicode="&#x6ad;" horiz-adv-x="877" arabic-form="initial" 
d="M279 0l-296.999 -0.00195312v184h279c88.667 0 146.667 34.667 174 104c9.33301 24 14 48 14 72c0 46 -16.333 91 -49 135l-278 380c-30.667 40.667 -46 88 -46 142c0 23.333 3.33301 46 10 68c18 78.667 58.333 132.334 121 161.001l671 310v-186l-536 -250
c-42.667 -20 -70.334 -43.333 -83.001 -70c-3.33301 -7.33301 -5 -19.333 -5 -36c0 -21.333 9.33301 -44.333 28 -69l247 -330c61.333 -82 92 -164 92 -246c0 -75.333 -18.667 -146.666 -56 -213.999c-56.667 -103.333 -152 -155 -286 -155zM180.001 1900h136v-150h-136v150
zM293.001 1650h135v-150h-135v150zM68.001 1650h135v-150h-135v150z" />
    <glyph glyph-name="uniFBD6" unicode="&#x6ad;" horiz-adv-x="1017" arabic-form="medial" 
d="M279 0l-296.998 -0.00195312v184h279c88.667 0 146.667 34.667 174 104c9.33301 24 14 48 14 72c0 46 -16.333 91 -49 135l-278 380c-30.667 40.667 -46 88 -46 142c0 23.333 3.33301 46 10 68c18 78.667 58.333 132.334 121 161.001l671 310v-186l-536 -250
c-42.667 -20 -70.334 -43.333 -83.001 -70c-3.33301 -7.33301 -5 -19.333 -5 -36c0 -21.333 9.33301 -44.333 28 -69l524 -705c13.333 -17.333 31.333 -30.666 54 -39.999c26 -10.667 58.333 -16 97 -16h79v-184h-119c-38.667 0 -75.667 8 -111 24
c-61.333 28.667 -102 56.667 -122 84l-87 120c-12.667 -30.667 -24.334 -55 -35.001 -73c-56.667 -103.333 -151 -155 -283 -155zM180.002 1900h136v-150h-136v150zM293.002 1650h135v-150h-135v150zM68.002 1650h135v-150h-135v150z" />
    <glyph glyph-name="uniFBD7" unicode="&#x6c7;" horiz-adv-x="890" arabic-form="isolated" 
d="M445 452c-38 0 -70.333 -19 -97 -57c-14 -22 -21 -45 -21 -69c0 -34 15.333 -66.667 46 -98c28 -29.333 99.667 -44 215 -44c0 122.667 -26 203.667 -78 243c-22 16.667 -43.667 25 -65 25zM749 184c0 -205.333 -51.666 -361.332 -154.999 -467.999
c-57.333 -58.667 -113.666 -102 -168.999 -130c-115.333 -57.333 -282.333 -86 -501 -86v184c215.333 0 363 25.333 443 76c100.667 63.333 169.667 144.333 207 243c-70.667 0 -119.334 3.33301 -146.001 10c-90.667 22 -148 44.333 -172 67
c-69.333 65.333 -104 143.666 -104 234.999c0 94 26.667 170 80 228c62.667 68.667 135 103 217 103c53.333 0 101.666 -17 144.999 -51c78 -60 124.667 -137.667 140 -233c10 -68 15 -127.333 15 -178zM415.001 914.001c-5.33301 1.33301 -13.999 5.33398 -25.999 12.001
c-64.667 37.333 -97 87.666 -97 150.999c0 58 20.667 104.333 62 139c17.333 14 44.666 21 81.999 21c44 0 78 -13 102 -39c32.667 -36 49 -80.333 49 -133c0 -21.333 -4 -47 -12 -77c10 -0.666992 20.5 -1.16699 31.5 -1.5s22.5 -0.5 34.5 -0.5v-110
c-21.333 0 -41.666 0.666992 -60.999 2c-18 1.33301 -35.333 3 -52 5c-25.333 -40.667 -59 -75 -101 -103c-120 -82 -224 -123 -312 -123v110c91.333 0 178.666 36.333 261.999 109c14 12 26.667 24.667 38 38zM475.002 1006c2 4.66699 3.66699 9.33301 5 14c6 14 9 29 9 45
c0 22.667 -5.16699 38.667 -15.5 48s-21.5 14 -33.5 14c-14 0 -24.333 -3 -31 -9c-10.667 -8.66699 -16 -22.334 -16 -41.001c0 -24.667 13.667 -43 41 -55c11.333 -5.33301 25 -10.666 41 -15.999z" />
    <glyph glyph-name="uniFBD8" unicode="&#x6c7;" horiz-adv-x="952" arabic-form="final" 
d="M588 184c0 50.667 -5 95 -15 133c-14 53.333 -35 90 -63 110c-36 27.333 -72 32.333 -108 15c-40 -19.333 -64 -47.666 -72 -84.999c-10 -50 4.33301 -93 43 -129c28 -26.667 99.667 -41.334 215 -44.001zM749 184l221.001 -0.00195312v-184h-174l-63 1
c-15.333 -104 -61.666 -199 -138.999 -285c-50 -55.333 -106.333 -98.666 -169 -129.999c-115.333 -57.333 -282.333 -86 -501 -86v184c216 0 363.667 25.333 443 76c100.667 63.333 169.667 144.333 207 243c-70.667 2 -119.334 5.33301 -146.001 10
c-84 16 -141.333 38.333 -172 67c-63.333 59.333 -98 134 -104 224c-1.33301 20.667 1 50 7 88c16.667 103.333 77.667 180 183 230c35.333 16.667 72.666 24.667 111.999 24c52 -1.33301 98.667 -18.333 140 -51c80 -61.333 126.667 -139 140 -233
c7.33301 -55.333 12.333 -114.666 15 -177.999zM415.001 913.998c-5.33301 1.33301 -13.999 5.33398 -25.999 12.001c-64.667 37.333 -97 87.666 -97 150.999c0 58 20.667 104.333 62 139c17.333 14 44.666 21 81.999 21c44 0 78 -13 102 -39c32.667 -36 49 -80.333 49 -133
c0 -21.333 -4 -47 -12 -77c10 -0.666992 20.5 -1.16699 31.5 -1.5s22.5 -0.5 34.5 -0.5v-110c-21.333 0 -41.666 0.666992 -60.999 2c-18 1.33301 -35.333 3 -52 5c-25.333 -40.667 -59 -75 -101 -103c-120 -82 -224 -123 -312 -123v110
c91.333 0 178.666 36.333 261.999 109c14 12 26.667 24.667 38 38zM475.002 1006c2 4.66699 3.66699 9.33301 5 14c6 14 9 29 9 45c0 22.667 -5.16699 38.667 -15.5 48s-21.5 14 -33.5 14c-14 0 -24.333 -3 -31 -9c-10.667 -8.66699 -16 -22.334 -16 -41.001
c0 -24.667 13.667 -43 41 -55c11.333 -5.33301 25 -10.666 41 -15.999z" />
    </font>
</defs>
</svg>
